<svg width="29" height="31" viewBox="0 0 29 31" fill="none" xmlns="http://www.w3.org/2000/svg">
<g clip-path="url(#clip0_596_13578)">
<path d="M20.3286 26.2305C19.6266 29.1715 17.1053 30.9898 14.5247 30.9997C12.0132 31.0096 9.41284 29.251 8.69105 26.2305C8.44386 26.2305 8.18679 26.2305 7.92972 26.2305C6.49603 26.2305 5.06235 26.2404 3.62866 26.2305C2.07633 26.2106 0.949153 25.4853 0.336129 24.0644C-0.276895 22.6436 -0.0791452 21.2724 1.01837 20.1696C2.4125 18.7686 3.01564 17.1292 2.97609 15.1718C2.94642 13.8801 2.92665 12.5785 3.09474 11.3067C3.58911 7.50128 5.61604 4.66955 8.87891 2.72211C10.2335 1.91731 11.7166 1.45032 13.269 1.26154C13.526 0.347433 13.9116 -0.0301313 14.5741 -0.000323607C15.1871 0.0294841 15.5727 0.436856 15.7408 1.2516C17.5008 1.46025 19.152 2.00673 20.6351 3.00032C23.8683 5.16635 25.7272 8.16699 26.0139 12.0917C26.1029 13.3237 26.0634 14.5756 26.0732 15.8176C26.0831 17.4372 26.6764 18.8183 27.8134 19.951C28.8615 20.9942 29.257 22.2263 28.8319 23.6571C28.4067 25.0978 27.4081 25.9423 25.9348 26.2007C25.7667 26.2305 25.5888 26.2305 25.4207 26.2305C23.8683 26.2305 22.3061 26.2305 20.7538 26.2305C20.6154 26.2305 20.4769 26.2305 20.3286 26.2305ZM14.5148 23.8458C18.1237 23.8458 21.7326 23.8458 25.3416 23.8458C25.8953 23.8458 26.3007 23.6173 26.5182 23.1106C26.7258 22.6138 26.6665 22.1468 26.2413 21.7494C26.0732 21.5904 25.915 21.4115 25.7568 21.2327C24.3232 19.5635 23.6607 17.626 23.6805 15.4202C23.6904 14.0987 23.7299 12.7574 23.5519 11.4458C22.9785 7.16346 19.241 3.77532 14.9894 3.5766C10.6389 3.37788 6.63446 6.37853 5.60616 10.6013C5.21066 12.2208 5.37875 13.8603 5.3392 15.4897C5.32931 16.0561 5.29964 16.6324 5.20077 17.1888C4.89426 18.9872 4.03405 20.4875 2.76845 21.7792C2.59048 21.958 2.45205 22.2362 2.42239 22.4846C2.3334 23.2497 2.87721 23.826 3.64844 23.826C7.27714 23.8458 10.896 23.8458 14.5148 23.8458ZM17.8073 26.2603C15.6123 26.2603 13.4074 26.2603 11.2025 26.2603C11.6968 27.701 13.1701 28.6846 14.7026 28.6151C16.0869 28.5455 17.5305 27.4526 17.8073 26.2603Z" fill="#454E64"/>
</g>
<defs>
<clipPath id="clip0_596_13578">
<rect width="29" height="31" fill="white"/>
</clipPath>
</defs>
</svg>
