<svg width="33" height="31" viewBox="0 0 33 31" fill="none" xmlns="http://www.w3.org/2000/svg">
<g clip-path="url(#clip0_596_13585)">
<path d="M6.71582 18.0034C6.78986 11.5311 11.6024 6.06422 18.0543 5.15307C25.1937 4.14766 31.8466 9.10138 32.862 16.1706C33.285 19.0926 32.7456 21.8365 31.2966 24.4233C31.1696 24.6537 31.1168 24.9679 31.1591 25.2298C31.286 26.1723 31.4764 27.1149 31.635 28.0575C31.8148 29.1571 31.1591 29.8274 30.0273 29.6494C29.0966 29.5132 28.1764 29.3561 27.2562 29.199C26.9072 29.1362 26.6004 29.1676 26.2725 29.3456C18.4668 33.6396 8.71486 29.1571 7.01197 20.4855C6.85332 19.6686 6.81101 18.8308 6.71582 18.0034ZM28.8427 26.9054C28.811 26.675 28.8004 26.497 28.7581 26.3294C28.4196 25.0831 28.5995 23.9521 29.2658 22.8C30.3658 20.8835 30.6831 18.7575 30.3658 16.5791C29.5196 10.6723 23.9562 6.69259 18.012 7.72942C11.2956 8.90239 7.43505 16.0973 10.2168 22.2659C12.7764 27.9423 19.6937 30.2358 25.2043 27.0835C25.9235 26.675 26.685 26.5598 27.4995 26.7064C27.9225 26.7798 28.3668 26.8321 28.8427 26.9054Z" fill="#ABAFB9"/>
<path d="M4.14575 21.8679C4.32556 21.8469 4.45248 21.8364 4.57941 21.826C5.24575 21.7841 5.80633 22.2554 5.9121 22.9152C6.00729 23.5121 5.59479 24.151 4.98133 24.2767C4.21979 24.4337 3.44768 24.5594 2.67556 24.6537C1.90345 24.7479 1.24768 24.0672 1.34287 23.2608C1.44864 22.381 1.60729 21.5013 1.7871 20.6321C1.90345 20.0665 1.85056 19.6057 1.56499 19.0716C-2.56001 11.4891 1.88229 2.03205 10.3967 0.272591C13.2208 -0.313896 15.9602 -0.0101797 18.6044 1.17327C19.0592 1.38273 19.3765 1.68644 19.44 2.17867C19.5775 3.18408 18.6467 3.86482 17.6631 3.51921C16.764 3.19455 15.8544 2.84894 14.9131 2.6709C9.29671 1.61313 3.62749 5.57192 2.69672 11.1645C2.28422 13.6466 2.65441 15.9925 3.93422 18.1604C4.52652 19.1658 4.48422 20.1712 4.25152 21.229C4.21979 21.4175 4.18806 21.6165 4.14575 21.8679Z" fill="#ABAFB9"/>
<path d="M14.8182 16.3486C15.7596 16.3486 16.5105 17.0922 16.5 18.0243C16.5 18.9459 15.7384 19.6895 14.7971 19.679C13.8557 19.679 13.1048 18.925 13.1153 18.0034C13.1153 17.0922 13.8769 16.3486 14.8182 16.3486Z" fill="#ABAFB9"/>
<path d="M19.905 19.6896C18.9636 19.7001 18.2021 18.967 18.1915 18.0349C18.1809 17.1133 18.9319 16.3592 19.8733 16.3487C20.8146 16.3383 21.5761 17.0714 21.5761 18.0035C21.5867 18.9251 20.8358 19.6792 19.905 19.6896Z" fill="#ABAFB9"/>
<path d="M24.9714 16.3486C25.9127 16.3591 26.6531 17.1027 26.6425 18.0348C26.6319 18.9564 25.8704 19.6895 24.9396 19.6895C24.0089 19.679 23.2473 18.925 23.2579 18.0034C23.2791 17.0817 24.0406 16.3486 24.9714 16.3486Z" fill="#ABAFB9"/>
</g>
<defs>
<clipPath id="clip0_596_13585">
<rect width="33" height="31" fill="white"/>
</clipPath>
</defs>
</svg>
