<svg width="40" height="45" viewBox="0 0 40 45" fill="none" xmlns="http://www.w3.org/2000/svg">
<path d="M32.2695 45C24.0934 45 15.9172 45 7.74109 45C7.70847 44.978 7.67585 44.9341 7.63236 44.9341C5.53397 44.6595 3.39208 42.7154 3.47906 39.7718C3.48993 39.4752 3.47906 39.1677 3.47906 38.8711C1.38066 38.8272 0.021596 37.3334 0.0107235 35.4442C-0.000149069 31.8086 -0.0110216 28.184 0.0107235 24.5484C0.021596 23.1425 0.652202 22.0661 1.93516 21.462C2.39181 21.2424 2.92456 21.1875 3.47906 21.0337C3.47906 20.9129 3.47906 20.7371 3.47906 20.5614C3.47906 15.432 3.47906 10.3136 3.47906 5.18428C3.47906 2.14181 5.58833 0.0109836 8.61089 0.0109836C14.2972 0 19.9727 0.0109836 25.659 0C27.192 0 28.475 0.527215 29.5514 1.62558C31.3345 3.44886 33.1284 5.26117 34.9333 7.06248C36.0205 8.14987 36.5424 9.44594 36.5424 10.9946C36.5207 14.2019 36.5424 17.4091 36.5424 20.6163C36.5424 20.7701 36.5424 20.9348 36.5424 21.0996C36.6946 21.1216 36.8033 21.1545 36.9121 21.1655C38.5103 21.2314 39.9999 22.5824 40.0107 24.5924C40.0107 28.195 40.0216 31.7977 40.0107 35.4003C40.0107 36.5646 39.565 37.5311 38.6191 38.2341C38.0211 38.6734 37.3252 38.8601 36.5424 38.8601C36.5424 39.2995 36.5641 39.7059 36.5424 40.1123C36.4445 42.1113 35.5204 43.5831 33.7482 44.4838C33.2806 44.7254 32.7588 44.8243 32.2695 45ZM26.0069 2.64706C25.8221 2.64706 25.6808 2.64706 25.5394 2.64706C19.9183 2.64706 14.2972 2.64706 8.67613 2.64706C7.0235 2.64706 6.08846 3.58067 6.08846 5.25018C6.08846 10.3686 6.08846 15.4979 6.08846 20.6163C6.08846 20.7701 6.08846 20.9348 6.08846 21.0996C15.3845 21.0996 24.637 21.0996 33.8895 21.0996C33.8895 17.6837 33.8895 14.3007 33.8895 10.8958C32.3021 10.8958 30.7582 10.8958 29.2034 10.8958C27.2138 10.8958 26.0178 9.68758 26.0069 7.66658C26.0069 6.01904 26.0069 4.37149 26.0069 2.64706ZM19.9835 36.2131C25.4198 36.2131 30.8561 36.2131 36.2923 36.2131C37.2165 36.2131 37.3905 36.0373 37.3905 35.1257C37.3905 31.6988 37.3905 28.2719 37.3905 24.845C37.3905 23.9773 37.1948 23.7796 36.3467 23.7796C25.4524 23.7796 14.5473 23.7796 3.65302 23.7796C2.80496 23.7796 2.62013 23.9773 2.62013 24.856C2.62013 28.2829 2.62013 31.7098 2.62013 35.1367C2.62013 36.0373 2.80496 36.2241 3.68564 36.2241C9.11103 36.2131 14.5473 36.2131 19.9835 36.2131ZM6.08846 38.8601C6.08846 39.1896 6.08846 39.4752 6.08846 39.7718C6.08846 41.4083 7.0235 42.3639 8.65438 42.3639C16.2217 42.3639 23.7889 42.3639 31.3562 42.3639C31.6063 42.3639 31.8563 42.3639 32.0847 42.309C33.596 41.9356 34.1613 40.6395 33.846 38.8711C24.6261 38.8601 15.3953 38.8601 6.08846 38.8601ZM28.6163 4.51428C28.6163 5.63461 28.6272 6.72199 28.6163 7.79839C28.6163 8.13888 28.7577 8.27069 29.0947 8.2597C29.8884 8.24872 30.693 8.2597 31.4867 8.2597C31.7694 8.2597 32.0521 8.2597 32.3021 8.2597C31.0627 7.00757 29.8558 5.7774 28.6163 4.51428Z" fill="#FFC17E"/>
<path d="M17.1895 30.0292C17.1895 28.6673 17.2003 27.3053 17.1895 25.9433C17.1895 25.515 17.3417 25.1745 17.7548 25.1415C19.1248 25.0317 20.5056 24.9109 21.8538 25.2953C23.0497 25.6468 23.6803 26.5364 23.7238 27.7666C23.7782 29.2714 23.7782 30.7761 23.7238 32.2809C23.6695 33.8186 22.6148 34.8071 20.9622 34.9279C19.9837 34.9938 18.9943 34.9719 18.0049 34.9499C17.4178 34.9389 17.1895 34.6643 17.1895 34.0493C17.1895 32.7202 17.1895 31.3802 17.1895 30.0292ZM19.3096 26.9538C19.3096 29.0187 19.3096 31.0617 19.3096 33.1266C19.6466 33.1266 19.9402 33.1266 20.2446 33.1266C21.2993 33.1266 21.6472 32.7861 21.6581 31.7097C21.6689 30.6004 21.6689 29.491 21.6581 28.3817C21.6581 28.173 21.6363 27.9753 21.5928 27.7776C21.5058 27.3053 21.2232 27.0087 20.7556 26.9648C20.2881 26.9318 19.8206 26.9538 19.3096 26.9538Z" fill="#FFC17E"/>
<path d="M11.6554 31.3694C11.6554 32.292 11.6445 33.1377 11.6554 33.9835C11.6663 34.4228 11.5684 34.7523 11.1009 34.8951C10.579 35.0489 9.90493 34.95 9.68748 34.6315C9.6005 34.5107 9.56788 34.335 9.56788 34.1812C9.55701 31.4023 9.56788 28.6234 9.55701 25.8446C9.55701 25.4711 9.70922 25.1636 10.068 25.1416C11.5358 25.0538 13.0253 24.889 14.4605 25.3174C15.4064 25.592 15.9935 26.2949 16.1675 27.2834C16.3523 28.3269 16.3415 29.3703 15.6782 30.271C15.1346 31.0069 14.33 31.3035 13.4494 31.3694C12.8731 31.4023 12.286 31.3694 11.6554 31.3694ZM11.6772 26.899C11.6772 27.8985 11.6772 28.8212 11.6772 29.7767C12.1882 29.7767 12.6774 29.8097 13.1667 29.7657C13.7212 29.7218 14.0256 29.4362 14.1126 28.909C14.2105 28.239 14.3083 27.558 13.6451 27.0857C13.569 27.0308 13.4602 26.9869 13.3624 26.9869C12.8079 26.9429 12.2534 26.921 11.6772 26.899Z" fill="#FFC17E"/>
<path d="M27.214 26.9209C27.214 27.7008 27.214 28.4147 27.214 29.2055C27.812 29.2055 28.3991 29.1946 28.9862 29.2055C29.606 29.2165 29.943 29.6449 29.8125 30.249C29.7256 30.6444 29.4864 30.8531 29.0732 30.8421C28.4643 30.8421 27.8555 30.8421 27.214 30.8421C27.2031 31.0288 27.1923 31.1826 27.1923 31.3364C27.1923 32.248 27.1923 33.1487 27.1923 34.0603C27.1923 34.6424 26.9857 34.8841 26.4203 34.961C26.2681 34.9829 26.105 34.9829 25.9419 34.972C25.3222 34.9061 25.1047 34.6644 25.1047 34.0383C25.1047 31.3803 25.1047 28.7113 25.1047 26.0532C25.1047 26.0093 25.1047 25.9654 25.1047 25.9214C25.1265 25.4162 25.2896 25.2185 25.8006 25.1306C25.9419 25.1086 26.0833 25.0867 26.2355 25.0867C27.6272 25.0867 29.0188 25.0867 30.4105 25.0867C30.7584 25.0867 31.0846 25.1416 31.2151 25.526C31.3564 25.9434 31.3782 26.3827 31.0629 26.7232C30.9324 26.855 30.6823 26.91 30.4758 26.9209C29.5625 26.9429 28.6492 26.9319 27.7359 26.9319C27.5511 26.9209 27.3988 26.9209 27.214 26.9209Z" fill="#FFC17E"/>
</svg>
