<svg width="27" height="26" viewBox="0 0 27 26" fill="none" xmlns="http://www.w3.org/2000/svg">
<path d="M0.716309 13.003C0.790347 6.53074 5.60284 1.06385 12.0548 0.1527C19.1942 -0.852705 25.8471 4.10101 26.8624 11.1703C27.2855 14.0922 26.7461 16.8361 25.2971 19.423C25.1701 19.6534 25.1173 19.9676 25.1596 20.2294C25.2865 21.172 25.4769 22.1145 25.6355 23.0571C25.8153 24.1568 25.1596 24.827 24.0278 24.649C23.0971 24.5128 22.1769 24.3557 21.2567 24.1986C20.9076 24.1358 20.6009 24.1672 20.273 24.3453C12.4673 28.6392 2.71535 24.1568 1.01246 15.4851C0.853809 14.6682 0.811501 13.8304 0.716309 13.003ZM22.8432 21.9051C22.8115 21.6747 22.8009 21.4966 22.7586 21.3291C22.4201 20.0828 22.5999 18.9517 23.2663 17.7997C24.3663 15.8831 24.6836 13.7571 24.3663 11.5787C23.5201 5.67196 17.9567 1.69223 12.0125 2.72905C5.29611 3.90203 1.43554 11.097 4.21727 17.2655C6.77688 22.9419 13.6942 25.2355 19.2048 22.0831C19.924 21.6747 20.6855 21.5595 21.4999 21.7061C21.923 21.7794 22.3673 21.8318 22.8432 21.9051Z" fill="white"/>
<path d="M8.81823 11.3483C9.75958 11.3483 10.5105 12.0919 10.5 13.024C10.5 13.9456 9.73842 14.6892 8.79708 14.6787C7.85573 14.6787 7.10477 13.9247 7.11534 13.0031C7.11534 12.0919 7.87688 11.3483 8.81823 11.3483Z" fill="white"/>
<path d="M13.9057 14.6892C12.9644 14.6997 12.2028 13.9666 12.1922 13.0345C12.1817 12.1128 12.9326 11.3588 13.874 11.3483C14.8153 11.3378 15.5769 12.071 15.5769 13.003C15.5874 13.9247 14.8365 14.6787 13.9057 14.6892Z" fill="white"/>
<path d="M18.9721 11.3483C19.9135 11.3588 20.6538 12.1024 20.6433 13.0345C20.6327 13.9561 19.8711 14.6892 18.9404 14.6892C18.0096 14.6787 17.2481 13.9247 17.2587 13.003C17.2798 12.0814 18.0413 11.3483 18.9721 11.3483Z" fill="white"/>
</svg>
