<svg width="29" height="32" viewBox="0 0 29 32" fill="none" xmlns="http://www.w3.org/2000/svg">
<path d="M-3.87845e-05 15.995C-3.87845e-05 13.2882 -0.0103885 10.5916 -3.87845e-05 7.88477C0.0206607 4.24491 2.3597 1.18948 5.84757 0.276956C6.48925 0.112906 7.17233 0.0206281 7.83472 0.010375C11.2294 -0.0101312 14.6138 0.000121874 18.0085 0.000121874C19.3126 0.000121874 20.4304 0.451259 21.3618 1.36379C23.4525 3.42466 25.5328 5.49579 27.6131 7.55667C28.5446 8.47945 29 9.6073 29 10.9094C29 15.3183 29.0206 19.7271 29 24.136C28.9792 28.0219 26.3504 31.1389 22.49 31.8668C22.0139 31.9591 21.5171 31.9899 21.0203 31.9899C16.6734 32.0001 12.3265 32.0001 7.97961 31.9899C3.95356 31.9899 0.734793 29.2625 0.0931089 25.3253C0.0206607 24.8742 0.010311 24.4026 -3.87845e-05 23.9514C-3.87845e-05 21.2959 -3.87845e-05 18.6403 -3.87845e-05 15.995ZM26.485 10.6736C26.3297 10.6736 26.1952 10.6736 26.0503 10.6736C25.0049 10.6736 23.9596 10.6839 22.9039 10.6736C20.1716 10.6531 18.2259 8.69477 18.2155 5.9982C18.2155 4.96263 18.2155 3.92707 18.2155 2.88125C18.2155 2.74796 18.2155 2.61467 18.2155 2.46087C18.0396 2.46087 17.9257 2.46087 17.8015 2.46087C14.5207 2.46087 11.2294 2.46087 7.94857 2.46087C4.87469 2.46087 2.49425 4.77808 2.4839 7.82325C2.4632 13.2677 2.4632 18.7121 2.4839 24.1667C2.49425 27.2119 4.87469 29.5291 7.94857 29.5291C12.3058 29.5394 16.6631 29.5291 21.0306 29.5291C21.4239 29.5291 21.8379 29.4984 22.2209 29.4163C24.7669 28.8729 26.4953 26.7505 26.4953 24.136C26.5057 19.7784 26.4953 15.4208 26.4953 11.0632C26.516 10.9505 26.4953 10.8377 26.485 10.6736ZM20.7098 4.29618C20.7098 4.42947 20.7098 4.54225 20.7098 4.65504C20.7098 5.1882 20.6995 5.73162 20.7202 6.26478C20.7616 7.21832 21.486 8.03857 22.4486 8.15135C23.1006 8.22313 23.763 8.19237 24.4254 8.20262C24.5082 8.20262 24.5806 8.18211 24.6427 8.17186C23.3179 6.87997 22.0346 5.59833 20.7098 4.29618Z" fill="white"/>
<path d="M15.742 15.7899C15.742 17.4304 15.742 19.0606 15.742 20.7011C15.742 20.8549 15.742 21.0087 15.711 21.1625C15.5868 21.7777 14.9969 22.2083 14.3759 22.1468C13.7549 22.0853 13.2581 21.5726 13.2581 20.9267C13.2478 19.3477 13.2581 17.779 13.2581 16.2C13.2581 16.0667 13.2581 15.9232 13.2581 15.7899C13.2167 15.7694 13.1857 15.7386 13.1443 15.7181C12.7717 16.118 12.4094 16.5281 12.0161 16.9075C11.6539 17.2561 11.1882 17.3278 10.7224 17.1433C10.267 16.9587 10.0083 16.6101 9.95653 16.118C9.91513 15.7386 10.0393 15.4105 10.3084 15.1439C11.4158 14.0468 12.5129 12.9395 13.6307 11.8629C14.1482 11.3605 14.852 11.3708 15.3695 11.8732C16.4872 12.96 17.5947 14.0571 18.6917 15.1644C19.1885 15.6668 19.1678 16.4256 18.6814 16.8972C18.1949 17.3689 17.4498 17.3791 16.9426 16.8972C16.5597 16.5383 16.2078 16.1487 15.8455 15.7694C15.8041 15.7591 15.7731 15.7694 15.742 15.7899Z" fill="white"/>
</svg>
