<svg width="42" height="42" viewBox="0 0 42 42" fill="none" xmlns="http://www.w3.org/2000/svg">
<circle cx="21" cy="21" r="21" fill="#F4F7FF"/>
<mask id="mask0_596_13592" style="mask-type:alpha" maskUnits="userSpaceOnUse" x="0" y="0" width="42" height="42">
<circle cx="21" cy="21" r="21" fill="#E8F7F0"/>
</mask>
<g mask="url(#mask0_596_13592)">
<path d="M10.7982 48.7349C10.3358 48.6383 9.87332 48.5708 9.43057 48.4452C6.5576 47.6535 4.74723 45.4812 4.61933 42.5267C4.49142 39.4661 4.82594 36.4537 6.01646 33.5958C6.78389 31.7517 7.88586 30.149 9.75526 29.1738C10.9064 28.5752 12.1363 28.2856 13.4252 28.3145C13.8286 28.3242 14.2615 28.5269 14.6255 28.72C15.2257 29.0387 15.7767 29.4345 16.3572 29.7821C19.732 31.829 23.0969 31.8193 26.4716 29.7724C26.9439 29.4924 27.4162 29.2125 27.8589 28.8938C28.6657 28.3049 29.5512 28.2276 30.5056 28.3628C33.1228 28.7394 34.9626 30.149 36.2122 32.389C37.324 34.3875 37.8258 36.5599 38.0422 38.7999C38.1603 39.9488 38.2095 41.1074 38.1997 42.266C38.1603 45.7129 35.7399 48.2811 32.2471 48.6577C32.1585 48.6673 32.0798 48.7059 31.9913 48.7252C24.9171 48.7349 17.8626 48.7349 10.7982 48.7349Z" fill="#C8CEDE"/>
<path d="M30.8499 18.8837C30.8893 24.1992 26.5011 28.5993 21.1585 28.619C15.816 28.6387 11.4278 24.2288 11.418 18.9329C11.418 13.578 15.6979 9.22714 21.0897 9.18777C26.4617 9.14839 30.8204 13.4796 30.8499 18.8837Z" fill="#C8CEDE"/>
</g>
</svg>
