<svg width="272" height="43" viewBox="0 0 272 43" fill="none" xmlns="http://www.w3.org/2000/svg">
<path d="M176.658 31.26C180.584 31.26 183.34 29.232 183.34 25.618V25.566C183.34 22.394 181.26 21.094 177.568 20.106C174.422 19.274 173.642 18.936 173.642 17.714V17.662C173.642 16.752 174.422 16.076 175.982 16.076C177.542 16.076 179.076 16.752 180.714 17.87L182.794 14.854C180.922 13.372 178.712 12.54 176.034 12.54C172.29 12.54 169.664 14.724 169.664 18.026V18.078C169.664 21.666 172.004 22.732 175.696 23.642C178.738 24.396 179.362 24.942 179.362 25.956V26.008C179.362 27.074 178.4 27.724 176.736 27.724C174.656 27.724 172.966 26.866 171.302 25.514L168.936 28.348C171.12 30.324 173.876 31.26 176.658 31.26ZM190.978 31.234C192.304 31.234 193.266 30.922 194.098 30.428V27.256C193.5 27.594 192.85 27.75 192.148 27.75C191.29 27.75 190.874 27.308 190.874 26.398V20.444H194.15V17.064H190.874V13.502H186.922V17.064H185.258V20.444H186.922V27.048C186.922 30.272 188.586 31.234 190.978 31.234ZM201.691 31.26C203.667 31.26 204.863 30.194 205.773 29.024V31H209.725V17.064H205.773V24.838C205.773 26.71 204.837 27.672 203.303 27.672C201.769 27.672 200.911 26.71 200.911 24.838V17.064H196.959V26.086C196.959 29.31 198.675 31.26 201.691 31.26ZM218.982 31.26C221.062 31.26 222.362 30.324 223.324 28.998V31H227.276V12.02H223.324V18.884C222.388 17.766 221.088 16.804 218.982 16.804C215.68 16.804 212.638 19.352 212.638 24.006V24.058C212.638 28.712 215.732 31.26 218.982 31.26ZM219.996 27.906C218.15 27.906 216.59 26.372 216.59 24.058V24.006C216.59 21.666 218.15 20.158 219.996 20.158C221.842 20.158 223.376 21.692 223.376 24.006V24.058C223.376 26.372 221.842 27.906 219.996 27.906ZM237.411 31.312C239.933 31.312 241.779 30.35 243.105 28.712L240.843 26.71C239.725 27.724 238.789 28.14 237.463 28.14C235.695 28.14 234.447 27.204 234.057 25.41H243.755C243.781 25.02 243.807 24.682 243.807 24.37C243.807 20.418 241.675 16.804 237.021 16.804C232.965 16.804 230.131 20.08 230.131 24.058V24.11C230.131 28.374 233.225 31.312 237.411 31.312ZM234.005 22.94C234.317 21.146 235.357 19.976 237.021 19.976C238.685 19.976 239.725 21.172 239.959 22.94H234.005ZM246.752 31H250.704V23.226C250.704 21.354 251.64 20.392 253.174 20.392C254.708 20.392 255.566 21.354 255.566 23.226V31H259.518V21.978C259.518 18.754 257.802 16.804 254.786 16.804C252.81 16.804 251.614 17.87 250.704 19.04V17.064H246.752V31ZM267.658 31.234C268.984 31.234 269.946 30.922 270.778 30.428V27.256C270.18 27.594 269.53 27.75 268.828 27.75C267.97 27.75 267.554 27.308 267.554 26.398V20.444H270.83V17.064H267.554V13.502H263.602V17.064H261.938V20.444H263.602V27.048C263.602 30.272 265.266 31.234 267.658 31.234Z" fill="#3F3B3A"/>
<g clip-path="url(#clip0_596_13601)">
<path d="M60.9729 26.6885C60.518 27.8074 58.7973 31.4053 53.5031 31.4053C51.0487 31.4053 49.1886 30.7069 47.6807 29.2736C45.9967 27.7013 45.2959 25.7451 45.2959 23.3684C45.2959 20.3628 46.525 18.509 47.611 17.4266C49.4014 15.6789 51.5036 15.2949 53.327 15.2949C56.4126 15.2949 58.203 16.5198 59.2522 17.7777C60.8665 19.701 61.0757 22.0777 61.0757 23.7194V24.0705H49.7132C49.7132 24.9809 49.959 25.9572 50.4506 26.6227C50.9056 27.2516 51.8522 28.056 53.5031 28.056C55.1174 28.056 56.3428 27.2881 57.0436 26.0632L60.9729 26.6885ZM57.0473 21.3427C56.6951 19.2805 55.0147 18.3005 53.4334 18.3005C51.8558 18.3005 50.2085 19.3134 49.8563 21.3427H57.0473Z" fill="#3F3B3A"/>
<path d="M76.0258 7.99707H80.3037V30.9195H76.0258V28.9633C74.4812 31.1645 72.4486 31.4094 71.3627 31.4094C66.6995 31.4094 63.6104 27.7749 63.6104 23.336C63.6104 18.8641 66.6628 15.2954 71.1499 15.2954C72.3056 15.2954 74.5876 15.5038 76.0258 17.7416V7.99707ZM68.0313 23.336C68.0313 25.7492 69.785 27.636 72.2395 27.636C74.694 27.636 76.4477 25.7492 76.4477 23.336C76.4477 20.9263 74.694 19.0725 72.2395 19.0725C69.785 19.0689 68.0313 20.9227 68.0313 23.336Z" fill="#3F3B3A"/>
<path d="M88.0823 15.7852V24.3486C88.0823 25.153 88.152 26.2353 88.9922 27.0032C89.5169 27.4566 90.3607 27.7711 91.1679 27.7711C91.975 27.7711 92.8152 27.4566 93.3435 27.0032C94.1837 26.2353 94.257 25.1494 94.257 24.3486V15.7852H98.5349V25.047C98.5349 26.4109 98.3588 28.2281 96.6748 29.6944C95.2733 30.9193 93.028 31.4056 91.1679 31.4056C89.3077 31.4056 87.0661 30.9156 85.6609 29.6944C83.9769 28.2281 83.8008 26.4072 83.8008 25.047V15.7852H88.0823Z" fill="#3F3B3A"/>
<path d="M126.407 17.4266C127.915 18.7905 128.968 20.8857 128.968 23.3684C128.968 25.8146 127.915 27.9134 126.407 29.2736C125.108 30.462 123.146 31.4053 120.269 31.4053C117.393 31.4053 115.43 30.462 114.131 29.2736C112.623 27.9097 111.57 25.8146 111.57 23.3684C111.57 20.8857 112.623 18.7905 114.131 17.4266C115.43 16.2383 117.393 15.2949 120.269 15.2949C123.146 15.2949 125.108 16.2383 126.407 17.4266ZM124.551 23.3684C124.551 20.9917 122.727 19.0684 120.273 19.0684C117.818 19.0684 115.995 20.9917 115.995 23.3684C115.995 25.6756 117.785 27.6319 120.273 27.6319C122.76 27.6319 124.551 25.6756 124.551 23.3684Z" fill="#8FC31F"/>
<path d="M139.372 19.386C138.356 18.4427 137.34 18.3732 136.881 18.3732C135.865 18.3732 135.234 18.8632 135.234 19.5981C135.234 19.982 135.41 20.578 136.602 20.962L137.619 21.2764C138.811 21.6604 140.601 22.2564 141.475 23.4447C141.929 24.0736 142.245 24.9841 142.245 25.9604C142.245 27.3242 141.79 28.6881 140.561 29.8033C139.332 30.9222 137.861 31.4122 136.001 31.4122C132.845 31.4122 131.055 29.9094 130.108 28.8965L132.354 26.3114C133.194 27.2913 134.46 28.0592 135.722 28.0592C136.914 28.0592 137.824 27.4632 137.824 26.4174C137.824 25.4741 137.054 25.0901 136.492 24.8781L135.509 24.527C134.423 24.1431 133.161 23.6531 132.247 22.7098C131.547 21.9748 131.092 21.0314 131.092 19.8102C131.092 18.3439 131.792 17.119 132.669 16.3841C133.862 15.4407 135.406 15.3018 136.632 15.3018C137.754 15.3018 139.541 15.4407 141.471 16.9106L139.372 19.386Z" fill="#8FC31F"/>
<path d="M153.123 19.386C152.107 18.4427 151.091 18.3732 150.632 18.3732C149.616 18.3732 148.985 18.8632 148.985 19.5981C148.985 19.982 149.161 20.578 150.353 20.962L151.37 21.2764C152.562 21.6604 154.352 22.2564 155.226 23.4447C155.68 24.0736 155.996 24.9841 155.996 25.9604C155.996 27.3242 155.541 28.6881 154.312 29.8033C153.083 30.9222 151.612 31.4122 149.752 31.4122C146.596 31.4122 144.806 29.9094 143.859 28.8965L146.105 26.3114C146.945 27.2913 148.211 28.0592 149.473 28.0592C150.665 28.0592 151.575 27.4632 151.575 26.4174C151.575 25.4741 150.805 25.0901 150.243 24.8781L149.26 24.527C148.174 24.1431 146.912 23.6531 145.998 22.7098C145.298 21.9748 144.843 21.0314 144.843 19.8102C144.843 18.3439 145.543 17.119 146.42 16.3841C147.613 15.4407 149.157 15.3018 150.383 15.3018C151.505 15.3018 153.292 15.4407 155.222 16.9106L153.123 19.386Z" fill="#8FC31F"/>
<path d="M109.967 19.4198V15.7852H106.309V10.6113H102.031V25.0471C102.031 26.4109 102.207 28.2282 103.891 29.6944C105.293 30.9194 107.538 31.4057 109.398 31.4057V27.7711C108.591 27.7711 107.751 27.5774 107.223 27.1239C106.383 26.3561 106.313 25.4347 106.313 24.6302V19.4198H109.967Z" fill="#8FC31F"/>
<path d="M37.4517 25.5225L34.4983 23.5334L31.7283 25.3982L35.7127 28.0857C36.0869 28.338 36.0869 28.8901 35.7127 29.1424L19.7751 39.8815C19.7458 39.8998 19.7164 39.9107 19.6871 39.9107C19.6027 39.9107 19.5257 39.8449 19.5257 39.7498V36.7552L5.78577 27.4934C5.41155 27.2411 5.41155 26.6889 5.78577 26.4366L18.9019 17.5989C19.0927 17.471 19.3092 17.4088 19.5293 17.4088C19.7495 17.4088 19.9659 17.471 20.1567 17.5989L25.9388 21.4967L28.7088 19.6319L21.8921 15.0394C21.1913 14.5677 20.3732 14.3154 19.5257 14.3154C18.6782 14.3154 17.8637 14.5641 17.1592 15.0394L4.04673 23.8771C3.01578 24.5718 2.39941 25.7273 2.39941 26.9668C2.39941 28.2064 3.01578 29.3618 4.04673 30.0565L16.4255 38.3969V39.7498C16.4255 41.5415 17.8893 43.0004 19.6871 43.0004C20.3401 43.0004 20.9712 42.8066 21.5142 42.441L37.4517 31.7019C38.4827 31.0072 39.099 29.8518 39.099 28.6122C39.099 27.3727 38.4827 26.2172 37.4517 25.5225Z" fill="#00A29A"/>
<path d="M35.0486 14.9439L22.6736 6.6035V5.2506C22.6736 3.45893 21.2097 2 19.4083 2C18.7552 2 18.1242 2.19379 17.5812 2.55944L1.64732 13.2948C0.616369 13.9896 0 15.145 0 16.3882C0 17.6278 0.616369 18.7832 1.64732 19.4779L4.60075 21.467L7.37074 19.6022L3.38269 16.9147C3.00847 16.6624 3.00847 16.1103 3.38269 15.858L19.3202 5.11897C19.3496 5.10069 19.3789 5.08972 19.4083 5.08972C19.4927 5.08972 19.5697 5.15553 19.5697 5.2506V8.24525L33.3096 17.5034C33.6838 17.7557 33.6838 18.3079 33.3096 18.5602L20.1971 27.3978C20.0063 27.5258 19.7898 27.588 19.5697 27.588C19.3496 27.588 19.1331 27.5222 18.9423 27.3978L13.1602 23.5037L10.3902 25.3685L17.2033 29.961C17.904 30.4327 18.7222 30.6814 19.5697 30.6814C20.4172 30.6814 21.2354 30.4327 21.9361 29.961L35.0486 21.1233C36.0796 20.4286 36.696 19.2732 36.696 18.0336C36.696 16.7941 36.0796 15.6386 35.0486 14.9439Z" fill="#8FC31F"/>
</g>
<defs>
<clipPath id="clip0_596_13601">
<rect width="156" height="41" fill="white" transform="translate(0 2)"/>
</clipPath>
</defs>
</svg>
