<svg width="33" height="33" viewBox="0 0 33 33" fill="none" xmlns="http://www.w3.org/2000/svg">
<g clip-path="url(#clip0_4_1940)">
<path d="M23.5253 33.0001C23.3983 32.4824 23.2712 31.9648 23.1315 31.3987C22.6272 31.6934 22.1681 31.9622 21.6931 32.2396C20.7816 31.3255 19.8774 30.4226 18.9846 29.5098C18.932 29.4566 18.932 29.2923 18.9733 29.2164C19.1935 28.8133 19.435 28.4214 19.6985 27.977C19.1509 27.8313 18.6406 27.6955 18.1177 27.5565C18.1177 26.2192 18.1177 24.8913 18.1177 23.5427C18.6313 23.4056 19.1436 23.2692 19.6971 23.1215C19.4084 22.6312 19.1436 22.1808 18.8422 21.6698C18.9806 21.5481 19.131 21.429 19.266 21.2946C20.0205 20.5448 20.7743 19.795 21.5194 19.0372C21.6558 18.8982 21.7543 18.8749 21.9253 18.9853C22.3012 19.2282 22.6944 19.445 23.1215 19.6965C23.2679 19.1443 23.4036 18.6327 23.5393 18.1198C24.8892 18.1198 26.2178 18.1198 27.5598 18.1198C27.6948 18.6354 27.8272 19.1397 27.9736 19.6985C28.3834 19.4577 28.764 19.2481 29.1286 19.0139C29.3208 18.8902 29.4406 18.8888 29.6129 19.0652C30.4752 19.948 31.3547 20.8149 32.2389 21.6984C31.9621 22.1688 31.692 22.6272 31.3966 23.1302C31.9661 23.2712 32.4837 23.399 33.0013 23.5267C33.0013 24.88 33.0013 26.2339 33.0013 27.5871C32.4844 27.7075 31.9674 27.8273 31.3973 27.9603C31.6947 28.4706 31.9615 28.929 32.191 29.3229C31.2223 30.2942 30.2796 31.2403 29.3288 32.1944C28.9137 31.9509 28.4653 31.6874 27.961 31.3913C27.8272 31.9675 27.7075 32.4844 27.5871 33.0014C26.2325 33.0001 24.8792 33.0001 23.5253 33.0001ZM19.1676 26.7289C19.5468 26.8267 19.9014 26.9098 20.2507 27.0136C20.3405 27.0402 20.4463 27.1134 20.4862 27.1946C20.9027 28.0402 20.9 28.0415 20.411 28.8672C20.3784 28.9224 20.3511 28.9823 20.3112 29.0322C20.2041 29.1672 20.2281 29.2683 20.3518 29.3888C20.8062 29.8299 21.2553 30.2776 21.6944 30.734C21.8215 30.8664 21.918 30.8917 22.0756 30.7859C22.3245 30.6189 22.5853 30.4666 22.8501 30.3262C22.9306 30.2836 23.0563 30.2656 23.1395 30.2962C24.0257 30.6229 24.0243 30.6262 24.2632 31.5384C24.2765 31.5903 24.2958 31.6415 24.3018 31.6941C24.323 31.8777 24.4208 31.9389 24.6058 31.9356C25.1959 31.9256 25.7874 31.9169 26.3775 31.9389C26.6543 31.9489 26.7947 31.869 26.8206 31.5883C26.8805 30.9403 27.1479 30.4586 27.8525 30.3415C27.8725 30.3382 27.8904 30.3129 27.9091 30.3135C28.0262 30.3155 28.1612 30.2863 28.2564 30.3342C28.5338 30.4732 28.7906 30.6535 29.066 30.7966C29.1366 30.8331 29.2836 30.8318 29.3335 30.7832C29.8591 30.2776 30.3714 29.7593 30.9003 29.2317C30.7067 28.9024 30.5151 28.5937 30.3434 28.2744C30.2955 28.1852 30.2636 28.0482 30.2962 27.9597C30.6308 27.0568 30.6348 27.0582 31.5676 26.8233C31.6095 26.8127 31.6514 26.8047 31.694 26.798C31.8677 26.7714 31.9428 26.6869 31.9388 26.4953C31.9269 25.862 31.9282 25.2279 31.9382 24.5945C31.9415 24.4043 31.8657 24.3297 31.6887 24.2945C31.4159 24.2399 31.1438 24.1727 30.8783 24.0902C30.7785 24.059 30.6575 23.9884 30.6149 23.902C30.1957 23.0543 30.2004 23.0524 30.6841 22.232C30.7113 22.1861 30.7313 22.1336 30.7666 22.0943C30.9156 21.9253 30.8544 21.8069 30.7067 21.6665C30.2949 21.274 29.8844 20.8781 29.5018 20.4576C29.3069 20.2434 29.1419 20.1809 28.9177 20.3785C28.4054 20.8302 27.8605 20.92 27.281 20.5149C27.1712 20.4384 27.0528 20.3312 27.0096 20.2121C26.9084 19.9307 26.8612 19.6307 26.7694 19.3452C26.7448 19.2681 26.6403 19.1643 26.5705 19.163C25.8419 19.1496 25.1134 19.155 24.3756 19.155C24.335 19.298 24.2798 19.4198 24.2692 19.5448C24.2133 20.1802 23.9318 20.62 23.2692 20.7477C23.2486 20.7517 23.2293 20.7723 23.21 20.7717C23.0736 20.7664 22.9166 20.7983 22.8041 20.7424C22.4895 20.5854 22.1927 20.3911 21.9093 20.2235C21.3405 20.791 20.7883 21.3418 20.2234 21.906C20.2653 21.9812 20.3039 22.085 20.3718 22.1642C20.8202 22.6904 20.9187 23.2433 20.5068 23.8334C20.435 23.9359 20.3372 24.0536 20.2267 24.0896C19.8814 24.2013 19.5248 24.2779 19.1662 24.369C19.1676 25.1594 19.1676 25.9298 19.1676 26.7289Z" fill="black"/>
<path d="M0 33C0 28.3974 0 23.7948 0 19.1742C3.55674 19.1742 7.08222 19.1742 10.621 19.1742C10.629 19.2534 10.6403 19.3152 10.6403 19.3771C10.639 23.9178 10.637 28.4586 10.635 33C7.0902 33 3.54477 33 0 33ZM9.56116 31.9149C9.56116 28.0142 9.56116 24.1334 9.56116 20.2593C6.71896 20.2593 3.90137 20.2593 1.09111 20.2593C1.09111 24.16 1.09111 28.0321 1.09111 31.9149C3.92665 31.9149 6.73559 31.9149 9.56116 31.9149Z" fill="black"/>
<path d="M10.1274 17.0033C10.1274 15.9728 10.0628 14.9595 10.1446 13.9582C10.2331 12.8718 10.8798 12.1299 11.9004 11.7361C12.6402 11.4507 13.3854 11.1792 14.1279 10.8998C14.3973 10.7987 14.4592 10.5066 14.2882 10.2697C14.0267 9.90714 13.7905 9.52658 13.5311 9.16266C13.4705 9.0775 13.3687 8.99766 13.2696 8.96639C12.3089 8.66035 11.7181 7.91121 11.7208 6.91191C11.7234 5.90397 11.6695 4.88205 11.8152 3.89141C12.1432 1.66129 14.2163 -0.00464743 16.5143 9.74021e-06C18.795 0.00466691 20.8694 1.66927 21.1801 3.88875C21.3351 4.99516 21.3152 6.14148 21.2393 7.26054C21.1814 8.12078 20.5867 8.67232 19.765 8.96107C19.6353 9.00698 19.5175 9.13205 19.4317 9.24848C19.1982 9.5665 19.0019 9.91246 18.7584 10.2218C18.5315 10.5099 18.5701 10.7807 18.9014 10.9058C19.6233 11.1792 20.3472 11.446 21.0677 11.7234C22.2553 12.1812 22.8813 13.0966 22.8833 14.3734C22.8846 15.2216 22.8813 16.0699 22.8793 16.9188C22.8793 16.9388 22.8693 16.9588 22.8574 17.0033C18.6293 17.0033 14.394 17.0033 10.1274 17.0033ZM20.2334 4.96189C20.238 3.5501 19.6892 2.36186 18.4018 1.60341C17.0579 0.811688 15.6873 0.863582 14.398 1.72982C13.2437 2.50623 12.7487 3.64458 12.772 4.98983C13.2064 4.91731 13.6109 4.81087 14.0201 4.78824C14.8284 4.74367 15.5203 4.45759 16.1005 3.90006C16.2296 3.77564 16.3347 3.62661 16.5116 3.41704C16.6653 3.61397 16.7525 3.75169 16.8643 3.86479C17.3479 4.35114 17.9314 4.65319 18.61 4.75431C19.1423 4.83349 19.6792 4.89203 20.2334 4.96189ZM12.9915 12.4546C12.6309 12.6036 12.2849 12.7194 11.9656 12.8857C11.587 13.0827 11.2876 13.4153 11.2524 13.8305C11.1938 14.529 11.2364 15.2363 11.2364 15.9482C14.7439 15.9482 18.2701 15.9482 21.8268 15.9482C21.8268 15.4319 21.8188 14.9395 21.8281 14.4479C21.8494 13.3308 21.2134 12.748 19.9892 12.5152C19.6406 13.5537 19.292 14.5942 18.938 15.6494C18.1782 15.2709 17.4557 14.9189 16.7412 14.5497C16.5695 14.4612 16.4411 14.4592 16.2688 14.5483C15.547 14.9216 14.8164 15.2769 14.0633 15.6521C13.704 14.5816 13.3541 13.5371 12.9915 12.4546ZM18.6147 5.81948C17.8755 5.72301 17.2295 5.48549 16.644 5.08165C16.5815 5.0384 16.4471 5.01578 16.3966 5.05304C15.7958 5.49148 15.1132 5.71835 14.3727 5.82945C14.3727 6.57061 14.3647 7.28781 14.3747 8.00502C14.3906 9.13937 15.2735 10.0548 16.3946 10.1121C17.4963 10.1686 18.5049 9.35892 18.6014 8.24653C18.6706 7.44948 18.6147 6.64246 18.6147 5.81948ZM15.7459 13.6182C15.3826 13.0135 15.032 12.4307 14.6734 11.8332C14.4346 11.925 14.2217 12.0069 13.9948 12.0933C14.2303 12.7952 14.4525 13.4592 14.684 14.1498C15.0566 13.9642 15.3873 13.7985 15.7459 13.6182ZM18.3259 11.8306C17.9594 12.4426 17.6107 13.0241 17.2535 13.6209C17.626 13.8045 17.958 13.9689 18.3186 14.1465C18.5528 13.4446 18.7744 12.7786 19.0039 12.0914C18.7757 12.0035 18.5688 11.9237 18.3259 11.8306ZM16.5003 12.8032C16.8709 12.1838 17.2069 11.623 17.5203 11.0987C16.8323 11.0987 16.159 11.0987 15.4798 11.0987C15.7938 11.6236 16.1311 12.1865 16.5003 12.8032ZM13.2736 7.77349C13.2736 7.20066 13.2736 6.63781 13.2736 6.05566C12.609 6.49476 12.6163 7.36366 13.2736 7.77349ZM19.7277 6.07495C19.7277 6.64446 19.7277 7.20665 19.7277 7.79145C20.3931 7.30777 20.3831 6.43622 19.7277 6.07495Z" fill="black"/>
<path d="M7.61113 9.17125C8.001 8.80334 8.38821 8.43809 8.77542 8.07217C8.76544 8.04356 8.7548 8.01495 8.74482 7.98701C8.50597 7.98701 8.26646 7.98701 8.02761 7.98701C7.52331 7.98701 7.01834 7.98501 6.51403 7.98767C6.03568 7.99033 5.86004 8.1673 5.85937 8.65298C5.85804 11.6588 5.8587 14.6647 5.8587 17.6706C5.8587 17.7983 5.8587 17.9254 5.8587 18.0777C5.50077 18.0777 5.16479 18.0777 4.7849 18.0777C4.7849 17.958 4.7849 17.8442 4.7849 17.7298C4.7849 14.7239 4.78423 11.7181 4.78556 8.71219C4.78623 7.56454 5.43424 6.91719 6.5819 6.91253C7.2798 6.90987 7.97705 6.90921 8.67496 6.90655C8.69226 6.90655 8.71022 6.88925 8.73351 6.87727C8.34829 6.51069 7.96441 6.14543 7.56323 5.76355C7.87991 5.47746 8.13074 5.25059 8.36892 5.03503C9.14666 5.82342 9.96433 6.6524 10.7647 7.46341C9.98163 8.24049 9.15531 9.06081 8.32168 9.88779C8.11943 9.68421 7.88124 9.44337 7.61113 9.17125Z" fill="black"/>
<path d="M22.3763 7.98703C22.3763 7.60847 22.3763 7.27914 22.3763 6.91255C22.862 6.91255 23.3311 6.91255 23.8001 6.91255C24.1973 6.91255 24.5945 6.90191 24.9917 6.91654C25.9617 6.95247 26.6124 7.62111 26.6144 8.59179C26.619 10.6529 26.6157 12.7134 26.6157 14.7745C26.6157 14.8889 26.6157 15.004 26.6157 15.1943C27.0215 14.7479 27.3781 14.356 27.7354 13.9628C28.0315 14.2902 28.2577 14.541 28.4633 14.7679C27.6988 15.5283 26.8738 16.3493 26.0695 17.149C25.2877 16.3659 24.4647 15.5416 23.6384 14.7133C23.8493 14.5064 24.0915 14.2682 24.3696 13.9948C24.7322 14.3727 25.1001 14.7572 25.5186 15.1937C25.5299 15.022 25.5426 14.9215 25.5426 14.8217C25.5439 12.7932 25.5439 10.7647 25.5432 8.73616C25.5432 8.13938 25.3942 7.98902 24.808 7.98836C24.0057 7.98636 23.2027 7.98703 22.3763 7.98703Z" fill="black"/>
<path d="M14.235 27.2404C13.9309 27.5478 13.6994 27.7827 13.4865 27.9975C12.6615 27.1719 11.8379 26.3476 11.0362 25.5459C11.8325 24.7502 12.6575 23.9259 13.4719 23.1122C13.6874 23.3244 13.9216 23.5559 14.1804 23.8121C13.8058 24.1674 13.4146 24.5393 13.0234 24.9105C13.0421 24.9411 13.0614 24.9717 13.08 25.0023C14.38 25.0023 15.68 25.0023 17.0026 25.0023C17.0026 25.3742 17.0026 25.7102 17.0026 26.0861C15.6946 26.0861 14.3933 26.0861 13.0121 26.0861C13.4599 26.5079 13.8458 26.8725 14.235 27.2404Z" fill="black"/>
<path d="M29.8018 25.5326C29.8132 27.8858 27.9124 29.7972 25.5552 29.8032C23.2073 29.8092 21.2866 27.8938 21.2866 25.5466C21.2866 23.218 23.1887 21.3059 25.5246 21.2859C27.8665 21.2666 29.7905 23.1767 29.8018 25.5326ZM22.361 25.5313C22.3537 27.297 23.7808 28.7381 25.5399 28.7427C27.295 28.7474 28.7427 27.3043 28.7433 25.5492C28.744 23.8014 27.3209 22.3697 25.5745 22.3611C23.8001 22.3517 22.3677 23.7649 22.361 25.5313Z" fill="black"/>
<path d="M8.494 22.3438C6.37499 22.3438 4.27528 22.3438 2.15161 22.3438C2.15161 22.0025 2.15161 21.6659 2.15161 21.3073C4.25997 21.3073 6.36767 21.3073 8.494 21.3073C8.494 21.6479 8.494 21.9766 8.494 22.3438Z" fill="black"/>
<path d="M8.49866 25.5704C8.49866 25.9197 8.49866 26.249 8.49866 26.597C6.37699 26.597 4.26929 26.597 2.14496 26.597C2.14496 26.255 2.14496 25.9264 2.14496 25.5704C4.25199 25.5704 6.35836 25.5704 8.49866 25.5704Z" fill="black"/>
<path d="M8.49799 27.7002C8.49799 28.0488 8.49799 28.3781 8.49799 28.7254C6.37632 28.7254 4.26929 28.7254 2.14429 28.7254C2.14429 28.3841 2.14429 28.0555 2.14429 27.7002C4.25199 27.7002 6.35836 27.7002 8.49799 27.7002Z" fill="black"/>
<path d="M4.27792 23.4342C5.68439 23.4342 7.08287 23.4342 8.49666 23.4342C8.49666 23.7815 8.49666 24.1108 8.49666 24.4634C7.09618 24.4634 5.6977 24.4634 4.27792 24.4634C4.27792 24.1268 4.27792 23.7908 4.27792 23.4342Z" fill="black"/>
<path d="M2.14429 30.8543C2.14429 30.5124 2.14429 30.1837 2.14429 29.8291C3.54343 29.8291 4.94125 29.8291 6.36168 29.8291C6.36168 30.1664 6.36168 30.5011 6.36168 30.8543C4.95655 30.8543 3.55873 30.8543 2.14429 30.8543Z" fill="black"/>
<path d="M2.13965 24.4727C2.13965 24.1154 2.13965 23.7868 2.13965 23.4362C2.48494 23.4362 2.81959 23.4362 3.17553 23.4362C3.17553 23.7874 3.17553 24.1228 3.17553 24.4727C2.82758 24.4727 2.50025 24.4727 2.13965 24.4727Z" fill="black"/>
<path d="M8.49932 29.8258C8.49932 30.1784 8.49932 30.5064 8.49932 30.853C8.16001 30.853 7.83401 30.853 7.48206 30.853C7.48206 30.5171 7.48206 30.1824 7.48206 29.8258C7.81272 29.8258 8.13872 29.8258 8.49932 29.8258Z" fill="black"/>
<path d="M27.6702 25.5618C27.6622 26.7474 26.7122 27.6809 25.5259 27.6695C24.3616 27.6582 23.4189 26.7108 23.4169 25.5499C23.4149 24.3842 24.3896 23.4116 25.5545 23.4169C26.7301 23.4222 27.6782 24.3836 27.6702 25.5618ZM24.4887 25.5399C24.4854 26.13 24.9544 26.6084 25.5399 26.613C26.1187 26.6177 26.609 26.1353 26.6144 25.5559C26.6197 24.973 26.1426 24.4914 25.5565 24.4874C24.9657 24.484 24.492 24.9504 24.4887 25.5399Z" fill="black"/>
</g>
<defs>
<clipPath id="clip0_4_1940">
<rect width="33" height="33" fill="white"/>
</clipPath>
</defs>
</svg>
