<svg width="28" height="21" viewBox="0 0 28 21" fill="none" xmlns="http://www.w3.org/2000/svg">
<g clip-path="url(#clip0_596_13623)">
<path d="M28.0002 13.04C27.9661 13.5969 27.9251 14.1538 27.8909 14.7175C27.8363 15.5665 27.7748 16.4087 27.563 17.2441C27.0847 19.0778 25.9983 20.2936 24.0783 20.6196C23.3199 20.7486 22.541 20.7758 21.7689 20.8029C19.2477 20.8912 16.7264 21.0271 14.2052 21.0067C11.0895 20.9795 7.98071 20.8301 4.87188 20.7011C3.94264 20.6603 3.03391 20.4566 2.22766 19.9336C1.2506 19.2952 0.738153 18.3579 0.458016 17.2577C0.109553 15.8993 0.109553 14.5138 0.061725 13.1351C-0.0270988 10.4048 -0.0339314 7.66774 0.239373 4.94426C0.348694 3.85079 0.628831 2.78449 1.33259 1.89477C2.02268 1.00506 2.93825 0.448138 4.05197 0.33947C5.50731 0.196844 6.97632 0.10176 8.4385 0.0745932C11.3765 0.0202594 14.3214 -0.0136992 17.2594 0.0134677C19.3433 0.0338429 21.4273 0.156094 23.5112 0.278345C24.8504 0.359846 25.9915 0.903183 26.8114 2.00344C27.2896 2.64866 27.5493 3.40254 27.6586 4.18359C27.7953 5.22272 27.8568 6.26864 27.9456 7.31457C27.9661 7.5387 27.9797 7.76282 28.0002 7.98695C28.0002 9.6713 28.0002 11.3556 28.0002 13.04ZM14.6152 1.5484C12.0393 1.60952 10.0783 1.64348 8.1242 1.7114C6.93532 1.75215 5.73962 1.80648 4.55075 1.91515C3.4097 2.01023 2.58296 2.57395 2.18666 3.70137C1.90653 4.50959 1.8177 5.33818 1.76988 6.18035C1.60589 9.06004 1.59223 11.9329 1.77671 14.8126C1.82454 15.5461 1.94752 16.2864 2.09784 17.0064C2.1935 17.4818 2.39848 17.93 2.76744 18.2832C3.25255 18.745 3.85382 18.942 4.49609 19.0031C5.45948 19.0982 6.41605 19.1729 7.37944 19.2137C11.7865 19.3903 16.1935 19.431 20.6005 19.2205C21.6528 19.1729 22.7118 19.1254 23.7572 19.0031C24.7206 18.8877 25.4039 18.3579 25.7591 17.4274C26.1008 16.5377 26.1828 15.6208 26.2374 14.6904C26.3809 12.2182 26.3946 9.7528 26.2853 7.28061C26.2374 6.17356 26.2443 5.05293 25.9163 3.97304C25.7455 3.40254 25.52 2.87278 25.0212 2.49245C24.4268 2.04419 23.7367 1.89477 23.0193 1.86761C20.0198 1.73857 17.0134 1.63669 14.6152 1.5484Z" fill="white"/>
<path d="M10.4541 10.1604C10.4541 9.10766 10.4541 8.06173 10.4541 7.00901C10.4541 5.9563 11.3218 5.43333 12.2511 5.93592C14.2325 7.00901 16.2071 8.0889 18.1886 9.16199C18.6259 9.3997 18.8992 9.7325 18.8992 10.2351C18.8924 10.7377 18.6054 11.0637 18.1681 11.2946C16.1935 12.3405 14.2257 13.4 12.2511 14.4527C11.315 14.9485 10.4541 14.4392 10.4473 13.3932C10.4541 12.3134 10.4541 11.2403 10.4541 10.1604ZM16.7128 10.2215C15.1549 9.37254 13.6449 8.55074 12.1144 7.72215C12.1144 9.38612 12.1144 11.0161 12.1144 12.6801C13.6449 11.8583 15.1549 11.0569 16.7128 10.2215Z" fill="white"/>
</g>
<defs>
<clipPath id="clip0_596_13623">
<rect width="28" height="21" fill="white"/>
</clipPath>
</defs>
</svg>
