<svg width="22" height="24" viewBox="0 0 22 24" fill="none" xmlns="http://www.w3.org/2000/svg">
<g clip-path="url(#clip0_1092_30502)">
<path d="M15.422 20.3075C14.8895 22.5844 12.9767 23.9921 11.019 23.9998C9.1138 24.0075 7.14108 22.646 6.59351 20.3075C6.40599 20.3075 6.21097 20.3075 6.01595 20.3075C4.92833 20.3075 3.8407 20.3152 2.75308 20.3075C1.57545 20.2921 0.72035 19.7306 0.255298 18.6306C-0.209755 17.5306 -0.0597381 16.469 0.772856 15.6152C1.83048 14.5306 2.28803 13.2613 2.25802 11.746C2.23552 10.746 2.22052 9.73826 2.34803 8.75365C2.72308 5.80749 4.26075 3.61518 6.73603 2.10749C7.76365 1.48441 8.88877 1.12287 10.0664 0.97672C10.2614 0.269028 10.554 -0.0232802 11.0565 -0.000203281C11.5216 0.0228737 11.8141 0.338258 11.9416 0.969028C13.2768 1.13057 14.5294 1.55364 15.6545 2.32287C18.1073 3.9998 19.5175 6.32288 19.735 9.36134C19.8025 10.3152 19.7725 11.2844 19.78 12.246C19.7875 13.4998 20.2376 14.569 21.1002 15.446C21.8952 16.2537 22.1953 17.2075 21.8727 18.3152C21.5502 19.4306 20.7926 20.0844 19.675 20.2844C19.5475 20.3075 19.4125 20.3075 19.285 20.3075C18.1073 20.3075 16.9222 20.3075 15.7445 20.3075C15.6395 20.3075 15.5345 20.3075 15.422 20.3075ZM11.0115 18.4613C13.7493 18.4613 16.4871 18.4613 19.2249 18.4613C19.645 18.4613 19.9525 18.2844 20.1175 17.8921C20.2751 17.5075 20.2301 17.146 19.9075 16.8383C19.78 16.7152 19.66 16.5767 19.54 16.4383C18.4524 15.146 17.9498 13.646 17.9648 11.9383C17.9723 10.9152 18.0023 9.87673 17.8673 8.86134C17.4322 5.54595 14.5969 2.92288 11.3716 2.76903C8.07118 2.61518 5.03334 4.93826 4.25325 8.20749C3.95322 9.46134 4.08073 10.7306 4.05073 11.9921C4.04323 12.4306 4.02072 12.8767 3.94572 13.3075C3.71319 14.6998 3.06062 15.8613 2.10051 16.8613C1.96549 16.9998 1.86048 17.2152 1.83798 17.4075C1.77047 17.9998 2.18302 18.446 2.76808 18.446C5.52089 18.4613 8.2662 18.4613 11.0115 18.4613ZM13.5093 20.3306C11.8441 20.3306 10.1714 20.3306 8.49873 20.3306C8.87377 21.446 9.9914 22.2075 11.154 22.1537C12.2041 22.0998 13.2993 21.2537 13.5093 20.3306Z" fill="white"/>
</g>
<defs>
<clipPath id="clip0_1092_30502">
<rect width="22" height="24" fill="white"/>
</clipPath>
</defs>
</svg>
