<svg width="26" height="26" viewBox="0 0 26 26" fill="none" xmlns="http://www.w3.org/2000/svg">
<path d="M6.23105 2.42595C6.96751 2.44039 7.55235 2.67144 8.02888 3.14075C8.31769 3.42956 8.6426 3.56674 9.03249 3.40068C9.40794 3.23461 9.53069 2.92414 9.53791 2.52703C9.55957 1.12631 10.6643 0.0288368 12.065 0.0216166C12.8159 0.0143964 13.5668 -0.0289249 14.3105 0.0649379C15.5812 0.223783 16.4404 1.27071 16.4693 2.55591C16.4838 3.03967 16.6931 3.35014 17.0903 3.45122C17.4296 3.53786 17.6968 3.4079 17.9495 3.17685C18.7365 2.43317 19.6606 2.231 20.6715 2.6209C20.9892 2.74364 21.2852 2.96025 21.5451 3.19129C21.9928 3.59562 22.4116 4.03606 22.8303 4.46927C23.8412 5.50898 23.8484 7.01801 22.852 8.07216C22.5776 8.36097 22.4404 8.67144 22.6065 9.04689C22.7726 9.42234 23.083 9.55231 23.4801 9.55231C24.8809 9.57397 25.9711 10.6714 25.9928 12.0722C26 12.6931 26 13.314 25.9928 13.9422C25.9711 15.3574 24.8809 16.4476 23.4657 16.4765C22.9675 16.4909 22.6859 16.6859 22.5704 17.0974C22.4765 17.444 22.6065 17.7039 22.8448 17.9494C23.6173 18.7653 23.8051 19.8483 23.3502 20.8231C23.0758 21.4151 21.4007 23.083 20.8087 23.3574C19.8412 23.805 18.7653 23.6173 17.9567 22.8519C17.7184 22.6281 17.4657 22.4909 17.1264 22.5631C16.7076 22.657 16.4838 22.9747 16.4693 23.4657C16.4404 24.6498 15.6967 25.6101 14.5776 25.9133C14.4838 25.9422 14.3827 25.9711 14.2888 25.9711C13.4152 25.9711 12.5343 26.0433 11.6679 25.9422C10.4116 25.7906 9.55957 24.7436 9.53791 23.4657C9.53069 23.0758 9.40794 22.7725 9.03971 22.6137C8.66426 22.4476 8.34657 22.5631 8.05776 22.8375C6.97473 23.8556 5.48014 23.8411 4.41877 22.8014C4.01444 22.4043 3.61011 22 3.213 21.5956C2.15884 20.527 2.13718 19.0252 3.16967 17.935C3.43682 17.6534 3.55957 17.3429 3.3935 16.9747C3.23466 16.6137 2.93863 16.4765 2.54874 16.4693C1.09747 16.4476 0.0144404 15.3429 0 13.8917C0 13.3068 0 12.722 0 12.1299C0.00722022 10.6642 1.09025 9.56675 2.55596 9.53787C3.03971 9.53064 3.35018 9.29238 3.44404 8.86638C3.50903 8.54147 3.37184 8.29599 3.16245 8.06494C2.41155 7.2635 2.21661 6.33931 2.61372 5.31404C2.72924 5.01079 2.93863 4.7292 3.15523 4.48371C3.57401 4.02162 4.02888 3.59562 4.46931 3.16241C4.97473 2.67144 5.58845 2.41873 6.23105 2.42595ZM17.3718 20.8086C17.9856 20.8231 18.5993 21.0686 19.1119 21.5667C19.5235 21.9639 19.9711 21.9639 20.3755 21.5595C20.7581 21.1841 21.1336 20.8086 21.509 20.4332C21.9783 19.9639 21.9783 19.5595 21.5235 19.0686C21.0614 18.5776 20.8231 18 20.8087 17.3357C20.7798 15.9205 21.9134 14.7653 23.343 14.7364C23.9639 14.722 24.2671 14.4187 24.2671 13.7978C24.2671 13.2491 24.2671 12.7003 24.2671 12.1444C24.2671 11.6101 23.935 11.2852 23.4152 11.2707C22.2888 11.2418 21.4513 10.7292 21.018 9.68949C20.5848 8.657 20.8087 7.71115 21.5668 6.89526C21.9567 6.47649 21.9567 6.03606 21.5596 5.63173C21.1841 5.24905 20.8087 4.88082 20.4332 4.50537C19.9639 4.04328 19.5596 4.03606 19.0758 4.49093C18.5921 4.94581 18.0217 5.18407 17.3646 5.20573C15.9422 5.24183 14.7653 4.10826 14.7437 2.67144C14.7292 2.0505 14.426 1.74725 13.8051 1.74725C13.2563 1.74725 12.7076 1.74725 12.1516 1.74725C11.6173 1.74725 11.2996 2.07216 11.278 2.59923C11.2708 2.82306 11.2491 3.05411 11.1986 3.27071C10.7076 5.18407 8.38267 5.84111 6.93863 4.48371C6.46931 4.04328 6.05054 4.04328 5.59567 4.49815C5.23466 4.85194 4.88087 5.21295 4.52708 5.56674C4.04332 6.0505 4.02888 6.45483 4.49819 6.94581C4.96029 7.43678 5.19856 8.0144 5.20578 8.67866C5.22744 10.1083 4.09386 11.2418 2.6426 11.2707C2.0722 11.2779 1.75451 11.6028 1.74729 12.1588C1.74729 12.7364 1.74007 13.314 1.74729 13.8917C1.75451 14.3899 2.08664 14.7148 2.57762 14.7364C2.80866 14.7509 3.04693 14.7581 3.27076 14.8158C5.18412 15.3068 5.83393 17.6245 4.47653 19.0758C4.0361 19.5451 4.0361 19.9639 4.49097 20.4187C4.86643 20.7942 5.24188 21.1769 5.61733 21.5451C6.0361 21.9566 6.46931 21.9566 6.90253 21.5523C7.71841 20.7942 8.66426 20.5704 9.69675 21.0108C10.7292 21.444 11.2347 22.2743 11.2635 23.3862C11.278 23.935 11.6029 24.2599 12.1444 24.2599C12.6787 24.2599 13.2058 24.2599 13.7401 24.2599C14.4188 24.2599 14.7148 23.9783 14.7292 23.2996C14.7653 21.935 15.9061 20.8158 17.3718 20.8086Z" fill="black"/>
<path d="M6.9314 13.0108C6.9314 9.67506 9.65342 6.93859 12.9819 6.94582C16.3466 6.94582 19.0542 9.6534 19.0614 13.018C19.0686 16.3249 16.3393 19.0758 13.0541 19.0758C9.65342 19.0686 6.93862 16.3826 6.9314 13.0108ZM17.3285 13.018C17.3285 10.6281 15.3935 8.67145 13.0253 8.67145C10.6065 8.67145 8.67147 10.5992 8.66425 13.018C8.66425 15.4007 10.6209 17.3429 13.018 17.3357C15.3863 17.3357 17.3285 15.379 17.3285 13.018Z" fill="black"/>
</svg>
