<svg width="34" height="34" viewBox="0 0 34 34" fill="none" xmlns="http://www.w3.org/2000/svg">
<g clip-path="url(#clip0_227_2302)">
<path d="M33.9904 16.6694C34.1605 26.0949 26.6878 33.811 17.3541 33.9999C7.90708 34.1794 0.169942 26.7466 -0.000105057 17.3588C-0.170152 7.84825 7.35915 0.094358 16.759 -8.64181e-05C26.1777 -0.0945309 33.792 7.33825 33.9904 16.6694ZM16.9574 2.26658C8.82345 2.27603 2.25774 8.88714 2.25774 17.066C2.25774 25.0844 8.89903 31.7427 16.8723 31.7333C25.1196 31.7238 31.7326 25.1788 31.7326 17.0188C31.7326 8.84936 25.1291 2.25714 16.9574 2.26658Z" fill="#454E64"/>
<path d="M16.9768 26.8884C14.3127 26.8506 11.9982 25.925 10.0615 24.0645C9.53247 23.5545 9.48523 22.8839 9.93869 22.4023C10.4016 21.9112 11.0818 21.9206 11.6392 22.44C14.7472 25.3584 19.2441 25.3584 22.371 22.44C22.9095 21.9395 23.5803 21.9112 24.0432 22.3928C24.5155 22.8745 24.4777 23.5639 23.9298 24.0834C21.9931 25.9345 19.6692 26.8506 16.9768 26.8884Z" fill="#454E64"/>
<path d="M22.2852 13.4583C22.2947 12.495 23.0882 11.7017 24.0424 11.7017C25.0249 11.7017 25.8184 12.5139 25.809 13.4961C25.7995 14.4878 25.006 15.2528 24.014 15.2433C23.041 15.2244 22.2758 14.4311 22.2852 13.4583Z" fill="#454E64"/>
<path d="M11.7054 13.4867C11.6959 14.4783 10.9118 15.2528 9.9199 15.2339C8.94685 15.2244 8.18164 14.4405 8.18164 13.4583C8.19109 12.495 8.97519 11.7017 9.93879 11.7017C10.9118 11.7017 11.7054 12.5044 11.7054 13.4867Z" fill="#454E64"/>
</g>
<defs>
<clipPath id="clip0_227_2302">
<rect width="34" height="34" fill="white"/>
</clipPath>
</defs>
</svg>
