<svg width="34" height="34" viewBox="0 0 34 34" fill="none" xmlns="http://www.w3.org/2000/svg">
<path d="M34 17C34 21.1301 34.0109 25.2494 34 29.3795C34 31.5808 32.6051 33.3571 30.491 33.8692C30.1096 33.9564 29.7064 34 29.3141 34C21.0974 34.0109 12.8917 34.0109 4.675 34C1.98333 34 0.0108974 32.0276 0 29.3359C0 21.1083 0 12.8808 0 4.6641C0.0108974 1.99423 1.98333 0.0108974 4.64231 0C12.8808 0 21.1192 0 29.3577 0C32.0167 0 33.9891 1.98333 34 4.6641C34.0109 8.77244 34 12.8917 34 17ZM31.3737 23.2987C31.3846 23.1244 31.3846 23.0372 31.3846 22.9391C31.3846 16.8365 31.3846 10.734 31.3846 4.63141C31.3846 3.42179 30.5564 2.61538 29.3468 2.61538C21.1192 2.61538 12.8917 2.61538 4.675 2.61538C3.43269 2.61538 2.61538 3.43269 2.61538 4.6641C2.61538 11.2462 2.61538 17.8173 2.61538 24.3994C2.61538 24.4974 2.63718 24.5955 2.64808 24.7372C2.75705 24.65 2.81154 24.6064 2.87692 24.5519C4.98013 22.7756 7.08333 21.0103 9.18654 19.234C10.8538 17.8173 12.75 17.8936 14.2974 19.4301C15.5942 20.716 16.8801 22.0128 18.166 23.2987C18.6564 23.7891 19.0051 23.8218 19.5609 23.4077C20.8904 22.4487 22.209 21.4897 23.5276 20.5308C25.0096 19.4628 26.6115 19.5064 28.0391 20.6506C29.1288 21.5115 30.2186 22.3724 31.3737 23.2987ZM17 31.3846C21.1083 31.3846 25.2276 31.3846 29.3359 31.3846C30.5673 31.3846 31.3846 30.5673 31.3846 29.3359C31.3846 28.5513 31.3955 27.7558 31.3737 26.9712C31.3737 26.8077 31.2756 26.6006 31.1558 26.5026C29.5647 25.2058 27.9519 23.9199 26.35 22.634C25.8705 22.2526 25.5218 22.2526 25.0314 22.634C23.7673 23.6038 22.5141 24.5846 21.25 25.5545C19.6045 26.8295 17.7519 26.6878 16.2917 25.2058C15.0058 23.8872 13.7199 22.5795 12.434 21.2718C11.9109 20.7378 11.5186 20.716 10.9519 21.2064C8.42372 23.3205 5.91731 25.4564 3.36731 27.5378C2.78974 28.0064 2.5609 28.475 2.59359 29.216C2.65897 30.6218 3.37821 31.3955 4.77308 31.3955C8.84872 31.3846 12.9244 31.3846 17 31.3846Z" fill="#454E64"/>
</svg>
