<svg width="70" height="70" viewBox="0 0 70 70" fill="none" xmlns="http://www.w3.org/2000/svg">
<circle cx="35" cy="35" r="35" fill="#F4F7FF"/>
<mask id="mask0_21_2060" style="mask-type:alpha" maskUnits="userSpaceOnUse" x="0" y="0" width="70" height="70">
<circle cx="35" cy="35" r="35" fill="#E8F7F0"/>
</mask>
<g mask="url(#mask0_21_2060)">
<path d="M17.997 81.2246C17.2263 81.0636 16.4555 80.951 15.7176 80.7418C10.9293 79.4223 7.91205 75.8017 7.69888 70.8776C7.4857 65.7765 8.04324 60.7559 10.0274 55.9928C11.3065 52.9193 13.1431 50.248 16.2588 48.6228C18.1774 47.6251 20.2271 47.1424 22.3753 47.1906C23.0476 47.2067 23.7692 47.5446 24.3759 47.8665C25.3762 48.3975 26.2945 49.0573 27.262 49.6366C32.8866 53.048 38.4948 53.0319 44.1194 49.6205C44.9065 49.1538 45.6936 48.6872 46.4315 48.1561C47.7762 47.1745 49.252 47.0458 50.8427 47.2711C55.2046 47.8987 58.2711 50.2481 60.3537 53.9813C62.2067 57.3123 63.043 60.9329 63.4037 64.6662C63.6005 66.5811 63.6825 68.5121 63.6661 70.4431C63.6005 76.1879 59.5665 80.4682 53.7452 81.0958C53.5976 81.1119 53.4664 81.1763 53.3188 81.2085C41.5285 81.2246 29.7709 81.2246 17.997 81.2246Z" fill="#C8CEDE"/>
<path d="M51.4167 31.4728C51.4823 40.332 44.1686 47.6655 35.2644 47.6983C26.3601 47.7311 19.0465 40.3813 19.0301 31.5549C19.0301 22.63 26.1634 15.3786 35.1496 15.3129C44.103 15.2473 51.3675 22.4659 51.4167 31.4728Z" fill="#C8CEDE"/>
</g>
</svg>
