<svg width="107" height="152" viewBox="0 0 107 152" fill="none" xmlns="http://www.w3.org/2000/svg">
<g clip-path="url(#clip0_2_179)">
<path d="M75.2998 114.677C75.2998 114.677 108.016 87.2747 92.2539 78.4312C84.9948 74.4298 72.5567 82.7793 75.2998 114.677Z" fill="#F7B369"/>
<path d="M71.3404 110.038C71.3404 110.038 30.399 121.915 31.7645 103.816C32.5115 95.5646 46.3886 89.9996 71.3404 110.038Z" fill="#F7B369"/>
<path d="M56.8363 89.0609C56.8363 89.0609 89.5522 61.6586 73.7905 52.8151C66.5314 48.8137 54.1269 57.3368 56.8363 89.0609Z" fill="#F7B369"/>
<path d="M43.656 61.8831C43.656 61.8831 76.3718 34.4807 60.6101 25.6373C53.351 21.6358 40.9129 29.9853 43.656 61.8831Z" fill="#F7B369"/>
<path d="M53.8182 83.6992C53.8182 83.6992 12.8768 95.5768 14.2423 77.4775C15.0229 69.3997 28.8665 63.661 53.8182 83.6992Z" fill="#F7B369"/>
<path d="M40.7339 52.3592C40.7339 52.3592 -1.85689 51.044 5.15501 34.1952C8.39465 26.723 23.3183 25.6397 40.7339 52.3592Z" fill="#F7B369"/>
<path d="M99.4504 135.23C69.4856 112.558 48.0214 78.8746 39.6888 42.2924C37.3272 31.9395 36.0076 21.3853 35.7636 10.8033C35.7753 8.99947 33.036 8.80836 33.0244 10.6122C33.9565 48.9853 48.7703 86.4765 74.1513 115.259C81.3142 123.423 89.2447 130.898 97.8757 137.336C99.36 138.491 100.901 136.211 99.4504 135.23Z" fill="#201129"/>
</g>
<defs>
<clipPath id="clip0_2_179">
<rect width="81.7191" height="138.321" fill="white" transform="translate(0 15.915) rotate(-10.9407)"/>
</clipPath>
</defs>
</svg>
