<svg width="30" height="28" viewBox="0 0 30 28" fill="none" xmlns="http://www.w3.org/2000/svg">
<path d="M13.0979 2.8541C13.6966 1.01148 16.3034 1.01148 16.9021 2.8541L18.5922 8.05573C18.86 8.87977 19.6279 9.43769 20.4943 9.43769H25.9636C27.9011 9.43769 28.7066 11.9169 27.1392 13.0557L22.7145 16.2705C22.0135 16.7798 21.7202 17.6825 21.9879 18.5066L23.678 23.7082C24.2767 25.5508 22.1678 27.0831 20.6003 25.9443L16.1756 22.7295C15.4746 22.2202 14.5254 22.2202 13.8244 22.7295L9.39966 25.9443C7.83224 27.0831 5.72327 25.5508 6.32198 23.7082L8.01209 18.5066C8.27984 17.6825 7.98652 16.7798 7.28555 16.2705L2.86078 13.0557C1.29336 11.9169 2.0989 9.43769 4.03635 9.43769H9.50566C10.3721 9.43769 11.14 8.87977 11.4078 8.05573L13.0979 2.8541Z" stroke="white" stroke-width="2.5"/>
</svg>
