<svg width="18" height="23" viewBox="0 0 18 23" fill="none" xmlns="http://www.w3.org/2000/svg">
<g clip-path="url(#clip0_1092_6245)">
<path d="M3.66381 6.13333C3.53001 4.24222 4.04611 2.60667 5.47337 1.33528C6.48647 0.434444 7.68434 0 9.03514 0C10.0737 0 11.0295 0.2875 11.9024 0.856111C12.7817 1.42472 13.4316 2.19139 13.8776 3.14333C14.3173 4.08889 14.4001 5.08556 14.3491 6.13333C14.8397 6.13333 15.2985 6.13333 15.7573 6.13333C16.3307 6.13333 16.6047 6.37611 16.662 6.95111C16.9169 9.50667 17.1718 12.0622 17.4266 14.6242C17.6178 16.5728 17.8281 18.515 18.0001 20.4636C18.1212 21.8564 17.0698 22.9936 15.6744 23C11.2334 23.0064 6.78593 23.0064 2.34487 23C0.955846 23 -0.101853 21.8564 0.0192087 20.47C0.153014 18.8728 0.331421 17.2756 0.484342 15.6783C0.63089 14.1833 0.783811 12.6947 0.930359 11.1997C1.07691 9.74944 1.21708 8.29278 1.36363 6.8425C1.40824 6.42722 1.71408 6.14611 2.13461 6.13972C2.62523 6.12694 3.12859 6.13333 3.66381 6.13333ZM15.1966 7.67944C11.0486 7.67944 6.93886 7.67944 2.81638 7.67944C2.81001 7.73694 2.79726 7.78806 2.79089 7.83278C2.62523 9.50028 2.46593 11.1678 2.30027 12.8353C2.0454 15.3972 1.79054 17.9656 1.53567 20.5275C1.4847 21.0706 1.82877 21.4667 2.37036 21.4667C6.79868 21.4667 11.2206 21.4667 15.6489 21.4667C16.1842 21.4667 16.5346 21.0578 16.4773 20.5275C16.439 20.1378 16.4008 19.7481 16.3626 19.3583C16.2097 17.8506 16.0631 16.3428 15.9102 14.835C15.7445 13.1547 15.5725 11.4681 15.4068 9.78778C15.3367 9.085 15.2666 8.38861 15.1966 7.67944ZM5.19301 6.11417C7.74169 6.11417 10.2776 6.11417 12.8072 6.11417C13.113 3.0475 10.8957 1.54611 9.03514 1.52694C7.20009 1.50139 4.88717 2.97083 5.19301 6.11417Z" fill="#00A29A"/>
<path d="M9.78099 10.0882C10.947 10.5226 11.6606 11.4618 11.6734 12.5735C11.6797 13.0399 11.3739 13.3976 10.9406 13.4104C10.5074 13.4232 10.176 13.0974 10.1505 12.631C10.1123 11.9665 9.61532 11.481 8.97816 11.4938C8.36647 11.5065 7.86311 12.0176 7.86311 12.6374C7.86311 13.2763 8.3601 13.7682 9.01639 13.7938C10.3544 13.8385 11.4249 14.7329 11.6351 15.9788C11.8582 17.2949 11.1891 18.4768 9.92754 18.9752C9.81922 19.0199 9.77461 19.0646 9.76824 19.1924C9.73638 19.6204 9.41143 19.9271 9.00364 19.9207C8.6086 19.9143 8.27727 19.614 8.25178 19.1988C8.24541 19.0454 8.17532 19.0071 8.05426 18.956C7.05391 18.579 6.3594 17.6015 6.33391 16.5538C6.32117 16.081 6.62064 15.7296 7.05391 15.704C7.49993 15.6785 7.83125 16.0043 7.86311 16.4963C7.90134 17.1671 8.43019 17.6527 9.07373 17.6207C9.69815 17.5888 10.1824 17.0457 10.1569 16.4196C10.1314 15.8126 9.64081 15.3463 9.01001 15.3271C8.01603 15.2951 7.23232 14.8735 6.70984 14.011C5.85604 12.5926 6.50595 10.7335 8.05426 10.1457C8.13072 10.1138 8.2263 10.0243 8.23904 9.95403C8.30276 9.48125 8.60223 9.18097 9.02913 9.19375C9.44966 9.20653 9.74276 9.51959 9.77461 9.99875C9.76824 10.0243 9.77461 10.0499 9.78099 10.0882Z" fill="#00A29A"/>
</g>
<defs>
<clipPath id="clip0_1092_6245">
<rect width="18" height="23" fill="white"/>
</clipPath>
</defs>
</svg>
