<svg width="25" height="35" viewBox="0 0 25 35" fill="none" xmlns="http://www.w3.org/2000/svg">
<g clip-path="url(#clip0_1092_6253)">
<path d="M18.9025 29.9981C18.554 31.3472 18.2165 32.6634 17.879 33.9686C17.8354 34.1222 17.8027 34.2867 17.7374 34.4402C17.4652 35.0764 16.6703 35.1861 16.2457 34.6377C16.0932 34.4402 15.9844 34.2209 15.8646 34.0125C14.8193 32.2246 13.7631 30.4258 12.7178 28.627C12.6416 28.4954 12.5654 28.3747 12.4565 28.2102C12.3476 28.3747 12.2605 28.5064 12.1734 28.638C11.0519 30.3819 9.93035 32.1369 8.79795 33.8808C8.64551 34.1222 8.46041 34.3525 8.29708 34.5828C8.10109 34.8461 7.8942 35.0764 7.51311 34.9887C7.12112 34.9009 6.90335 34.6486 6.80535 34.2757C6.54403 33.2666 6.29359 32.2575 6.03227 31.2594C5.92338 30.8536 5.8145 30.4478 5.69473 29.9981C4.4861 30.3161 3.31014 30.6123 2.1233 30.9194C1.91642 30.9742 1.69864 31.0291 1.49176 31.0839C1.08889 31.1936 0.729568 31.1388 0.468244 30.7878C0.20692 30.4368 0.250474 30.0748 0.468244 29.7129C1.68776 27.6289 2.90727 25.5339 4.13767 23.4499C4.29011 23.1867 4.32277 22.9673 4.22478 22.6822C3.94168 21.8705 3.69124 21.0479 3.40814 20.2362C3.34281 20.0498 3.20126 19.8523 3.03793 19.7317C2.19952 19.0955 1.35021 18.4813 0.50091 17.8561C-0.0326272 17.4612 -0.130624 17.1761 0.0762578 16.5509C0.392024 15.5637 0.729568 14.5766 1.02356 13.5784C1.08889 13.3481 1.08889 13.0629 1.02356 12.8326C0.729568 11.8345 0.392024 10.8473 0.0762578 9.86016C-0.119735 9.24593 -0.0326271 8.96076 0.479133 8.58783C1.31755 7.97361 2.15596 7.37035 2.9726 6.73418C3.1577 6.59159 3.33192 6.36126 3.40814 6.13092C3.75657 5.1328 4.07234 4.13468 4.39899 3.13656C4.5841 2.55524 4.84542 2.36878 5.45518 2.36878C6.53314 2.35781 7.60021 2.36878 8.67818 2.34684C8.86328 2.34684 9.08105 2.27006 9.23349 2.16038C10.1155 1.54615 10.9757 0.899021 11.8576 0.273825C12.3258 -0.0552255 12.6198 -0.0661939 13.088 0.262857C13.9482 0.877084 14.8084 1.52422 15.6795 2.12748C15.8646 2.2591 16.115 2.33587 16.3437 2.34684C17.3672 2.36878 18.3798 2.35781 19.4034 2.36878C20.122 2.36878 20.3507 2.5333 20.5684 3.21334C20.8951 4.21146 21.2108 5.22055 21.5593 6.21867C21.6246 6.39416 21.7553 6.58063 21.9077 6.69031C22.7243 7.31551 23.5519 7.9078 24.3685 8.52202C25.0218 9.00463 25.0872 9.224 24.8476 9.98081C24.5318 10.957 24.2161 11.9332 23.9221 12.9094C23.8676 13.1068 23.8676 13.3481 23.9221 13.5346C24.2161 14.5327 24.5427 15.5198 24.8694 16.507C25.098 17.209 25.0109 17.4722 24.4121 17.9109C23.5736 18.5252 22.7352 19.1394 21.9186 19.7646C21.7662 19.8743 21.6355 20.0607 21.5702 20.2362C21.2326 21.2234 20.906 22.1996 20.6011 23.1977C20.5466 23.3732 20.5793 23.6364 20.6664 23.79C21.7879 25.7423 22.9421 27.6837 24.0636 29.6361C24.1834 29.8555 24.2923 30.1187 24.2814 30.36C24.2596 30.9304 23.7261 31.2484 23.1163 31.0949C21.8424 30.7658 20.5684 30.4258 19.2836 30.0968C19.1965 30.0529 19.0767 30.031 18.9025 29.9981ZM1.89464 16.6715C2.74394 17.2967 3.59325 17.9 4.39899 18.5361C4.63854 18.7226 4.84542 19.0187 4.95431 19.3039C5.27007 20.1485 5.54229 21.015 5.79272 21.8815C5.87983 22.1886 6.01049 22.3202 6.35892 22.3092C7.24089 22.2873 8.12286 22.3202 9.01572 22.2983C9.40771 22.2873 9.72347 22.408 10.0284 22.6383C10.7252 23.1648 11.4547 23.6474 12.1407 24.1848C12.4238 24.4042 12.6089 24.3713 12.8811 24.1739C13.578 23.6474 14.2966 23.1538 14.9935 22.6273C15.2875 22.408 15.6033 22.2983 15.9735 22.2983C16.8663 22.3092 17.7701 22.2873 18.6629 22.2983C18.9569 22.2983 19.0985 22.2105 19.1856 21.9253C19.4469 21.0479 19.7191 20.1704 20.0349 19.3149C20.1438 19.0297 20.3507 18.7336 20.5902 18.5471C21.3197 17.9548 22.0928 17.4064 22.855 16.8689C23.0619 16.7263 23.0837 16.5838 23.0074 16.3644C22.7135 15.4979 22.4086 14.6314 22.1799 13.743C22.0928 13.4139 22.0819 13.0081 22.1799 12.679C22.4195 11.7906 22.7135 10.9241 23.0074 10.0576C23.0946 9.80532 23.051 9.6737 22.8332 9.52014C22.071 8.98269 21.3197 8.44524 20.6011 7.86392C20.3615 7.67746 20.1438 7.38131 20.0458 7.09614C19.7191 6.22964 19.4469 5.33023 19.1747 4.4418C19.0985 4.18953 18.9787 4.10178 18.7174 4.10178C17.8245 4.11275 16.9208 4.09081 16.0279 4.10178C15.6468 4.10178 15.3202 4.01403 15.0044 3.77273C14.264 3.21334 13.5018 2.68686 12.7614 2.12748C12.5763 1.98489 12.4565 1.98489 12.2714 2.12748C11.531 2.68686 10.7905 3.24625 10.0175 3.75079C9.73436 3.93725 9.37504 4.05791 9.04839 4.07984C8.16642 4.12372 7.28445 4.12372 6.39159 4.10178C6.06494 4.09081 5.9125 4.17856 5.8145 4.50761C5.57495 5.35217 5.27007 6.1748 5.01964 7.00839C4.89987 7.41422 4.6821 7.6994 4.33366 7.9407C3.61502 8.45621 2.90727 8.99366 2.18863 9.50917C1.94908 9.6737 1.9273 9.82726 2.01441 10.0795C2.3084 10.9351 2.60239 11.7906 2.83105 12.6571C2.91816 12.9861 2.92905 13.392 2.83105 13.721C2.54795 14.7191 2.2104 15.6844 1.89464 16.6715ZM3.00527 28.8573C3.23392 28.8025 3.36459 28.7806 3.49525 28.7477C4.32277 28.5283 5.1503 28.3089 5.97783 28.1005C6.63114 27.936 7.02312 28.1663 7.20823 28.8244C7.26267 29.0109 7.30622 29.1974 7.34978 29.3838C7.56755 30.2064 7.77443 31.04 8.01398 31.9504C9.28793 29.9432 10.5074 28.0128 11.7378 26.0714C10.8341 25.4133 9.95213 24.7771 9.05927 24.141C8.98305 24.0861 8.85239 24.0751 8.7544 24.0642C7.86154 24.0532 6.95779 24.0532 6.06494 24.0642C5.94516 24.0642 5.78183 24.13 5.72739 24.2068C4.83453 25.7094 3.95257 27.234 3.00527 28.8573ZM13.2513 26.0604C14.3838 27.9908 15.4835 29.8774 16.6377 31.8407C16.9099 30.7658 17.1603 29.8006 17.4108 28.8354C17.585 28.1773 17.977 27.936 18.6303 28.0896C18.8807 28.1444 19.1311 28.2212 19.3816 28.287C20.1002 28.4734 20.8189 28.6489 21.5702 28.8464C21.5375 28.7477 21.5375 28.7038 21.5157 28.6709C20.6555 27.1902 19.7953 25.7204 18.9243 24.2506C18.8589 24.141 18.6738 24.0532 18.5323 24.0532C17.7701 24.0422 17.0079 24.0422 16.2457 24.0532C16.1259 24.0532 15.9953 24.0751 15.8973 24.141C15.0262 24.7661 14.1551 25.4023 13.2513 26.0604Z" fill="white"/>
<path d="M12.4999 19.7753C8.88495 19.7753 5.95594 16.8248 5.96683 13.1833C5.97772 9.57473 8.91761 6.61328 12.4999 6.61328C16.104 6.61328 19.0439 9.5857 19.033 13.2162C19.0221 16.8358 16.104 19.7753 12.4999 19.7753ZM12.5108 18.0313C15.1241 18.0313 17.2909 15.8596 17.3018 13.2162C17.3126 10.5619 15.1458 8.37918 12.4999 8.37918C9.8758 8.39015 7.71988 10.5509 7.70899 13.1833C7.6981 15.8377 9.8758 18.0313 12.5108 18.0313Z" fill="white"/>
</g>
<defs>
<clipPath id="clip0_1092_6253">
<rect width="25" height="35" fill="white"/>
</clipPath>
</defs>
</svg>
