<svg width="38" height="28" viewBox="0 0 38 28" fill="none" xmlns="http://www.w3.org/2000/svg">
<path d="M18.9606 28.0002C14.7989 28.0002 10.6484 28.0002 6.48679 28.0002C3.24873 28.0002 0.633793 25.8644 0.121934 22.6664C-0.0672311 21.4475 0.0217879 20.1839 0.0329153 18.9427C0.0440426 18.3277 0.533647 17.9363 1.14565 17.8245C1.70202 17.735 2.29177 17.6791 2.80363 17.4667C4.38372 16.8069 5.30729 15.0625 5.01798 13.4076C4.70641 11.6184 3.32662 10.2989 1.55737 10.2095C0.411246 10.1648 -0.0561037 9.52738 -0.000466871 8.50981C0.0662974 7.39159 -0.0227216 6.2622 0.155316 5.16635C0.633793 2.23664 3.25985 0.0225842 6.24199 0.0114021C14.7544 -0.0109621 23.2669 -0.0109621 31.7793 0.0114021C35.2399 0.0225842 37.9439 2.85166 37.9995 6.41875C38.0106 7.13441 37.9995 7.83888 37.9995 8.55453C37.9995 9.69511 37.6212 10.1088 36.4751 10.1983C34.8839 10.3213 33.5819 11.3501 33.1035 12.8485C32.3691 15.1967 33.9937 17.612 36.4306 17.791C37.6212 17.8804 38.0106 18.283 37.9884 19.4795C37.9661 20.5865 38.0329 21.7047 37.8549 22.7782C37.3541 25.8197 34.7281 27.9779 31.6458 27.9779C27.4174 28.0002 23.189 28.0002 18.9606 28.0002ZM35.5181 7.74942C35.4513 6.94431 35.4959 6.1392 35.3178 5.37881C34.9061 3.62322 33.3705 2.56092 31.4121 2.56092C23.1556 2.56092 14.888 2.56092 6.63145 2.56092C6.44228 2.56092 6.24199 2.5721 6.05282 2.58329C4.35034 2.70629 2.94829 3.91396 2.64785 5.59127C2.51432 6.29575 2.55883 7.03377 2.52545 7.73824C6.20861 8.66636 7.64404 11.6967 7.63291 14.0338C7.61066 16.4491 6.11959 19.3676 2.55883 20.2734C2.55883 20.7654 2.5477 21.2686 2.55883 21.7718C2.58108 22.7223 2.92603 23.5386 3.56029 24.2319C4.38372 25.1264 5.44082 25.4619 6.63145 25.4619C14.8768 25.4507 23.1222 25.4619 31.3676 25.4619C31.579 25.4619 31.7904 25.4619 31.9907 25.4283C33.5374 25.2494 34.6057 24.4219 35.1954 22.9795C35.5626 22.0961 35.418 21.168 35.4402 20.2622C31.668 19.3117 30.3328 16.1248 30.3884 13.8884C30.4552 11.0929 32.3357 8.47626 35.5181 7.74942Z" fill="#00A29A"/>
<path d="M22.3541 8.9126C22.3986 8.95733 22.4765 9.01324 22.5433 9.08033C23.0551 9.59471 23.567 10.0979 24.0455 10.5787C21.2191 13.419 18.4262 16.2257 15.6554 19.01C15.1213 18.4733 14.5427 17.8918 13.9863 17.3215C16.7459 14.5484 19.55 11.7417 22.3541 8.9126Z" fill="#00A29A"/>
<path d="M17.3245 10.6234C17.3133 11.5515 16.5122 12.323 15.5997 12.2895C14.6761 12.256 13.9529 11.4956 13.964 10.5675C13.9751 9.65052 14.7429 8.89014 15.6442 8.89014C16.5567 8.9125 17.3356 9.69525 17.3245 10.6234Z" fill="#00A29A"/>
<path d="M22.3988 19.0768C21.4752 19.088 20.6963 18.3164 20.6963 17.3771C20.6963 16.4713 21.4641 15.6886 22.3654 15.6886C23.2778 15.6774 24.0456 16.4266 24.0679 17.3436C24.1013 18.2828 23.3446 19.0656 22.3988 19.0768Z" fill="#00A29A"/>
</svg>
