<svg width="27" height="27" viewBox="0 0 27 27" fill="none" xmlns="http://www.w3.org/2000/svg">
<path d="M26.9996 5.11014C26.968 6.00943 26.631 6.76061 26.0097 7.38482C24.904 8.47456 23.7983 9.58545 22.7032 10.6858C18.1646 15.2457 13.6154 19.8057 9.08733 24.3868C8.3502 25.1274 7.54988 25.6246 6.52843 25.8151C4.74879 26.1642 2.97968 26.5874 1.21057 26.9683C0.420786 27.1376 -0.147857 26.5557 0.0311603 25.7728C0.494499 23.8578 0.957838 21.9534 1.42118 20.0384C1.57913 19.4036 1.90558 18.8852 2.36891 18.4197C7.08655 13.6799 11.8042 8.9295 16.5113 4.18968C17.5643 3.13169 18.6068 2.06311 19.6599 1.0157C21.0288 -0.338534 22.8717 -0.338534 24.2195 1.02628C24.8303 1.63992 25.4411 2.26413 26.0518 2.88835C26.6626 3.50199 26.9785 4.25316 26.9996 5.11014ZM2.23202 24.7994C3.68522 24.4926 5.05417 24.1858 6.43366 23.9001C6.86541 23.8155 7.20238 23.6039 7.50776 23.2971C12.1833 18.5996 16.8693 13.9021 21.5554 9.20457C21.6607 9.09877 21.787 9.0353 21.8502 8.9824C20.5866 7.7128 19.3861 6.49611 18.1435 5.2371C18.0698 5.32174 17.9855 5.43812 17.8908 5.54391C13.4153 10.0404 8.95043 14.558 4.45394 19.0228C3.70628 19.7739 3.19029 20.5569 3.00074 21.6043C2.80066 22.6517 2.50581 23.6779 2.23202 24.7994ZM23.2086 7.43772C23.7457 6.91931 24.3249 6.41147 24.8514 5.84015C25.2515 5.40637 25.2305 4.79274 24.8198 4.36954C24.1353 3.63952 23.4192 2.94125 22.6926 2.25355C22.2819 1.87267 21.6501 1.86209 21.25 2.23239C20.6813 2.76139 20.1548 3.33271 19.6388 3.85112C20.8393 5.05724 22.0292 6.26335 23.2086 7.43772Z" fill="white"/>
</svg>
