<svg width="24" height="24" viewBox="0 0 24 24" fill="none" xmlns="http://www.w3.org/2000/svg">
<g clip-path="url(#clip0_476_3333)">
<path d="M6.56218 22.7427C6.54174 22.9104 6.53492 23.0431 6.50767 23.1688C6.38501 23.6647 5.96934 23.993 5.42419 24C3.99319 24.007 2.56218 24.007 1.13118 24C0.436116 23.993 0 23.5041 0 22.7567C0 20.1723 0 17.5879 0 15.0035C0 13.2154 0 11.4273 0 9.63214C0 8.77999 0.429302 8.34693 1.26065 8.34693C2.55537 8.34693 3.85009 8.35392 5.1448 8.34693C5.52641 8.34693 5.89438 8.35392 6.20102 8.65426C6.41908 8.33296 6.63032 8.03261 6.83475 7.73226C8.29983 5.58791 9.76491 3.44356 11.23 1.2992C12.2589 -0.209526 14.0375 -0.447011 15.3663 0.78931C16.7564 2.07452 17.1584 3.66009 16.6133 5.49711C16.3612 6.34926 16.0681 7.18744 15.7956 8.02563C15.7615 8.12341 15.7411 8.2212 15.707 8.34693C15.8228 8.34693 15.9182 8.34693 16.0068 8.34693C17.4719 8.34693 18.937 8.34693 20.402 8.34693C22.4532 8.34693 23.9864 9.91852 23.9932 12.021C24 12.8731 24.0409 13.7392 23.7547 14.5565C23.6593 14.8289 23.5503 15.0943 23.4276 15.3527C22.1601 17.9651 20.8722 20.5774 19.6116 23.1967C19.339 23.7555 18.9438 24.007 18.3373 24.007C15.2027 24 12.0681 24 8.93356 24.007C8.5724 24.007 8.25213 23.9162 7.9523 23.6997C7.50937 23.3714 7.046 23.071 6.56218 22.7427ZM13.431 21.7579C14.8279 21.7579 16.2249 21.7509 17.6218 21.7649C17.8126 21.7649 17.9012 21.702 17.983 21.5274C19.0324 19.3621 20.0613 17.1898 21.1516 15.0524C21.6286 14.1164 21.8535 13.1805 21.8262 12.1257C21.8058 11.2806 21.2675 10.5611 20.3135 10.5821C18.3237 10.617 16.3271 10.5961 14.3373 10.5891C13.3765 10.5891 12.8927 9.89757 13.1925 8.9616C13.6491 7.55764 14.1124 6.15368 14.5554 4.74274C14.8279 3.87662 14.5554 2.96859 13.8876 2.43075C13.5332 2.14437 13.2811 2.1793 13.029 2.54949C10.9029 5.66474 8.77002 8.77999 6.64395 11.9022C6.57581 12 6.53492 12.1397 6.53492 12.2585C6.52811 14.78 6.53492 17.3015 6.52811 19.83C6.52811 19.9907 6.58262 20.0815 6.7121 20.1653C7.44123 20.6543 8.15673 21.1572 8.88586 21.6391C8.99489 21.709 9.13799 21.7509 9.26065 21.7509C10.6576 21.7649 12.0409 21.7579 13.431 21.7579ZM2.20102 10.5961C2.20102 14.333 2.20102 18.0349 2.20102 21.7369C2.93015 21.7369 3.63884 21.7369 4.34753 21.7369C4.34753 18.014 4.34753 14.312 4.34753 10.5961C3.62521 10.5961 2.91652 10.5961 2.20102 10.5961Z" fill="white"/>
</g>
<defs>
<clipPath id="clip0_476_3333">
<rect width="24" height="24" fill="white"/>
</clipPath>
</defs>
</svg>
