<svg width="22" height="26" viewBox="0 0 22 26" fill="none" xmlns="http://www.w3.org/2000/svg">
<g clip-path="url(#clip0_596_13627)">
<path d="M11.4379 0C11.7794 0.0698242 12.1274 0.126953 12.4689 0.203125C14.8081 0.742676 16.8057 2.93897 17.1215 5.29395C17.3277 6.84277 17.1022 8.30273 16.2129 9.61035C15.0336 11.3496 13.4033 12.3589 11.2445 12.5049C8.4156 12.6953 6.08286 11.0513 5.02603 8.82324C4.03365 6.72852 4.43318 3.94189 5.99264 2.20898C6.94636 1.14893 8.09984 0.412598 9.52398 0.126953C9.76885 0.0761719 10.0137 0.0380859 10.2522 0C10.6517 0 11.0448 0 11.4379 0ZM15.6523 6.25244C15.6394 3.61816 13.5064 1.51709 10.8321 1.52344C8.15784 1.52979 6.02486 3.63721 6.0313 6.27148C6.03775 8.89941 8.19006 11.0195 10.8514 11.0005C13.5257 10.9878 15.6652 8.87402 15.6523 6.25244Z" fill="white"/>
<path d="M11.0124 26.0002C8.91811 26.0002 6.81735 26.0002 4.72303 26.0002C3.65976 26.0002 2.66093 25.7907 1.77809 25.175C0.766375 24.4704 0.167077 23.4929 0.0639722 22.2932C-0.12935 20.135 0.128413 18.0148 0.953253 15.9963C1.443 14.7966 2.17762 13.7683 3.38266 13.1335C4.13662 12.7399 4.94213 12.5495 5.7863 12.5685C6.0505 12.5749 6.33404 12.7082 6.57247 12.8415C6.96556 13.051 7.32643 13.3112 7.70663 13.5397C9.91694 14.8791 12.1273 14.8791 14.3311 13.527C14.6275 13.343 14.9369 13.1716 15.214 12.9621C15.7553 12.5622 16.3546 12.5114 16.999 12.6066C18.6809 12.8605 19.873 13.7683 20.685 15.2092C21.426 16.5295 21.7547 17.9641 21.9093 19.4494C21.9867 20.2111 22.0189 20.9855 22.0124 21.7536C21.9867 24.0261 20.3821 25.7209 18.0816 25.9494C17.7851 25.9811 17.4823 25.9938 17.1794 25.9938C15.1173 26.0002 13.0616 26.0002 11.0124 26.0002ZM10.9802 24.4768C13.1647 24.4704 15.3428 24.4894 17.5274 24.4704C19.3704 24.4514 20.4852 23.3088 20.4594 21.4997C20.453 20.8332 20.4272 20.1603 20.3499 19.5002C20.2145 18.2941 19.9568 17.1135 19.3639 16.0344C18.7453 14.9108 17.856 14.1872 16.5157 14.111C16.4061 14.1047 16.2708 14.1301 16.1806 14.1872C15.7939 14.4157 15.4137 14.6696 15.0271 14.9045C13.9574 15.5583 12.7974 15.9582 11.5473 16.0534C9.84606 16.1804 8.28659 15.7233 6.85601 14.8283C6.51448 14.6125 6.17939 14.3967 5.83785 14.1872C5.76696 14.1428 5.68319 14.0983 5.60586 14.1047C4.77458 14.1428 4.02063 14.403 3.42777 14.9997C2.93158 15.4948 2.5836 16.0852 2.33228 16.7326C1.68788 18.3767 1.52677 20.1032 1.57188 21.8425C1.59766 22.8073 2.02297 23.5881 2.89291 24.0832C3.45999 24.4069 4.08507 24.4894 4.72947 24.4894C6.80446 24.4768 8.89233 24.4768 10.9802 24.4768Z" fill="white"/>
</g>
<defs>
<clipPath id="clip0_596_13627">
<rect width="22" height="26" fill="white"/>
</clipPath>
</defs>
</svg>
