<svg width="28" height="21" viewBox="0 0 28 21" fill="none" xmlns="http://www.w3.org/2000/svg">
<g clip-path="url(#clip0_4_1923)">
<path d="M28 13.0401C27.9658 13.597 27.9248 14.154 27.8907 14.7177C27.836 15.5666 27.7745 16.4088 27.5627 17.2442C27.0844 19.078 25.998 20.2937 24.0781 20.6197C23.3197 20.7487 22.5407 20.7759 21.7687 20.8031C19.2474 20.8913 16.7262 21.0272 14.205 21.0068C11.0893 20.9796 7.98047 20.8302 4.87163 20.7012C3.9424 20.6604 3.03366 20.4567 2.22742 19.9337C1.25035 19.2953 0.737909 18.358 0.457772 17.2578C0.109309 15.8994 0.109309 14.5139 0.0614809 13.1352C-0.027343 10.4049 -0.0341756 7.66786 0.239129 4.94438C0.34845 3.85091 0.628587 2.78461 1.33235 1.8949C2.02244 1.00518 2.93801 0.44826 4.05172 0.339592C5.50707 0.196966 6.97608 0.101882 8.43825 0.0747153C11.3763 0.0203815 14.3211 -0.0135771 17.2591 0.0135898C19.3431 0.0339649 21.427 0.156216 23.511 0.278467C24.8502 0.359968 25.9912 0.903305 26.8111 2.00356C27.2894 2.64878 27.549 3.40266 27.6584 4.18371C27.795 5.22284 27.8565 6.26877 27.9453 7.31469C27.9658 7.53882 27.9795 7.76295 28 7.98707C28 9.67142 28 11.3558 28 13.0401ZM14.6149 1.54852C12.039 1.60964 10.0781 1.6436 8.12395 1.71152C6.93508 1.75227 5.73937 1.8066 4.5505 1.91527C3.40946 2.01036 2.58271 2.57407 2.18642 3.7015C1.90628 4.50971 1.81746 5.3383 1.76963 6.18047C1.60565 9.06016 1.59198 11.9331 1.77646 14.8128C1.82429 15.5463 1.94728 16.2866 2.0976 17.0065C2.19325 17.4819 2.39823 17.9302 2.76719 18.2833C3.25231 18.7452 3.85358 18.9421 4.49584 19.0032C5.45924 19.0983 6.4158 19.173 7.3792 19.2138C11.7862 19.3904 16.1933 19.4311 20.6003 19.2206C21.6525 19.173 22.7116 19.1255 23.757 19.0032C24.7203 18.8878 25.4036 18.358 25.7589 17.4276C26.1005 16.5379 26.1825 15.621 26.2372 14.6905C26.3807 12.2183 26.3943 9.75292 26.285 7.28073C26.2372 6.17368 26.244 5.05305 25.9161 3.97316C25.7452 3.40266 25.5198 2.87291 25.021 2.49257C24.4265 2.04431 23.7365 1.8949 23.019 1.86773C20.0195 1.73869 17.0132 1.63681 14.6149 1.54852Z" fill="black"/>
<path d="M10.4539 10.1604C10.4539 9.10766 10.4539 8.06173 10.4539 7.00901C10.4539 5.9563 11.3216 5.43333 12.2509 5.93592C14.2323 7.00901 16.2069 8.0889 18.1884 9.16199C18.6257 9.3997 18.899 9.7325 18.899 10.2351C18.8921 10.7377 18.6052 11.0637 18.1679 11.2946C16.1933 12.3405 14.2255 13.4 12.2509 14.4527C11.3148 14.9485 10.4539 14.4392 10.4471 13.3932C10.4539 12.3134 10.4539 11.2403 10.4539 10.1604ZM16.7125 10.2215C15.1547 9.37254 13.6447 8.55074 12.1142 7.72215C12.1142 9.38612 12.1142 11.0161 12.1142 12.6801C13.6447 11.8583 15.1547 11.0569 16.7125 10.2215Z" fill="black"/>
</g>
<defs>
<clipPath id="clip0_4_1923">
<rect width="28" height="21" fill="white"/>
</clipPath>
</defs>
</svg>
