<svg width="22" height="26" viewBox="0 0 22 26" fill="none" xmlns="http://www.w3.org/2000/svg">
<g clip-path="url(#clip0_4_1912)">
<path d="M11.4382 0C11.7797 0.0698242 12.1277 0.126953 12.4692 0.203125C14.8084 0.742676 16.8061 2.93897 17.1218 5.29395C17.3281 6.84277 17.1025 8.30273 16.2132 9.61035C15.034 11.3496 13.4036 12.3589 11.2449 12.5049C8.41594 12.6953 6.08319 11.0513 5.02637 8.82324C4.03398 6.72852 4.43352 3.94189 5.99297 2.20898C6.94669 1.14893 8.10018 0.412598 9.52431 0.126953C9.76919 0.0761719 10.0141 0.0380859 10.2525 0C10.652 0 11.0451 0 11.4382 0ZM15.6526 6.25244C15.6397 3.61816 13.5067 1.51709 10.8325 1.52344C8.15817 1.52979 6.02519 3.63721 6.03164 6.27148C6.03808 8.89941 8.19039 11.0195 10.8518 11.0005C13.5261 10.9878 15.6655 8.87402 15.6526 6.25244Z" fill="black"/>
<path d="M11.0129 25.9999C8.91857 25.9999 6.8178 25.9999 4.72349 25.9999C3.66022 25.9999 2.66139 25.7905 1.77855 25.1748C0.766833 24.4702 0.167535 23.4926 0.06443 22.2929C-0.128892 20.1347 0.128871 18.0146 0.95371 15.996C1.44346 14.7963 2.17808 13.768 3.38312 13.1332C4.13708 12.7397 4.94258 12.5493 5.78676 12.5683C6.05096 12.5747 6.3345 12.708 6.57293 12.8413C6.96602 13.0507 7.32689 13.311 7.70708 13.5395C9.9174 14.8789 12.1277 14.8789 14.3316 13.5268C14.628 13.3427 14.9373 13.1713 15.2144 12.9619C15.7557 12.562 16.355 12.5112 16.9994 12.6064C18.6813 12.8603 19.8735 13.768 20.6854 15.2089C21.4265 16.5292 21.7551 17.9638 21.9098 19.4492C21.9871 20.2109 22.0193 20.9853 22.0129 21.7534C21.9871 24.0258 20.3826 25.7206 18.082 25.9492C17.7856 25.9809 17.4827 25.9936 17.1799 25.9936C15.1178 25.9999 13.0621 25.9999 11.0129 25.9999ZM10.9807 24.4765C13.1652 24.4702 15.3433 24.4892 17.5278 24.4702C19.3708 24.4511 20.4857 23.3085 20.4599 21.4995C20.4534 20.833 20.4277 20.1601 20.3503 19.4999C20.215 18.2939 19.9572 17.1132 19.3644 16.0341C18.7458 14.9106 17.8565 14.187 16.5161 14.1108C16.4066 14.1044 16.2712 14.1298 16.181 14.187C15.7944 14.4155 15.4142 14.6694 15.0275 14.9042C13.9578 15.5581 12.7979 15.958 11.5477 16.0532C9.84651 16.1801 8.28705 15.7231 6.85647 14.8281C6.51493 14.6123 6.17984 14.3964 5.83831 14.187C5.76742 14.1425 5.68365 14.0981 5.60632 14.1044C4.77504 14.1425 4.02108 14.4028 3.42823 14.9995C2.93204 15.4946 2.58406 16.0849 2.33274 16.7324C1.68833 18.3764 1.52723 20.103 1.57234 21.8422C1.59812 22.8071 2.02342 23.5878 2.89337 24.083C3.46045 24.4067 4.08552 24.4892 4.72993 24.4892C6.80492 24.4765 8.89279 24.4765 10.9807 24.4765Z" fill="black"/>
</g>
<defs>
<clipPath id="clip0_4_1912">
<rect width="22" height="26" fill="white"/>
</clipPath>
</defs>
</svg>
