<svg width="32" height="32" viewBox="0 0 32 32" fill="none" xmlns="http://www.w3.org/2000/svg">
<circle cx="16" cy="16" r="16" fill="#454E64"/>
<path d="M18.6009 21.5481L13.2975 15.9925L18.6009 10.437C18.7274 10.3045 18.8278 10.1471 18.8963 9.97388C18.9647 9.80068 19 9.61504 19 9.42757C19 9.2401 18.9647 9.05446 18.8963 8.88126C18.8278 8.70806 18.7274 8.55069 18.6009 8.41813C18.4743 8.28556 18.3241 8.18041 18.1587 8.10867C17.9934 8.03692 17.8162 8 17.6372 8C17.4583 8 17.2811 8.03692 17.1157 8.10867C16.9504 8.18041 16.8002 8.28556 16.6736 8.41813L10.3998 14.9903C9.86673 15.5487 9.86673 16.4507 10.3998 17.0091L16.6736 23.5813C16.8001 23.714 16.9503 23.8193 17.1156 23.8912C17.281 23.963 17.4582 24 17.6372 24C17.8162 24 17.9935 23.963 18.1589 23.8912C18.3242 23.8193 18.4744 23.714 18.6009 23.5813C19.1203 23.0229 19.1339 22.1065 18.6009 21.5481Z" fill="white"/>
<path d="M18.6009 21.5481L13.2975 15.9925L18.6009 10.437C18.7274 10.3045 18.8278 10.1471 18.8963 9.97388C18.9647 9.80068 19 9.61504 19 9.42757C19 9.2401 18.9647 9.05446 18.8963 8.88126C18.8278 8.70806 18.7274 8.55069 18.6009 8.41813C18.4743 8.28556 18.3241 8.18041 18.1587 8.10867C17.9934 8.03692 17.8162 8 17.6372 8C17.4583 8 17.2811 8.03692 17.1157 8.10867C16.9504 8.18041 16.8002 8.28556 16.6736 8.41813L10.3998 14.9903C9.86673 15.5487 9.86673 16.4507 10.3998 17.0091L16.6736 23.5813C16.8001 23.714 16.9503 23.8193 17.1156 23.8912C17.281 23.963 17.4582 24 17.6372 24C17.8162 24 17.9935 23.963 18.1589 23.8912C18.3242 23.8193 18.4744 23.714 18.6009 23.5813C19.1203 23.0229 19.1339 22.1065 18.6009 21.5481Z" stroke="black"/>
</svg>
