<svg width="27" height="27" viewBox="0 0 27 27" fill="none" xmlns="http://www.w3.org/2000/svg">
<path d="M26.1511 27C17.7153 27 9.27944 27 0.843585 27C0.41652 26.8629 0.137083 26.5834 0 26.1563C0 19.6699 0 13.1836 0 6.69727C0.0210896 6.54961 0.0474517 6.40723 0.0685413 6.25957C0.627417 2.61562 3.63796 0.00527344 7.3181 0.00527344C13.4921 -2.32831e-10 19.6661 0.00527344 25.8453 0.00527344C25.9508 0.00527344 26.0562 0.00527344 26.1617 0.0316406C26.6995 0.147656 26.9947 0.564258 26.9947 1.20234C26.9947 9.36563 26.9895 17.5236 27 25.6869C27.0053 26.3408 26.7838 26.7891 26.1511 27ZM24.8752 3.04805C24.7645 3.1166 24.6801 3.16406 24.5905 3.22207C20.9578 5.64258 17.3304 8.06309 13.6977 10.4836C13.2232 10.8 12.7434 10.7947 12.3585 10.4836C11.9789 10.1725 11.8735 9.71895 12.0738 9.19688C12.3954 8.36367 12.5009 7.5041 12.3954 6.61289C12.0633 3.75469 9.22144 1.65059 6.4007 2.1832C3.84886 2.66836 2.10896 4.75664 2.10896 7.36172C2.10896 13.1098 2.10896 18.8578 2.10896 24.6059C2.10896 24.7008 2.10896 24.7904 2.10896 24.8854C9.71705 24.8854 17.2882 24.8854 24.8752 24.8854C24.8752 17.608 24.8752 10.3465 24.8752 3.04805ZM22.4341 2.1252C19.0598 2.1252 15.7592 2.1252 12.4165 2.1252C13.8348 3.60176 14.536 5.33672 14.5624 7.37754C17.1933 5.62148 19.7873 3.8918 22.4341 2.1252Z" fill="white"/>
<path d="M10.4922 17.7978C10.4922 16.6799 10.4922 15.5672 10.4922 14.4492C10.4922 13.7162 10.9245 13.289 11.6574 13.289C12.2901 13.289 12.928 13.2469 13.5555 13.3101C14.9052 13.442 15.9544 14.4492 16.0282 15.7992C16.1073 17.165 16.0968 18.5414 16.0177 19.9072C15.9386 21.2203 14.7523 22.2644 13.4342 22.3066C12.812 22.3277 12.1846 22.3224 11.5625 22.3119C10.9245 22.3013 10.4975 21.8637 10.4922 21.2203C10.4922 20.0865 10.4922 18.9422 10.4922 17.7978ZM12.617 20.2131C12.8384 20.2131 13.044 20.2183 13.2549 20.2131C13.6714 20.1972 13.9509 19.9599 13.9562 19.5486C13.972 18.3885 13.9667 17.2336 13.9562 16.0734C13.9509 15.7096 13.6978 15.4459 13.3604 15.4142C13.1178 15.3931 12.8753 15.409 12.6222 15.409C12.617 17.0174 12.617 18.5994 12.617 20.2131Z" fill="white"/>
<path d="M6.11599 18.8841C6.11599 19.6962 6.12654 20.4873 6.11072 21.2783C6.10018 22.0218 5.36731 22.5228 4.68717 22.2486C4.26538 22.0798 4.0123 21.7529 4.0123 21.2994C4.00176 18.9685 4.00176 16.6429 4.0123 14.3121C4.0123 13.7847 4.41828 13.3207 4.94025 13.3048C5.71002 13.2837 6.49034 13.2574 7.25483 13.347C8.5993 13.5052 9.62215 14.7708 9.57997 16.1156C9.53779 17.5183 8.49912 18.6785 7.14411 18.8261C6.81195 18.8683 6.47979 18.8683 6.11599 18.8841ZM6.12654 16.7378C6.40598 16.7378 6.66432 16.7642 6.91213 16.7326C7.24956 16.6904 7.47628 16.3898 7.46573 16.0681C7.46046 15.757 7.22847 15.4617 6.91213 15.4248C6.65378 15.3931 6.39543 15.4195 6.12654 15.4195C6.12654 15.8624 6.12654 16.2896 6.12654 16.7378Z" fill="white"/>
<path d="M19.5236 18.8684C19.5236 19.2639 19.5236 19.6225 19.5236 19.9811C19.5236 20.4293 19.5342 20.8775 19.5183 21.3258C19.4973 21.8689 19.0755 22.2908 18.5482 22.3172C17.9893 22.3488 17.5359 21.9902 17.441 21.4418C17.4199 21.3311 17.4199 21.215 17.4199 21.099C17.4199 18.9053 17.4199 16.7063 17.4199 14.5125C17.4199 13.7057 17.8312 13.2891 18.6326 13.2891C19.7029 13.2891 20.7732 13.2891 21.8487 13.2891C22.5183 13.2891 22.9929 13.7215 22.9981 14.3332C23.0034 14.9555 22.5289 15.3984 21.8487 15.3984C21.1791 15.3984 20.5148 15.3984 19.8452 15.3984C19.7503 15.3984 19.6554 15.3984 19.55 15.3984C19.55 15.852 19.55 16.2791 19.55 16.7379C19.6449 16.7432 19.7398 16.7537 19.8294 16.7537C20.5517 16.7537 21.2688 16.7484 21.9911 16.759C22.5131 16.7695 22.9243 17.1598 22.9929 17.666C23.0561 18.1459 22.7714 18.6311 22.3022 18.784C22.1387 18.8367 21.9595 18.8525 21.7855 18.8578C21.0368 18.8736 20.3039 18.8684 19.5236 18.8684Z" fill="white"/>
</svg>
