<svg width="18" height="19" viewBox="0 0 18 19" fill="none" xmlns="http://www.w3.org/2000/svg">
<path d="M16.6296 10.0413L15.9953 9.43851L16.6296 10.0413ZM8.52162 17.8108L7.88733 18.4135L8.52162 17.8108ZM9.24653 17.8108L8.61224 17.208L9.24653 17.8108ZM1.13854 10.0413L0.50425 10.644L1.13854 10.0413ZM5.83105 1.875H11.9377V0.125H5.83105V1.875ZM6.20605 8.69683V1.5H4.45605V8.69683H6.20605ZM1.501 10.0718H4.83105V8.32183H1.501V10.0718ZM9.15591 17.208L1.77283 9.43851L0.50425 10.644L7.88733 18.4135L9.15591 17.208ZM15.9953 9.43851L8.61224 17.208L9.88082 18.4135L17.2639 10.644L15.9953 9.43851ZM12.9377 10.0718H16.2672V8.32183H12.9377V10.0718ZM11.5627 1.5V8.69683H13.3127V1.5H11.5627ZM12.9377 8.32183C13.1448 8.32183 13.3127 8.48972 13.3127 8.69683H11.5627C11.5627 9.45622 12.1783 10.0718 12.9377 10.0718V8.32183ZM17.2639 10.644C18.0961 9.7682 17.4753 8.32183 16.2672 8.32183V10.0718C15.9377 10.0718 15.7683 9.67737 15.9953 9.43851L17.2639 10.644ZM7.88733 18.4135C8.4294 18.984 9.33875 18.984 9.88082 18.4135L8.61224 17.208C8.76007 17.0525 9.00807 17.0525 9.15591 17.208L7.88733 18.4135ZM1.501 8.32183C0.29284 8.32183 -0.327995 9.76819 0.50425 10.644L1.77283 9.43851C1.99981 9.67737 1.83049 10.0718 1.501 10.0718V8.32183ZM4.45605 8.69683C4.45605 8.48972 4.62395 8.32183 4.83105 8.32183V10.0718C5.59045 10.0718 6.20605 9.45622 6.20605 8.69683H4.45605ZM11.9377 1.875C11.7306 1.875 11.5627 1.70711 11.5627 1.5H13.3127C13.3127 0.740609 12.6971 0.125 11.9377 0.125V1.875ZM5.83105 0.125C5.07166 0.125 4.45605 0.740608 4.45605 1.5H6.20605C6.20605 1.70711 6.03816 1.875 5.83105 1.875V0.125Z" fill="#8795DE"/>
</svg>
