<svg width="32" height="28" viewBox="0 0 32 28" fill="none" xmlns="http://www.w3.org/2000/svg">
<path d="M0.933017 26.9337C0.771908 26.5792 0.80955 26.2407 0.938519 25.8755C2.28193 22.0184 3.62535 18.1613 4.95265 14.2988C5.01713 14.1161 5.01716 13.8798 4.95272 13.6972C3.61562 9.81353 2.26778 5.94065 0.925314 2.0624C0.742738 1.53599 0.817994 1.12772 1.1457 0.87521C1.48953 0.60658 1.8548 0.638765 2.23618 0.805243C3.96043 1.55171 5.69542 2.28743 7.41967 3.02315C15.1976 6.3527 22.9809 9.68762 30.7695 13.0279C31.5753 13.3716 31.7203 13.6455 31.5321 14.4674C31.4301 14.5695 31.3334 14.6662 31.2313 14.7683C31.0916 14.822 30.9573 14.8811 30.8176 14.9456C21.3413 19.0078 11.8704 23.0647 2.39949 27.1323C2.01807 27.2988 1.64741 27.4009 1.23917 27.2398C1.13175 27.1324 1.0297 27.0304 0.933017 26.9337ZM26.1498 13.0285C18.533 9.76336 10.927 6.509 3.25652 3.22242C4.41104 6.55814 5.54409 9.81867 6.66102 13.0309C13.177 13.0247 19.65 13.0293 26.1498 13.0285ZM26.1388 14.9623C26.1335 14.9462 26.1335 14.9354 26.1281 14.9193C26.0583 14.914 25.9884 14.9086 25.924 14.9086C19.5853 14.9094 13.2466 14.9102 6.91327 14.9056C6.70914 14.9056 6.64467 14.9915 6.58556 15.1688C5.84399 17.3176 5.09705 19.4718 4.35011 21.6152C3.99545 22.6466 3.63542 23.6727 3.25389 24.774C10.9252 21.4855 18.5266 18.2239 26.1388 14.9623Z" fill="#4197E5"/>
</svg>
