<svg width="27" height="20" viewBox="0 0 27 20" fill="none" xmlns="http://www.w3.org/2000/svg">
<g clip-path="url(#clip0_1092_6236)">
<path d="M13.4725 20.0001C10.5156 20.0001 7.56653 20.0001 4.60958 20.0001C2.30885 20.0001 0.450867 18.4745 0.0871772 16.1902C-0.0472298 15.3196 0.0160205 14.417 0.0239268 13.5304C0.0318331 13.0911 0.37971 12.8116 0.814556 12.7317C1.20987 12.6678 1.6289 12.6279 1.99259 12.4761C3.11529 12.0049 3.77151 10.7589 3.56595 9.57677C3.34457 8.29881 2.36419 7.35632 1.10709 7.29242C0.292741 7.26047 -0.0393235 6.8052 0.000207955 6.07836C0.0476457 5.27964 -0.0156046 4.47293 0.110896 3.69018C0.450867 1.59753 2.31675 0.0160618 4.43564 0.00807458C10.484 -0.00789986 16.5323 -0.00789986 22.5806 0.00807458C25.0394 0.0160618 26.9607 2.03683 27.0002 4.58475C27.0081 5.09593 27.0002 5.59913 27.0002 6.11031C27.0002 6.92501 26.7314 7.22053 25.917 7.28443C24.7864 7.37229 23.8614 8.10712 23.5214 9.1774C22.9996 10.8547 24.1539 12.58 25.8854 12.7078C26.7314 12.7717 27.0081 13.0592 26.9923 13.9138C26.9765 14.7046 27.0239 15.5033 26.8974 16.2701C26.5416 18.4426 24.6757 19.9841 22.4857 19.9841C19.4813 20.0001 16.4769 20.0001 13.4725 20.0001ZM25.2371 5.53523C25.1897 4.96015 25.2213 4.38507 25.0948 3.84194C24.8022 2.58795 23.7112 1.82916 22.3197 1.82916C16.4532 1.82916 10.5788 1.82916 4.71236 1.82916C4.57795 1.82916 4.43564 1.83715 4.30123 1.84514C3.09157 1.93299 2.09538 2.79561 1.88191 3.9937C1.78703 4.49689 1.81866 5.02405 1.79494 5.52724C4.41192 6.19018 5.43183 8.35472 5.42392 10.024C5.40811 11.7493 4.34867 13.834 1.81866 14.4809C1.81866 14.8324 1.81075 15.1918 1.81866 15.5512C1.83447 16.2301 2.07956 16.8132 2.53022 17.3084C3.11529 17.9474 3.86638 18.187 4.71236 18.187C10.5709 18.179 16.4295 18.187 22.288 18.187C22.4383 18.187 22.5885 18.187 22.7308 18.163C23.8298 18.0352 24.5888 17.4442 25.0078 16.4138C25.2687 15.7828 25.1659 15.1199 25.1817 14.4729C22.5015 13.794 21.5528 11.5177 21.5923 9.92022C21.6397 7.92341 22.9759 6.0544 25.2371 5.53523Z" fill="white"/>
<path d="M15.884 6.36621C15.9156 6.39816 15.971 6.4381 16.0184 6.48602C16.3821 6.85343 16.7458 7.21286 17.0858 7.55631C15.0776 9.58506 13.0931 11.5899 11.1244 13.5787C10.7449 13.1953 10.3338 12.7799 9.93848 12.3726C11.8992 10.3918 13.8916 8.38698 15.884 6.36621Z" fill="white"/>
<path d="M12.3106 7.58763C12.3027 8.25057 11.7335 8.80169 11.0852 8.77772C10.4289 8.75376 9.91504 8.21063 9.92294 7.54769C9.93085 6.89274 10.4764 6.34961 11.1168 6.34961C11.7651 6.36558 12.3185 6.92469 12.3106 7.58763Z" fill="white"/>
<path d="M15.9157 13.6263C15.2595 13.6343 14.7061 13.0831 14.7061 12.4122C14.7061 11.7652 15.2516 11.2061 15.892 11.2061C16.5403 11.1982 17.0858 11.7333 17.1017 12.3883C17.1254 13.0592 16.5878 13.6183 15.9157 13.6263Z" fill="white"/>
</g>
<defs>
<clipPath id="clip0_1092_6236">
<rect width="27" height="20" fill="white"/>
</clipPath>
</defs>
</svg>
