<svg width="32" height="32" viewBox="0 0 32 32" fill="none" xmlns="http://www.w3.org/2000/svg">
<path d="M32.0001 15.0393C32.0001 15.6356 32.0001 16.2981 32.0001 16.8944C32.0001 16.9606 31.9338 17.0931 31.9338 17.1594C31.8013 19.4119 31.205 21.532 30.0787 23.4534C27.5611 27.9585 23.7847 30.7411 18.7495 31.6687C18.1533 31.8012 17.4907 31.8674 16.8945 31.9337C16.2982 31.9337 15.6357 31.9337 15.0394 31.9337C14.9731 31.9337 14.9069 31.8674 14.7744 31.8674C12.5218 31.7349 10.4017 31.1387 8.48039 30.0786C3.24644 27.1635 0.397576 22.6583 6.07967e-05 16.6293C-0.198697 13.7142 0.463829 10.9979 1.85513 8.48027C4.8365 3.24632 9.34168 0.397454 15.3044 -6.12698e-05C18.2195 -0.198819 20.9359 0.463707 23.4535 1.85501C27.9587 4.30636 30.7413 8.14901 31.6688 13.1842C31.8676 13.8467 31.8676 14.443 32.0001 15.0393ZM15.9669 29.4823C23.3872 29.4823 29.4162 23.4534 29.4825 16.0331C29.4825 8.61278 23.4535 2.51754 15.9669 2.51754C8.54665 2.51754 2.51766 8.54652 2.45141 15.9668C2.51766 23.4534 8.54665 29.4823 15.9669 29.4823Z" fill="white"/>
<path d="M13.8469 18.4846C13.9131 18.3521 13.9794 18.2196 14.0456 18.1534C16.4307 15.7683 18.7495 13.4494 21.1346 11.0644C21.3997 10.7993 21.7309 10.6006 22.1284 10.6006C22.6585 10.6006 22.9897 10.7993 23.2547 11.2631C23.5197 11.7269 23.4535 12.1244 23.1885 12.5882C23.1222 12.7207 22.9897 12.7869 22.9235 12.9194C20.2071 15.6358 17.557 18.2859 14.8406 21.0022C14.1119 21.731 13.4493 21.731 12.7868 21.0022C11.528 19.7434 10.2692 18.4846 9.01042 17.2258C8.41414 16.6296 8.41414 15.9008 8.94416 15.3708C9.40793 14.907 10.1367 14.907 10.6667 15.3708C11.1305 15.7683 11.528 16.2321 11.9255 16.6296C12.5881 17.1596 13.1843 17.7559 13.8469 18.4846Z" fill="white"/>
</svg>
