<svg width="25" height="25" viewBox="0 0 25 25" fill="none" xmlns="http://www.w3.org/2000/svg">
<path fill-rule="evenodd" clip-rule="evenodd" d="M12.7049 0C11.7995 0 11.0656 0.733959 11.0656 1.63934V11.0655H1.63934C0.733959 11.0655 0 11.7994 0 12.7048C0 13.6102 0.733959 14.3442 1.63934 14.3442H11.0656V23.3607C11.0656 24.266 11.7995 25 12.7049 25C13.6103 25 14.3443 24.266 14.3443 23.3607V14.3442H23.3607C24.266 14.3442 25 13.6102 25 12.7048C25 11.7994 24.266 11.0655 23.3607 11.0655H14.3443V1.63934C14.3443 0.733959 13.6103 0 12.7049 0Z" fill="#00A29A"/>
</svg>
