<svg width="42" height="42" viewBox="0 0 42 42" fill="none" xmlns="http://www.w3.org/2000/svg">
<path fill-rule="evenodd" clip-rule="evenodd" d="M20.9799 9.84863C23.2959 9.84863 25.1405 11.8832 24.9355 14.1937C24.7265 16.5254 24.5263 18.8659 24.3267 21.1989L24.2797 21.7491C24.1259 23.5281 22.7732 24.7856 20.9901 24.7958C19.1866 24.7958 17.8134 23.5281 17.6699 21.7389C17.4649 19.2238 17.2395 16.6986 17.014 14.1835C16.8193 11.8832 18.6742 9.84863 20.9799 9.84863ZM20.9696 32.5553C19.1148 32.5962 17.8133 31.3386 17.7723 29.437C17.7211 27.5967 18.9918 26.2063 20.7544 26.1756C22.8654 26.1347 24.1772 27.3207 24.1977 29.3143C24.2079 30.8581 23.3163 32.6064 20.9696 32.5553Z" fill="#9CA0AB"/>
<circle cx="21" cy="21" r="20" stroke="#9CA0AB" stroke-width="2"/>
</svg>
