<svg width="21" height="21" viewBox="0 0 21 21" fill="none" xmlns="http://www.w3.org/2000/svg">
<path d="M21 5.32569C20.8687 5.67395 20.7841 6.0494 20.5969 6.36433C20.1328 7.14703 19.4138 7.57479 18.5061 7.61018C17.6189 7.64506 16.7291 7.62865 15.8404 7.61788C15.3932 7.61224 15.0542 7.24653 15.0512 6.80902C15.0481 6.36228 15.3901 5.99504 15.8481 5.98683C16.5179 5.97452 17.1881 5.98273 17.8579 5.98221C17.9323 5.98221 18.0071 5.98221 18.1451 5.98221C17.8876 5.62061 17.6728 5.28312 17.4225 4.97383C16.0881 3.32689 14.387 2.25542 12.3085 1.83022C9.79 1.31526 7.45815 1.79534 5.3622 3.2915C3.60729 4.54453 2.43341 6.22225 1.91391 8.32107C1.2862 10.8559 1.68109 13.2455 3.13958 15.4105C4.58987 17.5627 6.62633 18.8629 9.20281 19.2547C9.8059 19.3465 10.428 19.3137 11.0418 19.3373C11.2049 19.3435 11.3721 19.323 11.53 19.3537C11.9352 19.4322 12.206 19.802 12.1757 20.2041C12.1449 20.6083 11.8239 20.9268 11.4152 20.9607C11.287 20.9714 11.1588 20.9868 11.0305 20.9997C10.6475 20.9997 10.2649 20.9997 9.8818 20.9997C9.81513 20.9873 9.74897 20.972 9.68231 20.9632C9.29666 20.9125 8.90639 20.8842 8.52535 20.8109C6.24991 20.3739 4.31653 19.3024 2.7606 17.5898C0.660547 15.2787 -0.233834 12.5418 0.0518144 9.43973C0.254384 7.23986 1.08415 5.27645 2.56111 3.63053C5.21861 0.669509 8.54382 -0.496331 12.4593 0.192505C15.0737 0.652583 17.1886 2.01076 18.8246 4.10446C18.9995 4.32808 19.16 4.563 19.3595 4.83638C19.3595 4.72148 19.3595 4.65634 19.3595 4.59172C19.3595 3.92135 19.3548 3.25149 19.362 2.58112C19.3661 2.22772 19.5354 1.9646 19.8631 1.82509C20.1831 1.68866 20.4897 1.74354 20.7349 1.98409C20.8513 2.09847 20.9133 2.26773 21.0005 2.41237C21 3.38331 21 4.35475 21 5.32569Z" fill="white"/>
<path d="M11.3176 7.22071C11.3176 8.28756 11.315 9.35389 11.3192 10.4207C11.3202 10.6972 11.2289 10.927 11.035 11.1203C9.98066 12.1739 8.92986 13.231 7.87138 14.2804C7.37752 14.7702 6.62929 14.5917 6.45801 13.9496C6.37288 13.63 6.47493 13.3577 6.70417 13.1279C7.00828 12.8227 7.3129 12.5185 7.61752 12.2139C8.26062 11.5707 8.90114 10.926 9.54834 10.2869C9.64475 10.192 9.6786 10.0966 9.6786 9.96426C9.67501 7.98135 9.67552 5.99845 9.67655 4.01555C9.67655 3.59035 9.87399 3.2826 10.2176 3.16002C10.7632 2.96511 11.3109 3.35748 11.315 3.95913C11.3222 4.92339 11.3171 5.88715 11.3171 6.85142C11.3176 6.97451 11.3176 7.09761 11.3176 7.22071Z" fill="white"/>
<path d="M14.5157 20.1562C14.1393 20.1336 13.8301 19.8926 13.7296 19.5315C13.6342 19.1868 13.7752 18.8129 14.0937 18.6313C14.366 18.4764 14.647 18.3338 14.9337 18.2077C15.3332 18.0323 15.7881 18.2041 15.9809 18.5847C16.1727 18.9627 16.0563 19.4207 15.686 19.6418C15.4117 19.8059 15.1193 19.9418 14.8296 20.0788C14.7347 20.1244 14.6214 20.1316 14.5157 20.1562Z" fill="white"/>
<path d="M18.9766 13.2213C19.053 12.9597 19.1381 12.5493 19.2955 12.1688C19.4443 11.8102 19.8822 11.6671 20.2551 11.7887C20.6207 11.9082 20.8689 12.2642 20.8033 12.6448C20.7433 12.9925 20.6546 13.3392 20.5392 13.6731C20.4099 14.047 20.0202 14.2271 19.6058 14.1491C19.2494 14.0824 18.9817 13.7501 18.9766 13.2213Z" fill="white"/>
<path d="M19.1704 16.2955C19.0919 16.4643 19.033 16.6469 18.9304 16.7992C18.7858 17.0136 18.6119 17.2085 18.4447 17.4065C18.1391 17.7691 17.6457 17.8286 17.2929 17.5511C16.9344 17.269 16.8703 16.7802 17.156 16.4007C17.3365 16.1606 17.5268 15.9273 17.7278 15.7047C17.9524 15.4564 18.3063 15.3867 18.6114 15.5077C18.9258 15.6323 19.1263 15.9308 19.1704 16.2955Z" fill="white"/>
</svg>
