<svg width="40" height="45" viewBox="0 0 40 45" fill="none" xmlns="http://www.w3.org/2000/svg">
<g clip-path="url(#clip0_1_10)">
<path d="M32.2695 45C24.0933 45 15.9172 45 7.74105 45C7.70843 44.978 7.67581 44.9341 7.63232 44.9341C5.53393 44.6595 3.39204 42.7154 3.47902 39.7718C3.48989 39.4752 3.47902 39.1677 3.47902 38.8711C1.38062 38.8272 0.0215578 37.3334 0.0106853 35.4442C-0.000187216 31.8086 -0.0110597 28.184 0.0106853 24.5484C0.0215578 23.1425 0.652164 22.0661 1.93512 21.462C2.39177 21.2424 2.92452 21.1875 3.47902 21.0337C3.47902 20.9129 3.47902 20.7371 3.47902 20.5614C3.47902 15.432 3.47902 10.3136 3.47902 5.18428C3.47902 2.14181 5.58829 0.0109836 8.61085 0.0109836C14.2972 0 19.9726 0.0109836 25.659 0C27.192 0 28.475 0.527215 29.5513 1.62558C31.3344 3.44886 33.1284 5.26117 34.9332 7.06248C36.0205 8.14987 36.5424 9.44594 36.5424 10.9946C36.5206 14.2019 36.5424 17.4091 36.5424 20.6163C36.5424 20.7701 36.5424 20.9348 36.5424 21.0996C36.6946 21.1216 36.8033 21.1545 36.912 21.1655C38.5103 21.2314 39.9998 22.5824 40.0107 24.5924C40.0107 28.195 40.0216 31.7977 40.0107 35.4003C40.0107 36.5646 39.5649 37.5311 38.619 38.2341C38.021 38.6734 37.3252 38.8601 36.5424 38.8601C36.5424 39.2995 36.5641 39.7059 36.5424 40.1123C36.4445 42.1113 35.5203 43.5831 33.7481 44.4838C33.2806 44.7254 32.7587 44.8243 32.2695 45ZM26.0069 2.64706C25.8221 2.64706 25.6807 2.64706 25.5394 2.64706C19.9183 2.64706 14.2972 2.64706 8.67609 2.64706C7.02346 2.64706 6.08843 3.58067 6.08843 5.25018C6.08843 10.3686 6.08843 15.4979 6.08843 20.6163C6.08843 20.7701 6.08843 20.9348 6.08843 21.0996C15.3844 21.0996 24.637 21.0996 33.8895 21.0996C33.8895 17.6837 33.8895 14.3007 33.8895 10.8958C32.3021 10.8958 30.7582 10.8958 29.2034 10.8958C27.2137 10.8958 26.0178 9.68758 26.0069 7.66659C26.0069 6.01904 26.0069 4.37149 26.0069 2.64706ZM19.9835 36.2131C25.4198 36.2131 30.856 36.2131 36.2923 36.2131C37.2165 36.2131 37.3904 36.0373 37.3904 35.1257C37.3904 31.6988 37.3904 28.2719 37.3904 24.845C37.3904 23.9773 37.1947 23.7796 36.3467 23.7796C25.4524 23.7796 14.5472 23.7796 3.65298 23.7796C2.80492 23.7796 2.62009 23.9773 2.62009 24.856C2.62009 28.2829 2.62009 31.7098 2.62009 35.1367C2.62009 36.0373 2.80492 36.2241 3.6856 36.2241C9.11099 36.2131 14.5472 36.2131 19.9835 36.2131ZM6.08843 38.8601C6.08843 39.1896 6.08843 39.4752 6.08843 39.7718C6.08843 41.4083 7.02346 42.3639 8.65434 42.3639C16.2216 42.3639 23.7889 42.3639 31.3562 42.3639C31.6062 42.3639 31.8563 42.3639 32.0846 42.309C33.5959 41.9356 34.1613 40.6395 33.846 38.8711C24.6261 38.8601 15.3953 38.8601 6.08843 38.8601ZM28.6163 4.51428C28.6163 5.63461 28.6272 6.72199 28.6163 7.79839C28.6163 8.13888 28.7576 8.27069 29.0947 8.2597C29.8884 8.24872 30.6929 8.2597 31.4866 8.2597C31.7693 8.2597 32.052 8.2597 32.3021 8.2597C31.0626 7.00757 29.8558 5.7774 28.6163 4.51428Z" fill="#FFADB1"/>
<path d="M17.1895 30.0293C17.1895 28.6673 17.2003 27.3053 17.1895 25.9434C17.1895 25.515 17.3417 25.1745 17.7548 25.1416C19.1248 25.0317 20.5056 24.9109 21.8538 25.2953C23.0497 25.6468 23.6804 26.5365 23.7238 27.7667C23.7782 29.2714 23.7782 30.7762 23.7238 32.2809C23.6695 33.8186 22.6148 34.8072 20.9622 34.928C19.9837 34.9939 18.9943 34.9719 18.0049 34.95C17.4178 34.939 17.1895 34.6644 17.1895 34.0493C17.1895 32.7203 17.1895 31.3803 17.1895 30.0293ZM19.3096 26.9539C19.3096 29.0188 19.3096 31.0618 19.3096 33.1267C19.6466 33.1267 19.9402 33.1267 20.2446 33.1267C21.2993 33.1267 21.6472 32.7862 21.6581 31.7098C21.6689 30.6004 21.6689 29.4911 21.6581 28.3817C21.6581 28.173 21.6363 27.9753 21.5928 27.7776C21.5058 27.3053 21.2232 27.0088 20.7556 26.9648C20.2881 26.9319 19.8206 26.9539 19.3096 26.9539Z" fill="#FFADB1"/>
<path d="M11.6553 31.3693C11.6553 32.2919 11.6445 33.1377 11.6553 33.9834C11.6662 34.4228 11.5684 34.7523 11.1008 34.8951C10.579 35.0488 9.90486 34.95 9.68741 34.6314C9.60043 34.5106 9.56781 34.3349 9.56781 34.1811C9.55694 31.4023 9.56781 28.6234 9.55694 25.8445C9.55694 25.4711 9.70916 25.1635 10.0679 25.1416C11.5357 25.0537 13.0253 24.8889 14.4605 25.3173C15.4064 25.5919 15.9935 26.2949 16.1674 27.2834C16.3523 28.3268 16.3414 29.3703 15.6782 30.2709C15.1345 31.0068 14.33 31.3034 13.4493 31.3693C12.8731 31.4023 12.2859 31.3693 11.6553 31.3693ZM11.6771 26.899C11.6771 27.8985 11.6771 28.8211 11.6771 29.7767C12.1881 29.7767 12.6774 29.8096 13.1666 29.7657C13.7211 29.7218 14.0256 29.4362 14.1125 28.909C14.2104 28.239 14.3082 27.558 13.645 27.0857C13.5689 27.0308 13.4602 26.9868 13.3623 26.9868C12.8078 26.9429 12.2533 26.9209 11.6771 26.899Z" fill="#FFADB1"/>
<path d="M27.2139 26.9209C27.2139 27.7008 27.2139 28.4147 27.2139 29.2055C27.8119 29.2055 28.399 29.1945 28.9861 29.2055C29.6059 29.2165 29.9429 29.6449 29.8124 30.249C29.7255 30.6444 29.4863 30.8531 29.0731 30.8421C28.4642 30.8421 27.8554 30.8421 27.2139 30.8421C27.203 31.0288 27.1922 31.1826 27.1922 31.3363C27.1922 32.248 27.1922 33.1486 27.1922 34.0603C27.1922 34.6424 26.9856 34.8841 26.4202 34.961C26.268 34.9829 26.1049 34.9829 25.9418 34.9719C25.3221 34.906 25.1046 34.6644 25.1046 34.0383C25.1046 31.3803 25.1046 28.7113 25.1046 26.0532C25.1046 26.0093 25.1046 25.9653 25.1046 25.9214C25.1264 25.4162 25.2895 25.2185 25.8005 25.1306C25.9418 25.1086 26.0832 25.0866 26.2354 25.0866C27.6271 25.0866 29.0188 25.0866 30.4104 25.0866C30.7584 25.0866 31.0845 25.1416 31.215 25.526C31.3563 25.9434 31.3781 26.3827 31.0628 26.7232C30.9323 26.855 30.6822 26.9099 30.4757 26.9209C29.5624 26.9429 28.6491 26.9319 27.7358 26.9319C27.551 26.9209 27.3987 26.9209 27.2139 26.9209Z" fill="#FFADB1"/>
</g>
<g clip-path="url(#clip1_1_10)">
<path d="M17.6288 12.9968C17.6288 12.9071 17.6288 12.8411 17.6288 12.775C17.6288 11.5146 17.6284 10.2543 17.6288 8.99388C17.6293 8.3512 17.9957 8.00174 18.6695 8.00084C19.2374 7.99995 19.8053 7.99906 20.3731 8.00129C20.9888 8.00397 21.3693 8.36459 21.3702 8.95148C21.3726 10.2284 21.3712 11.5057 21.3712 12.7826C21.3712 12.8482 21.3712 12.9134 21.3712 12.9964C21.4527 12.9964 21.5155 12.9964 21.5783 12.9964C22.1813 12.9964 22.7843 12.9982 23.3874 12.9955C23.6474 12.9946 23.8442 13.0923 23.9492 13.3217C24.0551 13.5525 23.9895 13.7556 23.8109 13.9336C22.521 15.2199 21.2325 16.5075 19.9416 17.7929C19.6619 18.0714 19.3353 18.0678 19.0537 17.7866C17.767 16.5048 16.4827 15.2212 15.1961 13.9399C15.0176 13.7622 14.9449 13.5623 15.0476 13.3298C15.1525 13.0923 15.354 12.9941 15.6211 12.9955C16.2822 12.9991 16.9429 12.9968 17.6288 12.9968Z" fill="#FFADB1"/>
</g>
<defs>
<clipPath id="clip0_1_10">
<rect width="40" height="45" fill="white"/>
</clipPath>
<clipPath id="clip1_1_10">
<rect width="9" height="10" fill="white" transform="translate(15 8)"/>
</clipPath>
</defs>
</svg>
