<svg width="35" height="39" viewBox="0 0 35 39" fill="none" xmlns="http://www.w3.org/2000/svg">
<path d="M28.2364 39C21.0823 39 13.9282 39 6.77408 39C6.74554 38.981 6.717 38.9429 6.67894 38.9429C4.84285 38.7049 2.96869 37.02 3.0448 34.4689C3.05432 34.2119 3.0448 33.9453 3.0448 33.6883C1.2087 33.6502 0.0195221 32.3556 0.0100086 30.7183C0.000495175 27.5675 -0.00901828 24.4262 0.0100086 21.2753C0.0195221 20.0569 0.571303 19.124 1.69389 18.6004C2.09346 18.4101 2.55962 18.3625 3.0448 18.2292C3.0448 18.1245 3.0448 17.9722 3.0448 17.8199C3.0448 13.3744 3.0448 8.93849 3.0448 4.49304C3.0448 1.85624 4.89041 0.00951916 7.53515 0.00951916C12.5107 0 17.4767 0.00951916 22.4523 0C23.7937 0 24.9162 0.45692 25.8581 1.40884C27.4183 2.98902 28.988 4.55968 30.5672 6.12082C31.5186 7.06322 31.9752 8.18648 31.9752 9.52868C31.9562 12.3083 31.9752 15.0879 31.9752 17.8675C31.9752 18.0007 31.9752 18.1435 31.9752 18.2863C32.1084 18.3053 32.2036 18.3339 32.2987 18.3434C33.6972 18.4005 35.0005 19.5714 35.01 21.3134C35.01 24.4357 35.0195 27.558 35.01 30.6803C35.01 31.6893 34.62 32.527 33.7923 33.1362C33.2691 33.517 32.6602 33.6788 31.9752 33.6788C31.9752 34.0596 31.9943 34.4118 31.9752 34.764C31.8896 36.4965 31.081 37.772 29.5303 38.5526C29.1212 38.762 28.6645 38.8477 28.2364 39ZM22.7567 2.29412C22.595 2.29412 22.4713 2.29412 22.3476 2.29412C17.4291 2.29412 12.5107 2.29412 7.59224 2.29412C6.14619 2.29412 5.32803 3.10325 5.32803 4.55016C5.32803 8.98609 5.32803 13.4315 5.32803 17.8675C5.32803 18.0007 5.32803 18.1435 5.32803 18.2863C13.462 18.2863 21.558 18.2863 29.6539 18.2863C29.6539 15.3258 29.6539 12.3939 29.6539 9.44301C28.265 9.44301 26.9141 9.44301 25.5536 9.44301C23.8127 9.44301 22.7662 8.3959 22.7567 6.64437C22.7567 5.2165 22.7567 3.78863 22.7567 2.29412ZM17.4862 31.3847C22.243 31.3847 26.9997 31.3847 31.7564 31.3847C32.5651 31.3847 32.7173 31.2324 32.7173 30.4423C32.7173 27.4723 32.7173 24.5023 32.7173 21.5323C32.7173 20.7803 32.546 20.609 31.804 20.609C22.2715 20.609 12.7295 20.609 3.19702 20.609C2.45497 20.609 2.29324 20.7803 2.29324 21.5419C2.29324 24.5118 2.29324 27.4818 2.29324 30.4518C2.29324 31.2324 2.45497 31.3942 3.22556 31.3942C7.97277 31.3847 12.7295 31.3847 17.4862 31.3847ZM5.32803 33.6788C5.32803 33.9644 5.32803 34.2119 5.32803 34.4689C5.32803 35.8872 6.14619 36.7154 7.57321 36.7154C14.1946 36.7154 20.8159 36.7154 27.4373 36.7154C27.6561 36.7154 27.8749 36.7154 28.0747 36.6678C29.3971 36.3442 29.8918 35.2209 29.6159 33.6883C21.5485 33.6788 13.4716 33.6788 5.32803 33.6788ZM25.0399 3.91237C25.0399 4.88333 25.0494 5.82573 25.0399 6.7586C25.0399 7.0537 25.1636 7.16793 25.4585 7.15841C26.153 7.14889 26.857 7.15841 27.5515 7.15841C27.7988 7.15841 28.0462 7.15841 28.265 7.15841C27.1804 6.07322 26.1245 5.00708 25.0399 3.91237Z" fill="#FFADB1"/>
<path d="M15.041 26.0254C15.041 24.845 15.0505 23.6646 15.041 22.4843C15.041 22.113 15.1742 21.8179 15.5357 21.7894C16.7344 21.6942 17.9426 21.5895 19.1223 21.9226C20.1688 22.2273 20.7205 22.9983 20.7586 24.0645C20.8062 25.3686 20.8062 26.6727 20.7586 27.9768C20.711 29.3095 19.7882 30.1662 18.3422 30.2709C17.486 30.3281 16.6202 30.309 15.7545 30.29C15.2408 30.2805 15.041 30.0425 15.041 29.5094C15.041 28.3576 15.041 27.1963 15.041 26.0254ZM16.8961 23.36C16.8961 25.1496 16.8961 26.9202 16.8961 28.7098C17.1911 28.7098 17.4479 28.7098 17.7143 28.7098C18.6371 28.7098 18.9415 28.4147 18.951 27.4818C18.9606 26.5204 18.9606 25.559 18.951 24.5975C18.951 24.4167 18.932 24.2453 18.894 24.074C18.8179 23.6646 18.5705 23.4076 18.1614 23.3696C17.7523 23.341 17.3433 23.36 16.8961 23.36Z" fill="#FFADB1"/>
<path d="M10.1984 27.1868C10.1984 27.9864 10.1889 28.7194 10.1984 29.4523C10.2079 29.8331 10.1223 30.1187 9.71322 30.2424C9.25657 30.3757 8.66674 30.29 8.47647 30.014C8.40036 29.9092 8.37182 29.7569 8.37182 29.6237C8.3623 27.2153 8.37182 24.807 8.3623 22.3986C8.3623 22.075 8.49549 21.8084 8.80944 21.7894C10.0938 21.7132 11.3971 21.5705 12.6529 21.9417C13.4805 22.1797 13.9943 22.7889 14.1465 23.6456C14.3082 24.55 14.2987 25.4543 13.7184 26.2348C13.2427 26.8726 12.5387 27.1296 11.7681 27.1868C11.2639 27.2153 10.7502 27.1868 10.1984 27.1868ZM10.2174 23.3125C10.2174 24.1787 10.2174 24.9783 10.2174 25.8065C10.6646 25.8065 11.0927 25.835 11.5208 25.797C12.006 25.7589 12.2723 25.5114 12.3484 25.0545C12.4341 24.4738 12.5197 23.8836 11.9394 23.4743C11.8728 23.4267 11.7776 23.3886 11.692 23.3886C11.2068 23.3505 10.7216 23.3315 10.2174 23.3125Z" fill="#FFADB1"/>
<path d="M23.8124 23.3314C23.8124 24.0073 23.8124 24.626 23.8124 25.3114C24.3356 25.3114 24.8494 25.3019 25.3631 25.3114C25.9054 25.3209 26.2003 25.6922 26.0861 26.2157C26.01 26.5584 25.8007 26.7393 25.4392 26.7297C24.9065 26.7297 24.3737 26.7297 23.8124 26.7297C23.8029 26.8916 23.7934 27.0248 23.7934 27.1581C23.7934 27.9482 23.7934 28.7288 23.7934 29.5189C23.7934 30.0234 23.6126 30.2328 23.1179 30.2994C22.9847 30.3185 22.842 30.3185 22.6993 30.3089C22.1571 30.2518 21.9668 30.0424 21.9668 29.4998C21.9668 27.1962 21.9668 24.883 21.9668 22.5794C21.9668 22.5413 21.9668 22.5032 21.9668 22.4652C21.9858 22.0273 22.1285 21.8559 22.5757 21.7798C22.6993 21.7607 22.823 21.7417 22.9562 21.7417C24.1739 21.7417 25.3916 21.7417 26.6094 21.7417C26.9138 21.7417 27.1992 21.7893 27.3134 22.1225C27.437 22.4842 27.4561 22.865 27.1802 23.1601C27.066 23.2743 26.8472 23.3219 26.6664 23.3314C25.8673 23.3504 25.0682 23.3409 24.2691 23.3409C24.1073 23.3314 23.9741 23.3314 23.8124 23.3314Z" fill="#FFADB1"/>
</svg>
