<svg width="31" height="33" viewBox="0 0 31 33" fill="none" xmlns="http://www.w3.org/2000/svg">
<path d="M0.999961 16.9949C0.999961 14.288 0.989611 11.5915 0.999961 8.88465C1.02066 5.24479 3.3597 2.18936 6.84757 1.27683C7.48925 1.11278 8.17233 1.02051 8.83472 1.01025C12.2294 0.989747 15.6138 1 19.0085 1C20.3126 1 21.4304 1.45114 22.3618 2.36366C24.4525 4.42454 26.5328 6.49567 28.6131 8.55655C29.5446 9.47933 29.9999 10.6072 29.9999 11.9093C29.9999 16.3182 30.0206 20.727 29.9999 25.1358C29.9793 29.0218 27.3504 32.1387 23.49 32.8667C23.0139 32.959 22.5171 32.9897 22.0203 32.9897C17.6734 33 13.3265 33 8.97961 32.9897C4.95356 32.9897 1.73479 30.2624 1.09311 26.3252C1.02066 25.8741 1.01031 25.4024 0.999961 24.9513C0.999961 22.2957 0.999961 19.6402 0.999961 16.9949ZM27.485 11.6735C27.3297 11.6735 27.1952 11.6735 27.0503 11.6735C26.0049 11.6735 24.9596 11.6838 23.9039 11.6735C21.1716 11.653 19.2259 9.69465 19.2155 6.99808C19.2155 5.96251 19.2155 4.92695 19.2155 3.88113C19.2155 3.74784 19.2155 3.61455 19.2155 3.46075C19.0396 3.46075 18.9257 3.46075 18.8015 3.46075C15.5207 3.46075 12.2294 3.46075 8.94857 3.46075C5.87469 3.46075 3.49425 5.77795 3.4839 8.82313C3.4632 14.2675 3.4632 19.7119 3.4839 25.1666C3.49425 28.2118 5.87469 30.529 8.94857 30.529C13.3058 30.5392 17.6631 30.529 22.0306 30.529C22.4239 30.529 22.8379 30.4982 23.2209 30.4162C25.7669 29.8728 27.4953 27.7504 27.4953 25.1358C27.5057 20.7783 27.4953 16.4207 27.4953 12.0631C27.516 11.9503 27.4953 11.8375 27.485 11.6735ZM21.7098 5.29606C21.7098 5.42935 21.7098 5.54213 21.7098 5.65492C21.7098 6.18808 21.6995 6.73149 21.7202 7.26466C21.7616 8.2182 22.486 9.03845 23.4486 9.15123C24.1006 9.223 24.763 9.19224 25.4254 9.2025C25.5082 9.2025 25.5806 9.18199 25.6427 9.17174C24.3179 7.87984 23.0346 6.5982 21.7098 5.29606Z" fill="#FFC17E"/>
<path d="M16.7419 16.7898C16.7419 18.4303 16.7419 20.0606 16.7419 21.7011C16.7419 21.8549 16.7419 22.0086 16.7109 22.1624C16.5867 22.7776 15.9967 23.2083 15.3758 23.1467C14.7548 23.0852 14.258 22.5726 14.258 21.9266C14.2476 20.3476 14.258 18.7789 14.258 17.1999C14.258 17.0666 14.258 16.9231 14.258 16.7898C14.2166 16.7693 14.1855 16.7385 14.1441 16.718C13.7715 17.1179 13.4093 17.528 13.016 17.9074C12.6538 18.256 12.188 18.3278 11.7223 18.1432C11.2669 17.9587 11.0082 17.6101 10.9564 17.1179C10.915 16.7385 11.0392 16.4104 11.3083 16.1439C12.4157 15.0468 13.5128 13.9394 14.6306 12.8629C15.1481 12.3605 15.8518 12.3707 16.3693 12.8731C17.4871 13.9599 18.5945 15.057 19.6916 16.1644C20.1884 16.6668 20.1677 17.4255 19.6813 17.8971C19.1948 18.3688 18.4496 18.379 17.9425 17.8971C17.5596 17.5383 17.2077 17.1487 16.8454 16.7693C16.804 16.7591 16.773 16.7693 16.7419 16.7898Z" fill="#FFC17E"/>
</svg>
