<svg width="26" height="26" viewBox="0 0 26 26" fill="none" xmlns="http://www.w3.org/2000/svg">
<path d="M16.7745 9.54857C16.9354 9.54857 17.0504 9.54857 17.1662 9.54857C18.6912 9.54857 20.2163 9.54006 21.7413 9.5509C24.1975 9.56869 26.0614 11.485 25.9984 13.9243C25.979 14.6632 25.7785 15.3602 25.3681 15.9768C23.6145 18.6103 21.8758 21.2546 20.0779 23.858C19.1156 25.2521 17.7057 25.9491 16.0057 25.9793C14.2483 26.0103 12.4893 26.001 10.7311 25.9824C9.3942 25.9677 8.23528 25.4803 7.25513 24.5736C7.18439 24.5086 7.11522 24.4421 7.02272 24.3546C6.84084 24.9898 6.39157 25.1399 5.79617 25.1322C4.21285 25.1113 2.62954 25.126 1.04622 25.1244C0.364544 25.1237 0 24.7639 0 24.0901C0 19.305 0 14.5193 0.000777279 9.73425C0.000777279 9.05267 0.358326 8.69215 1.03767 8.69137C2.64975 8.68983 4.2626 8.69756 5.87468 8.68596C6.31073 8.68286 6.6846 8.76642 6.93644 9.20121C7.02117 9.09908 7.08801 9.02327 7.14942 8.94358C8.99701 6.53599 10.6518 4.00307 12.1279 1.35409C12.6347 0.444285 13.4112 -0.0168096 14.4597 0.000984347C14.6509 0.00407894 14.8561 0.0257411 15.0295 0.0992376C16.1332 0.568842 17.0862 1.23031 17.6419 2.32966C17.994 3.02672 18.043 3.77252 17.8712 4.53456C17.5175 6.10739 17.1678 7.68176 16.8172 9.25536C16.7986 9.33659 16.7923 9.4217 16.7745 9.54857ZM7.04215 16.5532C7.04215 17.6456 7.04138 18.7387 7.04293 19.8311C7.04371 20.3239 6.93644 20.8539 7.08413 21.2995C7.23181 21.7444 7.63677 22.1041 7.92903 22.501C7.99199 22.5869 8.05573 22.672 8.12024 22.7571C8.81824 23.6754 9.74475 24.1342 10.9037 24.1326C12.5064 24.1303 14.11 24.121 15.7127 24.1357C17.0387 24.1481 18.0399 23.6073 18.7697 22.5064C20.3911 20.0632 22.0273 17.6301 23.6643 15.197C24.2146 14.3792 24.3226 13.5267 23.8524 12.6532C23.3821 11.7798 22.6111 11.3976 21.6193 11.403C19.6761 11.4131 17.7329 11.4069 15.7897 11.4053C14.9152 11.4046 14.5351 10.9203 14.7248 10.0723C15.1694 8.08406 15.6101 6.09424 16.05 4.10441C16.1884 3.47698 15.9987 2.96019 15.499 2.55789C15.3031 2.40007 15.0987 2.25153 14.8958 2.10144C14.3525 1.69914 14.0563 1.77186 13.6964 2.34978C12.4637 4.328 11.2441 6.31473 9.97327 8.26896C9.20765 9.44568 8.34487 10.559 7.3142 11.526C7.12221 11.7063 7.03282 11.8765 7.03516 12.1442C7.04915 13.6133 7.04215 15.0833 7.04215 16.5532ZM1.8849 10.5574C1.8849 14.8086 1.8849 19.0296 1.8849 23.2483C2.98631 23.2483 4.06906 23.2483 5.15414 23.2483C5.15414 19.0072 5.15414 14.7877 5.15414 10.5574C4.05662 10.5574 2.98087 10.5574 1.8849 10.5574Z" fill="#8790A8"/>
</svg>
