<svg width="79" height="79" viewBox="0 0 79 79" fill="none" xmlns="http://www.w3.org/2000/svg">
<path fill-rule="evenodd" clip-rule="evenodd" d="M39.4613 21C43.3127 21 46.3802 24.3834 46.0394 28.2258C45.6918 32.1031 45.3589 35.9949 45.0271 39.8743L44.9487 40.7903C44.6931 43.7487 42.4436 45.8399 39.4783 45.8569C36.479 45.8569 34.1954 43.7487 33.9568 40.7733C33.616 36.5908 33.2411 32.3913 32.8661 28.2088C32.5423 24.3834 35.6269 21 39.4613 21ZM39.4441 58.7613C36.3596 58.8293 34.1953 56.738 34.1271 53.5757C34.0419 50.5153 36.1551 48.203 39.0863 48.152C42.5969 48.084 44.7782 50.0563 44.8123 53.3716C44.8293 55.9389 43.3467 58.8463 39.4441 58.7613Z" fill="white"/>
<circle cx="39.5" cy="39.5" r="38.5" stroke="white" stroke-width="2"/>
</svg>
