<svg width="26" height="24" viewBox="0 0 26 24" fill="none" xmlns="http://www.w3.org/2000/svg">
<path d="M14.1561 0.694121L17.1742 6.59883C17.3625 6.96662 17.7254 7.22073 18.1451 7.27958L24.893 8.22647C25.9512 8.37492 26.3736 9.63076 25.6077 10.3516L20.724 14.9483C20.4207 15.2345 20.2808 15.6465 20.3528 16.0504L21.5052 22.5409C21.6852 23.5587 20.58 24.3344 19.634 23.8542L13.6007 20.7902C13.2254 20.5989 12.7766 20.5989 12.3999 20.7902L6.3639 23.8542C5.41792 24.3344 4.31127 23.5587 4.49271 22.5409L5.64507 16.0504C5.71709 15.6465 5.57859 15.2345 5.27388 14.9483L0.39022 10.3516C-0.375708 9.63076 0.0467296 8.37492 1.1049 8.22647L7.85282 7.27958C8.27249 7.22073 8.63676 6.96528 8.82374 6.59883L11.8431 0.694121C12.3168 -0.231374 13.6838 -0.231374 14.1561 0.694121Z" fill="#F7C85E"/>
</svg>
