<svg width="21" height="21" viewBox="0 0 21 21" fill="none" xmlns="http://www.w3.org/2000/svg">
<g clip-path="url(#clip0_210_3623)">
<path d="M17.9227 21C12.987 21 8.05675 21 3.12104 21C3.09371 20.9891 3.07185 20.9727 3.04452 20.9727C1.4594 20.7977 -0.0327887 19.3266 -0.00545916 17.3305C0.0273363 14.8641 0.00547265 12.3977 6.74697e-06 9.92578C6.74697e-06 8.85938 0.38262 7.96797 1.16971 7.25156C3.49819 5.14609 5.81573 3.02969 8.14967 0.935156C8.44483 0.672656 8.80012 0.459375 9.16087 0.289844C9.46149 0.147656 9.80584 0.0929688 10.1338 0C10.3798 0 10.6257 0 10.8717 0C10.8881 0.0109375 10.9045 0.0273438 10.9264 0.0273438C11.7298 0.13125 12.3967 0.497656 12.987 1.03359C15.2827 3.12812 17.5838 5.21172 19.885 7.30078C20.3058 7.68359 20.6229 8.14297 20.7978 8.68437C20.8852 8.94141 20.9344 9.20937 21 9.47188C21 12.2227 21 14.968 21 17.7188C20.9836 17.7844 20.9672 17.85 20.9563 17.9156C20.7213 19.2555 20.0326 20.2563 18.7426 20.7758C18.4802 20.8797 18.196 20.9289 17.9227 21ZM10.4399 18.9875C12.741 18.9875 15.0422 18.9875 17.3433 18.9875C18.1741 18.9875 18.7809 18.3969 18.7863 17.582C18.7918 15.0391 18.7918 12.4961 18.7863 9.95312C18.7863 9.47734 18.5841 9.06719 18.2452 8.75547C15.9823 6.68828 13.6976 4.6375 11.4401 2.55938C10.8116 1.97969 9.93703 2.13828 9.47242 2.55938C8.78372 3.18281 8.09501 3.80625 7.40631 4.43516C5.79933 5.89531 4.19236 7.36094 2.57991 8.81016C2.36128 9.00703 2.1973 9.21484 2.14811 9.50469C2.12078 9.68516 2.10438 9.87109 2.10438 10.057C2.10438 12.5234 2.10438 14.9898 2.10438 17.4563C2.10438 18.4023 2.68923 18.9875 3.6403 18.9875C5.90865 18.9875 8.17154 18.9875 10.4399 18.9875Z" fill="#2982D3"/>
</g>
<defs>
<clipPath id="clip0_210_3623">
<rect width="21" height="21" fill="white"/>
</clipPath>
</defs>
</svg>
