<svg width="32" height="32" viewBox="0 0 32 32" fill="none" xmlns="http://www.w3.org/2000/svg">
<g clip-path="url(#clip0_4_17)">
<path d="M32 15.0393C32 15.6356 32 16.2981 32 16.8944C32 16.9607 31.9337 17.0932 31.9337 17.1594C31.8012 19.412 31.205 21.5321 30.0787 23.4534C27.5611 27.9586 23.7847 30.7412 18.7495 31.6687C18.1532 31.8012 17.4907 31.8675 16.8944 31.9338C16.2981 31.9338 15.6356 31.9338 15.0393 31.9338C14.9731 31.9338 14.9068 31.8675 14.7743 31.8675C12.5217 31.735 10.4017 31.1387 8.48033 30.0787C3.24638 27.1636 0.397515 22.6584 -2.36787e-07 16.6294C-0.198758 13.7143 0.463768 10.9979 1.85507 8.48033C4.83644 3.24638 9.34162 0.397515 15.3043 -2.33673e-07C18.2195 -0.198758 20.9358 0.463768 23.4534 1.85507C27.9586 4.30642 30.7412 8.14907 31.6687 13.1843C31.8675 13.8468 31.8675 14.4431 32 15.0393ZM15.9669 29.4824C23.3872 29.4824 29.4161 23.4534 29.4824 16.0331C29.4824 8.61284 23.4534 2.5176 15.9669 2.5176C8.54658 2.5176 2.5176 8.54659 2.45135 15.9669C2.5176 23.4534 8.54658 29.4824 15.9669 29.4824Z" fill="white"/>
<path d="M13.8468 18.4845C13.913 18.352 13.9793 18.2195 14.0456 18.1532C16.4306 15.7681 18.7495 13.4493 21.1346 11.0642C21.3996 10.7992 21.7309 10.6004 22.1284 10.6004C22.6584 10.6004 22.9897 10.7992 23.2547 11.2629C23.5197 11.7267 23.4534 12.1242 23.1884 12.588C23.1222 12.7205 22.9897 12.7868 22.9234 12.9193C20.207 15.6356 17.5569 18.2857 14.8406 21.0021C14.1118 21.7309 13.4493 21.7309 12.7868 21.0021C11.528 19.7433 10.2692 18.4845 9.01036 17.2257C8.41408 16.6294 8.41408 15.9006 8.9441 15.3706C9.40787 14.9068 10.1367 14.9068 10.6667 15.3706C11.1304 15.7681 11.528 16.2319 11.9255 16.6294C12.588 17.1594 13.1843 17.7557 13.8468 18.4845Z" fill="white"/>
</g>
<defs>
<clipPath id="clip0_4_17">
<rect width="32" height="32" fill="white"/>
</clipPath>
</defs>
</svg>
