<svg width="42" height="42" viewBox="0 0 42 42" fill="none" xmlns="http://www.w3.org/2000/svg">
<path fill-rule="evenodd" clip-rule="evenodd" d="M20.9799 9.84888C23.2959 9.84888 25.1405 11.8834 24.9355 14.194C24.7265 16.5257 24.5263 18.8662 24.3267 21.1992L24.2797 21.7494C24.1259 23.5283 22.7732 24.7858 20.9901 24.7961C19.1866 24.7961 17.8134 23.5283 17.6699 21.7391C17.4649 19.2241 17.2395 16.6988 17.014 14.1838C16.8193 11.8834 18.6742 9.84888 20.9799 9.84888ZM20.9696 32.5555C19.1148 32.5964 17.8133 31.3389 17.7723 29.4373C17.7211 27.597 18.9918 26.2065 20.7544 26.1759C22.8654 26.135 24.1772 27.3209 24.1977 29.3146C24.2079 30.8584 23.3163 32.6066 20.9696 32.5555Z" fill="#9CA0AB"/>
<circle cx="21" cy="21" r="20" stroke="#9CA0AB" stroke-width="2"/>
</svg>
