<svg width="273" height="43" viewBox="0 0 273 43" fill="none" xmlns="http://www.w3.org/2000/svg">
<path d="M174.422 31H178.426V16.492H183.964V12.8H168.884V16.492H174.422V31ZM191.683 31.312C194.205 31.312 196.051 30.35 197.377 28.712L195.115 26.71C193.997 27.724 193.061 28.14 191.735 28.14C189.967 28.14 188.719 27.204 188.329 25.41H198.027C198.053 25.02 198.079 24.682 198.079 24.37C198.079 20.418 195.947 16.804 191.293 16.804C187.237 16.804 184.403 20.08 184.403 24.058V24.11C184.403 28.374 187.497 31.312 191.683 31.312ZM188.277 22.94C188.589 21.146 189.629 19.976 191.293 19.976C192.957 19.976 193.997 21.172 194.231 22.94H188.277ZM204.976 31.26C206.926 31.26 208.226 30.558 209.188 29.492V31H213.01V22.914C213.01 21.042 212.542 19.508 211.502 18.468C210.488 17.454 208.98 16.908 206.796 16.908C204.43 16.908 202.922 17.376 201.388 18.026L202.376 21.042C203.65 20.548 204.69 20.288 206.224 20.288C208.2 20.288 209.214 21.172 209.214 22.836V23.07C208.2 22.732 207.238 22.498 205.808 22.498C202.506 22.498 200.192 23.928 200.192 26.944V26.996C200.192 29.778 202.35 31.26 204.976 31.26ZM206.172 28.53C204.898 28.53 204.014 27.906 204.014 26.84V26.788C204.014 25.54 205.054 24.864 206.744 24.864C207.706 24.864 208.564 25.072 209.266 25.384V26.086C209.266 27.542 208.044 28.53 206.172 28.53ZM222.989 31.312C225.771 31.312 227.331 30.246 228.683 28.764L226.369 26.424C225.407 27.334 224.497 27.906 223.171 27.906C221.013 27.906 219.635 26.216 219.635 24.058V24.006C219.635 21.926 221.039 20.21 223.015 20.21C224.445 20.21 225.277 20.808 226.187 21.744L228.605 19.144C227.279 17.688 225.667 16.804 223.041 16.804C218.777 16.804 215.735 20.08 215.735 24.058V24.11C215.735 28.062 218.803 31.312 222.989 31.312ZM231.264 31H235.216V23.226C235.216 21.354 236.152 20.392 237.686 20.392C239.22 20.392 240.078 21.354 240.078 23.226V31H244.03V21.978C244.03 18.754 242.314 16.804 239.298 16.804C237.322 16.804 236.126 17.87 235.216 19.04V12.02H231.264V31ZM254.067 31.312C256.589 31.312 258.435 30.35 259.761 28.712L257.499 26.71C256.381 27.724 255.445 28.14 254.119 28.14C252.351 28.14 251.103 27.204 250.713 25.41H260.411C260.437 25.02 260.463 24.682 260.463 24.37C260.463 20.418 258.331 16.804 253.677 16.804C249.621 16.804 246.787 20.08 246.787 24.058V24.11C246.787 28.374 249.881 31.312 254.067 31.312ZM250.661 22.94C250.973 21.146 252.013 19.976 253.677 19.976C255.341 19.976 256.381 21.172 256.615 22.94H250.661ZM263.409 31H267.361V25.852C267.361 22.498 268.973 20.938 271.599 20.938H271.807V16.804C269.441 16.7 268.167 17.974 267.361 19.872V17.064H263.409V31Z" fill="#3F3B3A"/>
<g clip-path="url(#clip0_210_4105)">
<path d="M60.9728 26.6885C60.5179 27.8074 58.7972 31.4053 53.503 31.4053C51.0486 31.4053 49.1884 30.7069 47.6805 29.2736C45.9965 27.7013 45.2958 25.7451 45.2958 23.3684C45.2958 20.3628 46.5248 18.509 47.6108 17.4266C49.4012 15.6789 51.5035 15.2949 53.3269 15.2949C56.4124 15.2949 58.2028 16.5198 59.2521 17.7777C60.8664 19.701 61.0756 22.0777 61.0756 23.7194V24.0705H49.7131C49.7131 24.9809 49.9589 25.9572 50.4505 26.6227C50.9055 27.2516 51.852 28.056 53.503 28.056C55.1173 28.056 56.3427 27.2881 57.0435 26.0632L60.9728 26.6885ZM57.0471 21.3427C56.6949 19.2805 55.0146 18.3005 53.4333 18.3005C51.8557 18.3005 50.2084 19.3134 49.8562 21.3427H57.0471Z" fill="#3F3B3A"/>
<path d="M76.0262 7.99658H80.304V30.919H76.0262V28.9628C74.4816 31.164 72.449 31.409 71.363 31.409C66.6999 31.409 63.6107 27.7744 63.6107 23.3355C63.6107 18.8636 66.6632 15.2949 71.1502 15.2949C72.3059 15.2949 74.588 15.5033 76.0262 17.7411V7.99658ZM68.0317 23.3355C68.0317 25.7487 69.7854 27.6355 72.2399 27.6355C74.6944 27.6355 76.4481 25.7487 76.4481 23.3355C76.4481 20.9259 74.6944 19.072 72.2399 19.072C69.7854 19.0684 68.0317 20.9222 68.0317 23.3355Z" fill="#3F3B3A"/>
<path d="M88.082 15.7847V24.3481C88.082 25.1525 88.1517 26.2349 88.9919 27.0027C89.5166 27.4561 90.3604 27.7706 91.1675 27.7706C91.9747 27.7706 92.8149 27.4561 93.3432 27.0027C94.1834 26.2349 94.2567 25.1489 94.2567 24.3481V15.7847H98.5346V25.0465C98.5346 26.4104 98.3585 28.2276 96.6745 29.6939C95.273 30.9188 93.0277 31.4051 91.1675 31.4051C89.3074 31.4051 87.0658 30.9151 85.6606 29.6939C83.9766 28.2276 83.8005 26.4067 83.8005 25.0465V15.7847H88.082Z" fill="#3F3B3A"/>
<path d="M126.407 17.4266C127.915 18.7905 128.968 20.8857 128.968 23.3684C128.968 25.8146 127.915 27.9134 126.407 29.2736C125.108 30.462 123.145 31.4053 120.269 31.4053C117.393 31.4053 115.43 30.462 114.131 29.2736C112.623 27.9097 111.57 25.8146 111.57 23.3684C111.57 20.8857 112.623 18.7905 114.131 17.4266C115.43 16.2383 117.393 15.2949 120.269 15.2949C123.145 15.2949 125.108 16.2383 126.407 17.4266ZM124.551 23.3684C124.551 20.9917 122.727 19.0684 120.273 19.0684C117.818 19.0684 115.995 20.9917 115.995 23.3684C115.995 25.6756 117.785 27.6319 120.273 27.6319C122.76 27.6319 124.551 25.6756 124.551 23.3684Z" fill="#8FC31F"/>
<path d="M139.373 19.3865C138.356 18.4432 137.34 18.3737 136.882 18.3737C135.865 18.3737 135.234 18.8636 135.234 19.5986C135.234 19.9825 135.41 20.5785 136.603 20.9625L137.619 21.2769C138.811 21.6608 140.602 22.2569 141.475 23.4452C141.93 24.0741 142.245 24.9846 142.245 25.9609C142.245 27.3247 141.79 28.6886 140.561 29.8038C139.332 30.9227 137.861 31.4127 136.001 31.4127C132.846 31.4127 131.055 29.9098 130.109 28.897L132.354 26.3119C133.194 27.2918 134.46 28.0597 135.722 28.0597C136.915 28.0597 137.824 27.4637 137.824 26.4179C137.824 25.4745 137.054 25.0906 136.493 24.8785L135.509 24.5275C134.423 24.1436 133.161 23.6536 132.248 22.7103C131.547 21.9753 131.092 21.0319 131.092 19.8107C131.092 18.3444 131.793 17.1195 132.67 16.3846C133.862 15.4412 135.407 15.3022 136.632 15.3022C137.755 15.3022 139.541 15.4412 141.471 16.9111L139.373 19.3865Z" fill="#8FC31F"/>
<path d="M153.124 19.3865C152.107 18.4432 151.091 18.3737 150.632 18.3737C149.616 18.3737 148.985 18.8636 148.985 19.5986C148.985 19.9825 149.161 20.5785 150.354 20.9625L151.37 21.2769C152.562 21.6608 154.353 22.2569 155.226 23.4452C155.681 24.0741 155.996 24.9846 155.996 25.9609C155.996 27.3247 155.541 28.6886 154.312 29.8038C153.083 30.9227 151.612 31.4127 149.752 31.4127C146.597 31.4127 144.806 29.9098 143.86 28.897L146.105 26.3119C146.945 27.2918 148.211 28.0597 149.473 28.0597C150.665 28.0597 151.575 27.4637 151.575 26.4179C151.575 25.4745 150.805 25.0906 150.244 24.8785L149.26 24.5275C148.174 24.1436 146.912 23.6536 145.999 22.7103C145.298 21.9753 144.843 21.0319 144.843 19.8107C144.843 18.3444 145.544 17.1195 146.421 16.3846C147.613 15.4412 149.158 15.3022 150.383 15.3022C151.506 15.3022 153.292 15.4412 155.222 16.9111L153.124 19.3865Z" fill="#8FC31F"/>
<path d="M109.967 19.4193V15.7847H106.309V10.6108H102.031V25.0466C102.031 26.4104 102.207 28.2277 103.891 29.694C105.293 30.9189 107.538 31.4052 109.398 31.4052V27.7707C108.591 27.7707 107.751 27.5769 107.222 27.1235C106.382 26.3556 106.313 25.4342 106.313 24.6297V19.4193H109.967Z" fill="#8FC31F"/>
<path d="M37.4517 25.522L34.4983 23.5329L31.7283 25.3977L35.7127 28.0852C36.0869 28.3375 36.0869 28.8896 35.7127 29.1419L19.7751 39.881C19.7458 39.8993 19.7164 39.9102 19.6871 39.9102C19.6027 39.9102 19.5257 39.8444 19.5257 39.7493V36.7547L5.78577 27.4929C5.41155 27.2406 5.41155 26.6884 5.78577 26.4361L18.9019 17.5985C19.0927 17.4705 19.3092 17.4083 19.5293 17.4083C19.7495 17.4083 19.9659 17.4705 20.1567 17.5985L25.9388 21.4962L28.7088 19.6314L21.8921 15.0389C21.1913 14.5672 20.3732 14.3149 19.5257 14.3149C18.6782 14.3149 17.8637 14.5636 17.1592 15.0389L4.04673 23.8766C3.01578 24.5713 2.39941 25.7268 2.39941 26.9663C2.39941 28.2059 3.01578 29.3613 4.04673 30.056L16.4255 38.3965V39.7493C16.4255 41.541 17.8893 43 19.6871 43C20.3401 43 20.9712 42.8062 21.5142 42.4405L37.4517 31.7015C38.4827 31.0067 39.099 29.8513 39.099 28.6117C39.099 27.3722 38.4827 26.2168 37.4517 25.522Z" fill="#00A29A"/>
<path d="M35.0486 14.9439L22.6736 6.6035V5.2506C22.6736 3.45893 21.2097 2 19.4083 2C18.7552 2 18.1242 2.19379 17.5812 2.55944L1.64732 13.2948C0.616369 13.9896 0 15.145 0 16.3882C0 17.6278 0.616369 18.7832 1.64732 19.4779L4.60075 21.467L7.37074 19.6022L3.38269 16.9147C3.00847 16.6624 3.00847 16.1103 3.38269 15.858L19.3202 5.11897C19.3496 5.10069 19.3789 5.08972 19.4083 5.08972C19.4927 5.08972 19.5697 5.15553 19.5697 5.2506V8.24525L33.3096 17.5034C33.6838 17.7557 33.6838 18.3079 33.3096 18.5602L20.1971 27.3978C20.0063 27.5258 19.7898 27.588 19.5697 27.588C19.3496 27.588 19.1331 27.5222 18.9423 27.3978L13.1602 23.5037L10.3902 25.3685L17.2033 29.961C17.904 30.4327 18.7222 30.6814 19.5697 30.6814C20.4172 30.6814 21.2354 30.4327 21.9361 29.961L35.0486 21.1233C36.0796 20.4286 36.696 19.2732 36.696 18.0336C36.696 16.7941 36.0796 15.6386 35.0486 14.9439Z" fill="#8FC31F"/>
</g>
<defs>
<clipPath id="clip0_210_4105">
<rect width="156" height="41" fill="white" transform="translate(0 2)"/>
</clipPath>
</defs>
</svg>
