<svg width="26" height="25" viewBox="0 0 26 25" fill="none" xmlns="http://www.w3.org/2000/svg">
<g clip-path="url(#clip0_1092_30505)">
<path d="M5.29199 14.5185C5.35033 9.2989 9.14199 4.89012 14.2253 4.15532C19.8503 3.34451 25.092 7.33944 25.892 13.0405C26.2253 15.3969 25.8003 17.6097 24.6586 19.6959C24.5586 19.8817 24.517 20.1351 24.5503 20.3462C24.6503 21.1063 24.8003 21.8665 24.9253 22.6266C25.067 23.5134 24.5503 24.054 23.6586 23.9104C22.9253 23.8006 22.2003 23.6739 21.4753 23.5472C21.2003 23.4965 20.9586 23.5219 20.7003 23.6655C14.5503 27.1283 6.86699 23.5134 5.52533 16.5202C5.40033 15.8614 5.36699 15.1857 5.29199 14.5185ZM22.7253 21.6976C22.7003 21.5117 22.692 21.3682 22.6586 21.233C22.392 20.228 22.5336 19.3158 23.0586 18.3867C23.9253 16.8411 24.1753 15.1266 23.9253 13.3698C23.2586 8.60633 18.8753 5.39688 14.192 6.23302C8.90032 7.17897 5.85866 12.9813 8.05032 17.956C10.067 22.5337 15.517 24.3834 19.8586 21.8411C20.4253 21.5117 21.0253 21.4188 21.667 21.5371C22.0003 21.5962 22.3503 21.6384 22.7253 21.6976Z" fill="white"/>
<path d="M3.26662 17.6349C3.40828 17.618 3.50828 17.6096 3.60828 17.6011C4.13328 17.5673 4.57495 17.9474 4.65828 18.4795C4.73328 18.9609 4.40828 19.4761 3.92495 19.5775C3.32495 19.7042 2.71662 19.8055 2.10829 19.8815C1.49995 19.9575 0.983285 19.4086 1.05829 18.7582C1.14162 18.0488 1.26662 17.3393 1.40829 16.6383C1.49995 16.1822 1.45829 15.8106 1.23329 15.3798C-2.01671 9.26497 1.48329 1.63828 8.19162 0.219359C10.4166 -0.253614 12.5749 -0.00868193 14.6583 0.94571C15.0166 1.11463 15.2666 1.35956 15.3166 1.75652C15.4249 2.56733 14.6916 3.11632 13.9166 2.8376C13.2083 2.57578 12.4916 2.29706 11.7499 2.15348C7.32495 1.30044 2.85828 4.49301 2.12495 9.00315C1.79995 11.0048 2.09162 12.8967 3.09995 14.645C3.56662 15.4558 3.53328 16.2667 3.34995 17.1197C3.32495 17.2717 3.29995 17.4322 3.26662 17.6349Z" fill="white"/>
<path d="M11.6748 13.1841C12.4164 13.1841 13.0081 13.7837 12.9998 14.5354C12.9998 15.2787 12.3998 15.8783 11.6581 15.8699C10.9164 15.8699 10.3248 15.2618 10.3331 14.5185C10.3331 13.7837 10.9331 13.1841 11.6748 13.1841Z" fill="white"/>
<path d="M15.6831 15.8779C14.9414 15.8864 14.3414 15.2952 14.3331 14.5435C14.3248 13.8002 14.9164 13.1921 15.6581 13.1837C16.3998 13.1752 16.9998 13.7665 16.9998 14.5181C17.0081 15.2614 16.4164 15.8695 15.6831 15.8779Z" fill="white"/>
<path d="M19.6753 13.1841C20.4169 13.1925 21.0003 13.7922 20.9919 14.5439C20.9836 15.2871 20.3836 15.8783 19.6503 15.8783C18.9169 15.8699 18.3169 15.2618 18.3253 14.5185C18.3419 13.7753 18.9419 13.1841 19.6753 13.1841Z" fill="white"/>
</g>
<defs>
<clipPath id="clip0_1092_30505">
<rect width="26" height="25" fill="white"/>
</clipPath>
</defs>
</svg>
