<svg width="23" height="32" viewBox="0 0 23 32" fill="none" xmlns="http://www.w3.org/2000/svg">
<g clip-path="url(#clip0_596_13618)">
<path d="M0 17.1613C0 13.3025 0 9.43463 0 5.57584C0 3.98533 1.03411 2.65689 2.53178 2.41289C3.2093 2.30445 3.91357 2.32252 4.6 2.34963C5.1438 2.3677 5.48256 2.28637 5.75 1.68993C6.24922 0.587418 7.21202 0.0361611 8.40659 0.0180871C10.4659 -0.00902385 12.5252 1.31379e-05 14.5934 0.0180871C15.8682 0.0271241 16.9915 0.831416 17.4372 2.05141C17.5264 2.28637 17.6333 2.34963 17.8651 2.34963C18.6318 2.34059 19.4074 2.32252 20.174 2.37674C21.6895 2.47615 22.9109 3.76844 22.9911 5.31376C23 5.40413 23 5.4945 23 5.58487C23 13.3115 23 21.0381 23 28.7648C23 30.283 22.1085 31.503 20.7089 31.8916C20.4147 31.9729 20.0938 32.009 19.7907 32.009C14.2636 32.0181 8.73643 32.0181 3.2093 32.009C1.34612 32.009 0 30.6444 0 28.7648C0 24.8879 0 21.0291 0 17.1613ZM1.60465 17.1793C1.60465 21.0201 1.60465 24.8608 1.60465 28.7015C1.60465 29.7498 2.21977 30.3733 3.24496 30.3733C8.74535 30.3733 14.2547 30.3733 19.755 30.3733C20.7802 30.3733 21.3953 29.7498 21.3953 28.7015C21.3953 21.011 21.3953 13.3205 21.3953 5.62102C21.3953 4.61792 20.7981 3.98533 19.8085 3.96725C19.1399 3.95821 18.4713 3.96725 17.8027 3.95821C17.6155 3.95821 17.5353 4.01244 17.464 4.19318C16.9558 5.53969 15.8771 6.2988 14.4597 6.2988C12.4895 6.30783 10.5194 6.30783 8.54031 6.2988C7.13178 6.2988 6.04419 5.53065 5.53605 4.19318C5.46473 4.01244 5.3845 3.95821 5.19729 3.95821C4.56434 3.96725 3.9314 3.95821 3.28954 3.96725C2.19302 3.97629 1.60465 4.58177 1.60465 5.69332C1.60465 9.525 1.60465 13.3476 1.60465 17.1793ZM11.4911 1.63571C10.5105 1.63571 9.52985 1.63571 8.54922 1.63571C7.64884 1.63571 6.9624 2.29541 6.97132 3.16296C6.97132 4.03051 7.64884 4.68117 8.55814 4.68117C10.5194 4.68117 12.4806 4.68117 14.4419 4.68117C15.3512 4.68117 16.0287 4.03955 16.0376 3.172C16.0465 2.29541 15.3601 1.63571 14.4329 1.63571C13.4523 1.63571 12.4717 1.63571 11.4911 1.63571Z" fill="white"/>
<path d="M11.518 9.76886C13.6129 9.76886 15.7079 9.76886 17.8029 9.76886C18.4625 9.76886 18.8637 10.284 18.6587 10.8533C18.5428 11.1696 18.311 11.3413 17.9901 11.3865C17.8831 11.4046 17.7672 11.3955 17.6602 11.3955C13.5594 11.3955 9.45867 11.3955 5.3579 11.3955C5.25984 11.3955 5.15286 11.3955 5.0548 11.3955C4.62689 11.3594 4.29705 11.016 4.29705 10.6003C4.28813 10.1665 4.62689 9.79597 5.07263 9.7779C5.50945 9.75982 5.93736 9.76886 6.37418 9.76886C8.08581 9.76886 9.79743 9.76886 11.518 9.76886Z" fill="white"/>
<path d="M8.28189 15.7331C7.26561 15.7331 6.25824 15.7331 5.24196 15.7331C4.6625 15.7331 4.28809 15.4078 4.28809 14.9198C4.28809 14.4318 4.6625 14.1064 5.24196 14.1064C7.28344 14.1064 9.316 14.1064 11.3575 14.1064C11.9102 14.1064 12.2757 14.4227 12.2935 14.9017C12.3024 15.3897 11.928 15.7331 11.3575 15.7331C10.3323 15.7331 9.30708 15.7331 8.28189 15.7331Z" fill="white"/>
</g>
<defs>
<clipPath id="clip0_596_13618">
<rect width="23" height="32" fill="white"/>
</clipPath>
</defs>
</svg>
