<svg width="26" height="26" viewBox="0 0 26 26" fill="none" xmlns="http://www.w3.org/2000/svg">
<g clip-path="url(#clip0_570_8212)">
<path d="M13.0114 0C15.3902 0.121318 17.7615 0.204724 20.1327 0.363955C23.1195 0.568679 25.5212 3.07845 25.7264 6.06591C25.924 8.91689 26.0608 11.7603 25.9848 14.6188C25.9316 16.4765 25.848 18.3342 25.7036 20.1843C25.4756 23.1414 23.0055 25.5071 20.0415 25.727C16.591 25.9848 13.133 26.0834 9.67494 25.9393C8.28412 25.8787 6.8857 25.8104 5.49488 25.6588C2.90324 25.3631 0.623208 23.1263 0.364804 20.5255C0.152001 18.357 0.0760001 16.1732 0.0227993 13.9971C-0.0532018 11.2978 0.0836002 8.59843 0.296403 5.8991C0.532007 2.94955 3.05524 0.500437 6.01169 0.34879C8.34492 0.235054 10.6782 0.113736 13.0114 0ZM12.9886 24.711C15.3446 24.5897 17.7083 24.4987 20.0719 24.347C22.2835 24.1954 24.1912 22.2922 24.3356 20.0857C24.4648 18.1371 24.5712 16.1884 24.6168 14.2397C24.6852 11.4873 24.5636 8.74249 24.3432 6.00525C24.1608 3.79119 22.2759 1.88801 20.0643 1.72878C18.2327 1.59988 16.4086 1.50131 14.577 1.44824C11.6966 1.37241 8.82373 1.48615 5.95089 1.71362C3.74686 1.88801 1.83163 3.76086 1.67202 5.97492C1.53522 7.87052 1.43642 9.77369 1.39082 11.6769C1.32242 14.4444 1.45162 17.212 1.64922 19.972C1.81643 22.224 3.69365 24.1878 5.95089 24.3319C8.29172 24.4987 10.6326 24.5897 12.9886 24.711Z" fill="white"/>
<path d="M13.0038 4.61768C14.7214 4.61768 16.0894 6.12657 15.9374 7.84019C15.7702 9.70545 15.6106 11.5783 15.451 13.4436C15.337 14.7629 14.3338 15.6955 13.0114 15.7031C11.6738 15.7031 10.6554 14.7629 10.549 13.436C10.3969 11.5707 10.2297 9.69787 10.0625 7.83261C9.91814 6.12657 11.2938 4.61768 13.0038 4.61768ZM14.5846 7.61272C14.577 6.63459 13.8702 5.95217 12.943 6.00525C11.9854 6.05833 11.347 6.77865 11.4306 7.73404C11.5902 9.58414 11.7574 11.4342 11.917 13.2768C11.9702 13.8985 12.411 14.3383 12.9962 14.3459C13.589 14.3535 14.0374 13.9061 14.0982 13.2692C14.1818 12.2759 14.273 11.2902 14.3642 10.2969C14.4326 9.39458 14.5086 8.48469 14.5846 7.61272Z" fill="white"/>
<path d="M12.9962 21.4582C11.6206 21.4886 10.6554 20.5559 10.6249 19.1456C10.5869 17.7808 11.5294 16.7496 12.8366 16.7268C14.4022 16.6965 15.375 17.5761 15.3902 19.0546C15.3978 20.1996 14.7366 21.4961 12.9962 21.4582ZM13.0114 20.0858C13.703 20.0858 13.9918 19.7977 13.9918 19.1001C13.9918 18.3798 13.7106 18.0992 12.9962 18.0992C12.2818 18.0992 12.0006 18.3798 12.0006 19.1001C12.0082 19.8053 12.297 20.0858 13.0114 20.0858Z" fill="white"/>
</g>
<defs>
<clipPath id="clip0_570_8212">
<rect width="26" height="26" fill="white"/>
</clipPath>
</defs>
</svg>
