<svg width="31" height="16" viewBox="0 0 31 16" fill="none" xmlns="http://www.w3.org/2000/svg">
<g clip-path="url(#clip0_570_8226)">
<path d="M27.9765 11.9074C27.9765 12.2593 27.986 12.5463 27.9765 12.8333C27.9577 13.6667 27.3435 14.2963 26.5026 14.3704C26.3703 14.3796 26.2475 14.3796 26.1152 14.3796C20.4746 14.3796 14.8245 14.3796 9.1838 14.3796C7.89882 14.3796 7.30358 13.7963 7.30358 12.5278C7.30358 9.7037 7.29413 6.87963 7.29413 4.05556C7.29413 3.16667 7.97441 2.48148 8.90035 2.4537C9.35387 2.44444 9.81684 2.4537 10.327 2.4537C10.327 2.13889 10.327 1.85185 10.327 1.56481C10.3459 0.657407 10.9884 0.00925926 11.9144 0.00925926C17.744 0 23.5736 0 29.4127 0C30.367 0 31 0.675926 31.0095 1.66667C31.0189 3.85185 31.0095 6.03704 31.0095 8.23148C31.0095 8.89815 31.0095 9.57407 31.0095 10.2407C31 11.2778 30.367 11.8981 29.2993 11.9074C28.8741 11.9167 28.449 11.9074 27.9765 11.9074ZM26.8333 6.61111C25.0003 6.37963 23.961 5.37037 23.7437 3.57407C19.6715 3.57407 15.6087 3.57407 11.5459 3.57407C11.3664 5.42593 10.1664 6.33333 8.43738 6.78704C8.43738 6.88889 8.43738 7 8.43738 7.12037C8.43738 8.03704 8.44683 8.9537 8.42793 9.86111C8.41848 10.1389 8.49407 10.2407 8.78697 10.2685C10.0436 10.4167 11.064 11.2963 11.4042 12.5C11.4703 12.7407 11.5081 12.9907 11.5553 13.2407C15.6276 13.2407 19.6809 13.2407 23.7437 13.2407C23.9705 11.4259 25.0192 10.4352 26.8333 10.2037C26.8333 9 26.8333 7.80556 26.8333 6.61111ZM27.986 10.7407C28.0521 10.7685 28.0805 10.787 28.1183 10.787C28.4679 10.787 28.8269 10.7963 29.1765 10.7963C29.7623 10.7963 29.8757 10.6944 29.8757 10.1019C29.8757 7.33333 29.8757 4.57407 29.8757 1.80556C29.8757 1.21296 29.7717 1.11111 29.1481 1.11111C23.4886 1.11111 17.8385 1.11111 12.1789 1.11111C12.075 1.11111 11.9427 1.07407 11.8671 1.12037C11.716 1.22222 11.5081 1.34259 11.4797 1.49074C11.4231 1.78704 11.4608 2.10185 11.4608 2.44444C11.6498 2.44444 11.801 2.44444 11.9522 2.44444C16.7141 2.44444 21.4666 2.44444 26.2286 2.44444C27.353 2.44444 27.986 3.05556 27.986 4.15741C27.986 6.23148 27.986 8.2963 27.986 10.3704C27.986 10.5 27.986 10.6296 27.986 10.7407ZM10.3648 3.57407C9.86408 3.57407 9.35387 3.55556 8.8531 3.59259C8.72083 3.60185 8.49407 3.77778 8.48462 3.88889C8.44683 4.40741 8.46572 4.93518 8.46572 5.46296C9.54283 5.38889 10.3554 4.58333 10.3648 3.57407ZM10.3743 13.2593C10.2798 12.1481 9.31607 11.2407 8.43738 11.4259C8.43738 11.8796 8.42793 12.3426 8.43738 12.8056C8.44683 13.0741 8.598 13.25 8.872 13.2593C9.37276 13.2685 9.86408 13.2593 10.3743 13.2593ZM24.9436 3.56481C24.8964 4.55556 25.8034 5.4537 26.8427 5.44444C26.8427 4.98148 26.8427 4.52778 26.8427 4.06482C26.8427 3.73148 26.6538 3.57407 26.342 3.56481C25.8885 3.55556 25.4255 3.56481 24.9436 3.56481ZM26.8427 11.3704C25.7278 11.4259 24.8114 12.3704 24.972 13.2593C25.4349 13.2593 25.9074 13.2685 26.3798 13.2593C26.6443 13.25 26.8333 13.1204 26.8427 12.8426C26.8522 12.3611 26.8427 11.8796 26.8427 11.3704Z" fill="white"/>
<path d="M6.90674 3.07429C6.83115 3.4354 6.76501 3.77799 6.69887 4.08355C5.88632 4.12984 5.06431 4.12984 4.27065 4.25021C3.54313 4.36132 2.8345 4.5928 2.11643 4.78725C1.91801 4.8428 1.72905 4.95392 1.54953 5.06503C0.992076 5.40762 0.992076 5.77799 1.54953 6.12058C2.36208 6.61132 3.26913 6.82429 4.19506 6.9354C5.00762 7.03725 5.83907 7.05577 6.69887 7.11132C6.69887 7.3891 6.69887 7.74095 6.69887 8.1391C4.79976 8.24095 2.94788 8.07429 1.16215 7.22243C1.16215 7.71318 1.10546 8.17614 1.19049 8.62058C1.22828 8.83355 1.50229 9.07429 1.72905 9.15762C2.48491 9.4354 3.25968 9.71318 4.05334 9.85206C4.91314 10.0095 5.81073 10.0095 6.71777 10.0743C6.71777 10.3613 6.71777 10.7132 6.71777 11.0558C5.67845 11.2317 2.88174 11.0743 1.21884 10.1947C0.973179 10.9447 1.12435 11.3613 1.84243 11.6854C3.25023 12.3243 4.75251 12.5187 6.29259 12.4724C6.42487 12.4724 6.5477 12.4539 6.69887 12.4447C6.74611 12.8058 6.79336 13.1576 6.8406 13.5465C4.89424 13.6576 2.99512 13.5095 1.19994 12.6576C1.02987 13.5372 1.19049 13.8706 1.9936 14.2039C3.29747 14.741 4.67693 14.8984 6.08473 14.8891C6.63273 14.8891 7.19019 14.8058 7.73819 14.7502C7.79488 14.741 7.86102 14.7224 7.90826 14.741C8.73026 15.0465 9.59006 14.9169 10.431 14.9447C10.4499 14.9447 10.4688 14.9632 10.5443 15.0095C10.242 15.1484 9.98689 15.315 9.70344 15.3984C7.08625 16.2039 4.45962 16.241 1.85187 15.3613C1.51173 15.2502 1.19049 15.0558 0.888144 14.8521C0.302347 14.4447 0 13.8891 0.00944834 13.1576C0.0188967 10.6854 0.0188967 8.21318 0 5.73169C0 5.12058 0.236208 4.65762 0.718074 4.29651C1.4456 3.74095 2.30539 3.49095 3.18409 3.29651C4.41237 3.03725 5.65011 2.94466 6.90674 3.07429Z" fill="white"/>
<path d="M14.0686 8.69439C14.0591 6.78699 15.6559 5.22217 17.6212 5.20365C19.5959 5.19439 21.2399 6.76847 21.2399 8.67588C21.2399 10.6759 19.6903 12.1944 17.659 12.2037C15.6181 12.2037 14.078 10.7037 14.0686 8.69439ZM15.2213 8.70365C15.2213 10.0185 16.3078 11.1111 17.6306 11.1203C18.9723 11.1296 20.0872 10.0277 20.0872 8.70365C20.0777 7.38884 18.9912 6.31476 17.6495 6.31476C16.3078 6.31476 15.2213 7.37958 15.2213 8.70365Z" fill="white"/>
</g>
<defs>
<clipPath id="clip0_570_8226">
<rect width="31" height="16" fill="white"/>
</clipPath>
</defs>
</svg>
