<svg width="26" height="26" viewBox="0 0 26 26" fill="none" xmlns="http://www.w3.org/2000/svg">
<path d="M6.23105 2.42644C6.96751 2.44088 7.55235 2.67192 8.02888 3.14124C8.31769 3.43005 8.6426 3.56723 9.03249 3.40117C9.40794 3.2351 9.53069 2.92463 9.53791 2.52752C9.55957 1.1268 10.6643 0.0293251 12.065 0.0221049C12.8159 0.0148846 13.5668 -0.0284367 14.3105 0.0654262C15.5812 0.224271 16.4404 1.2712 16.4693 2.5564C16.4838 3.04016 16.6931 3.35063 17.0903 3.45171C17.4296 3.53835 17.6968 3.40839 17.9495 3.17734C18.7365 2.43366 19.6606 2.23149 20.6715 2.62138C20.9892 2.74413 21.2852 2.96073 21.5451 3.19178C21.9928 3.59611 22.4116 4.03655 22.8303 4.46976C23.8412 5.50947 23.8484 7.0185 22.852 8.07265C22.5776 8.36146 22.4404 8.67193 22.6065 9.04738C22.7726 9.42283 23.083 9.55279 23.4801 9.55279C24.8809 9.57445 25.9711 10.6719 25.9928 12.0726C26 12.6936 26 13.3145 25.9928 13.9427C25.9711 15.3578 24.8809 16.4481 23.4657 16.477C22.9675 16.4914 22.6859 16.6864 22.5704 17.0979C22.4765 17.4445 22.6065 17.7044 22.8448 17.9499C23.6173 18.7658 23.8051 19.8488 23.3502 20.8236C23.0758 21.4156 21.4007 23.0835 20.8087 23.3578C19.8412 23.8055 18.7653 23.6178 17.9567 22.8524C17.7184 22.6286 17.4657 22.4914 17.1264 22.5636C16.7076 22.6575 16.4838 22.9752 16.4693 23.4662C16.4404 24.6503 15.6967 25.6106 14.5776 25.9138C14.4838 25.9427 14.3827 25.9716 14.2888 25.9716C13.4152 25.9716 12.5343 26.0438 11.6679 25.9427C10.4116 25.7911 9.55957 24.7441 9.53791 23.4662C9.53069 23.0763 9.40794 22.773 9.03971 22.6142C8.66426 22.4481 8.34657 22.5636 8.05776 22.838C6.97473 23.856 5.48014 23.8416 4.41877 22.8019C4.01444 22.4048 3.61011 22.0004 3.213 21.5961C2.15884 20.5275 2.13718 19.0257 3.16967 17.9355C3.43682 17.6539 3.55957 17.3434 3.3935 16.9752C3.23466 16.6142 2.93863 16.477 2.54874 16.4698C1.09747 16.4481 0.0144404 15.3434 0 13.8921C0 13.3073 0 12.7225 0 12.1304C0.00722022 10.6647 1.09025 9.56723 2.55596 9.53835C3.03971 9.53113 3.35018 9.29287 3.44404 8.86687C3.50903 8.54196 3.37184 8.29648 3.16245 8.06543C2.41155 7.26398 2.21661 6.3398 2.61372 5.31453C2.72924 5.01128 2.93863 4.72969 3.15523 4.4842C3.57401 4.02211 4.02888 3.59611 4.46931 3.1629C4.97473 2.67192 5.58845 2.41922 6.23105 2.42644ZM17.3718 20.8091C17.9856 20.8236 18.5993 21.069 19.1119 21.5672C19.5235 21.9643 19.9711 21.9643 20.3755 21.56C20.7581 21.1846 21.1336 20.8091 21.509 20.4337C21.9783 19.9643 21.9783 19.56 21.5235 19.069C21.0614 18.5781 20.8231 18.0004 20.8087 17.3362C20.7798 15.921 21.9134 14.7658 23.343 14.7369C23.9639 14.7225 24.2671 14.4192 24.2671 13.7983C24.2671 13.2495 24.2671 12.7008 24.2671 12.1449C24.2671 11.6106 23.935 11.2856 23.4152 11.2712C22.2888 11.2423 21.4513 10.7297 21.018 9.68998C20.5848 8.65749 20.8087 7.71164 21.5668 6.89575C21.9567 6.47698 21.9567 6.03655 21.5596 5.63221C21.1841 5.24954 20.8087 4.88131 20.4332 4.50586C19.9639 4.04377 19.5596 4.03655 19.0758 4.49142C18.5921 4.94629 18.0217 5.18456 17.3646 5.20622C15.9422 5.24232 14.7653 4.10875 14.7437 2.67192C14.7292 2.05099 14.426 1.74774 13.8051 1.74774C13.2563 1.74774 12.7076 1.74774 12.1516 1.74774C11.6173 1.74774 11.2996 2.07265 11.278 2.59972C11.2708 2.82355 11.2491 3.0546 11.1986 3.2712C10.7076 5.18456 8.38267 5.8416 6.93863 4.4842C6.46931 4.04377 6.05054 4.04377 5.59567 4.49864C5.23466 4.85243 4.88087 5.21344 4.52708 5.56723C4.04332 6.05099 4.02888 6.45532 4.49819 6.94629C4.96029 7.43727 5.19856 8.01489 5.20578 8.67915C5.22744 10.1087 4.09386 11.2423 2.6426 11.2712C2.0722 11.2784 1.75451 11.6033 1.74729 12.1593C1.74729 12.7369 1.74007 13.3145 1.74729 13.8921C1.75451 14.3903 2.08664 14.7153 2.57762 14.7369C2.80866 14.7514 3.04693 14.7586 3.27076 14.8163C5.18411 15.3073 5.83393 17.625 4.47653 19.0763C4.0361 19.5456 4.0361 19.9643 4.49097 20.4192C4.86643 20.7947 5.24188 21.1773 5.61733 21.5456C6.0361 21.9571 6.46931 21.9571 6.90253 21.5528C7.71841 20.7947 8.66426 20.5708 9.69675 21.0113C10.7292 21.4445 11.2347 22.2748 11.2635 23.3867C11.278 23.9355 11.6029 24.2604 12.1444 24.2604C12.6787 24.2604 13.2058 24.2604 13.7401 24.2604C14.4188 24.2604 14.7148 23.9788 14.7292 23.3001C14.7653 21.9355 15.9061 20.8163 17.3718 20.8091Z" fill="white"/>
<path d="M6.93164 13.0113C6.93164 9.67555 9.65367 6.93908 12.9822 6.9463C16.3468 6.9463 19.0544 9.65389 19.0616 13.0185C19.0688 16.3254 16.3396 19.0763 13.0544 19.0763C9.65367 19.069 6.93886 16.3831 6.93164 13.0113ZM17.3288 13.0185C17.3288 10.6286 15.3937 8.67194 13.0255 8.67194C10.6067 8.67194 8.67171 10.5997 8.66449 13.0185C8.66449 15.4012 10.6212 17.3434 13.0183 17.3362C15.3865 17.3362 17.3288 15.3795 17.3288 13.0185Z" fill="white"/>
</svg>
