<svg width="30" height="26" viewBox="0 0 30 26" fill="none" xmlns="http://www.w3.org/2000/svg">
<path d="M30 2.38456C30 6.04139 30 9.69821 30 13.355C29.908 13.6278 29.8471 13.9157 29.7188 14.17C29.1873 15.2252 28.2949 15.7227 27.1213 15.7325C25.8035 15.743 24.4852 15.7349 23.1674 15.7349C23.0643 15.7349 22.9611 15.7349 22.8264 15.7349C22.8668 15.8643 22.8914 15.9554 22.9242 16.0442C23.7105 18.1646 24.4975 20.285 25.2844 22.4054C25.5803 23.2029 25.8838 23.9975 26.1686 24.7986C26.3373 25.2722 26.1357 25.729 25.7074 25.9148C25.2551 26.111 24.8068 25.9386 24.559 25.4678C24.5098 25.3744 24.474 25.2734 24.4371 25.1735C23.3039 22.1198 22.1672 19.0678 21.0475 16.0094C20.9549 15.7569 20.8207 15.7384 20.5992 15.7273C20.3637 15.7151 20.2857 15.819 20.2143 16.0146C19.1016 19.0655 17.9824 22.1134 16.8621 25.1613C16.8088 25.3059 16.7449 25.4481 16.667 25.581C16.4941 25.877 16.2176 26.0158 15.8824 25.9879C15.5139 25.9571 15.2057 25.7691 15.1289 25.4034C15.0773 25.1567 15.109 24.8618 15.1957 24.6221C16.2264 21.7779 17.2746 18.9407 18.317 16.1011C18.358 15.9885 18.3926 15.8736 18.4383 15.7354C17.4111 15.7354 16.4256 15.7308 15.44 15.7436C15.351 15.7447 15.2367 15.8388 15.1781 15.9206C14.4955 16.8807 13.3564 17.2504 12.2637 16.7832C11.3607 16.3977 10.4936 15.9305 9.60996 15.5004C9.51797 15.4557 9.42246 15.4197 9.28887 15.3622C9.28887 15.5306 9.28887 15.6548 9.28887 15.779C9.28887 18.835 9.29004 21.8917 9.28769 24.9477C9.28711 25.6663 8.95137 25.9978 8.23184 25.9984C6.46465 26.0001 4.69746 26.0001 2.93027 25.9984C2.2125 25.9978 1.87793 25.6605 1.87734 24.9437C1.87617 23.4833 1.87266 22.0229 1.88203 20.5625C1.8832 20.3413 1.83398 20.2206 1.60898 20.1318C1.14551 19.9495 0.75 19.643 0.506836 19.2147C0.292969 18.835 0.16582 18.4061 0 17.9986C0 16.8186 0 15.6379 0 14.4579C0.0164062 14.3836 0.0404297 14.3099 0.0486328 14.2344C0.175781 13.0956 0.605859 12.0804 1.39043 11.2416C1.80996 10.7935 2.30625 10.4162 2.76562 10.0087C0.751758 8.1043 1.21582 5.382 2.65254 3.99995C4.20937 2.50181 6.62402 2.40662 8.27578 3.77764C9.91289 5.13705 10.4121 7.83091 8.62266 9.80037C9.50391 10.2334 10.3816 10.6652 11.3016 11.1168C11.3016 10.9624 11.3016 10.8591 11.3016 10.7564C11.3016 8.12519 11.2969 5.4946 11.3033 2.86343C11.3074 1.21902 12.4535 0.018076 14.0859 0.0116911C18.4605 -0.00630279 22.8346 8.21426e-05 27.2092 0.00936931C28.0945 0.0111107 28.8322 0.361701 29.4006 1.05127C29.7246 1.44482 29.8664 1.91092 30 2.38456ZM15.498 13.9813C15.5982 13.9866 15.665 13.9929 15.7318 13.9929C19.5305 13.9935 23.3291 13.9941 27.1283 13.9924C27.8449 13.9918 28.241 13.589 28.2416 12.8669C28.2428 9.54845 28.2428 6.23061 28.2422 2.91219C28.2422 2.12162 27.8584 1.74607 27.0516 1.74607C22.7842 1.74549 18.5168 1.74549 14.2488 1.74607C13.4291 1.74607 13.0605 2.1164 13.06 2.93889C13.0594 4.82535 13.06 6.7118 13.06 8.59826C13.06 9.64307 13.0582 10.6879 13.0635 11.7327C13.0641 11.8285 13.0816 11.9776 13.1426 12.0119C13.4947 12.2086 13.8621 12.3787 14.2365 12.5633C14.6988 11.6479 15.143 10.7668 15.5883 9.88685C15.7676 9.53278 15.9363 9.1729 16.1332 8.8287C16.3271 8.4903 16.6453 8.36028 17.0291 8.41948C17.3924 8.4752 17.6607 8.69345 17.7135 9.04404C17.7492 9.28261 17.6982 9.56877 17.5916 9.78876C16.9518 11.1023 16.2844 12.4025 15.627 13.7074C15.5842 13.7909 15.5473 13.8769 15.498 13.9813ZM7.53281 24.2477C7.53281 24.0904 7.53281 23.9662 7.53281 23.8426C7.53281 20.6414 7.53281 17.4402 7.5334 14.2385C7.5334 14.0939 7.53574 13.9477 7.55391 13.8043C7.60605 13.405 7.93711 13.0758 8.33789 13.0758C8.54238 13.0758 8.76211 13.1414 8.94844 13.2314C10.2264 13.8519 11.4937 14.4939 12.7752 15.108C12.9604 15.1968 13.2141 15.2247 13.4139 15.1817C13.6494 15.1312 13.8 14.9188 13.8187 14.6651C13.8398 14.3847 13.6629 14.2251 13.4279 14.1096C11.8383 13.3283 10.2328 12.5772 8.66719 11.7513C7.64648 11.2126 6.59414 11.021 5.45566 11.0762C3.40254 11.176 1.79824 12.7694 1.76133 14.8073C1.74434 15.7453 1.75254 16.6833 1.75957 17.6219C1.76367 18.2006 2.12168 18.5796 2.70117 18.6464C3.35977 18.7219 3.63516 19.0219 3.63574 19.6715C3.63691 21.093 3.63574 22.5151 3.63691 23.9366C3.63691 24.0382 3.6457 24.1398 3.65098 24.2483C4.95293 24.2477 6.22031 24.2477 7.53281 24.2477ZM7.98516 7.05775C8.09473 5.7738 7.0623 4.62625 5.66367 4.55602C4.42617 4.49391 3.25371 5.40579 3.18047 6.84473C3.11836 8.0596 4.03652 9.25591 5.50664 9.31918C6.77813 9.37432 7.92832 8.38814 7.98516 7.05775Z" fill="white"/>
<path d="M20.6555 5.46946C19.0939 5.46946 17.5318 5.47527 15.9703 5.46656C15.3141 5.46308 14.8957 4.87218 15.1254 4.29406C15.2314 4.02763 15.4248 3.84131 15.7119 3.77397C15.8432 3.74321 15.982 3.73044 16.1174 3.73044C19.1432 3.72812 22.1695 3.7287 25.1953 3.72928C25.2732 3.72928 25.3518 3.72928 25.4291 3.73915C25.9172 3.803 26.2641 4.19596 26.2348 4.64871C26.2037 5.12003 25.8422 5.46482 25.3418 5.46714C23.9654 5.47411 22.5891 5.47004 21.2127 5.47062C21.0269 5.47062 20.8418 5.47062 20.656 5.47062C20.6555 5.47004 20.6555 5.47004 20.6555 5.46946Z" fill="white"/>
<path d="M22.9969 6.99951C23.7668 6.99951 24.5373 6.98732 25.3072 7.00357C25.9705 7.0175 26.3789 7.55326 26.1879 8.13371C26.083 8.45179 25.858 8.64973 25.5223 8.71706C25.5129 8.7188 25.5029 8.72112 25.4936 8.72112C23.8371 8.7217 22.1807 8.73273 20.5242 8.71474C20.1328 8.71067 19.8492 8.38794 19.7895 8.00485C19.7033 7.44703 20.0918 7.01344 20.7158 7.00299C21.4758 6.98964 22.2363 6.99951 22.9969 6.99951Z" fill="white"/>
<path d="M22.9957 10.2687C23.7463 10.2687 24.4975 10.2664 25.2481 10.2693C25.8434 10.2716 26.2418 10.6274 26.2359 11.1411C26.2301 11.6415 25.8316 12.006 25.2615 12.0077C23.7504 12.0129 22.2393 12.0129 20.7275 12.0071C20.2096 12.0054 19.8592 11.7181 19.7895 11.2694C19.7227 10.8422 19.957 10.4457 20.3701 10.3169C20.4973 10.2774 20.6379 10.2704 20.7727 10.2699C21.5139 10.2664 22.2545 10.2687 22.9957 10.2687Z" fill="white"/>
</svg>
