<svg width="23" height="24" viewBox="0 0 23 24" fill="none" xmlns="http://www.w3.org/2000/svg">
<path d="M0.84456 12.0088C0.84456 9.55742 0.838552 7.10446 0.846062 4.65308C0.855074 2.44276 2.2609 0.891469 4.38016 0.83355C6.2561 0.781892 8.13505 0.841377 10.011 0.800677C10.7605 0.783458 10.7785 1.20768 10.789 1.79156C10.7995 2.37701 10.6583 2.63843 10.0365 2.62591C8.31078 2.58991 6.58353 2.61026 4.85628 2.61495C3.27773 2.61808 2.66042 3.25363 2.66042 4.86597C2.65892 9.66543 2.65892 14.4649 2.66042 19.2643C2.66042 20.6575 3.33931 21.3745 4.68656 21.3839C6.46337 21.3948 8.24018 21.4089 10.017 21.376C10.6148 21.3651 10.813 21.578 10.7875 22.19C10.765 22.7504 10.7995 23.2169 10.029 23.1997C8.1771 23.1606 6.32519 23.2154 4.47328 23.1731C2.2594 23.1214 0.853572 21.5905 0.846062 19.2863C0.840054 16.8599 0.84456 14.4351 0.84456 12.0088Z" fill="white" stroke="white" stroke-width="0.5"/>
<path d="M18.8299 10.887C17.6522 9.76101 16.4745 8.63498 15.2146 7.43293C15.7046 7.06859 16.1337 6.74871 16.6008 6.40015C17.4711 7.21203 18.4236 8.09564 19.3701 8.98785C20.1765 9.7481 20.9723 10.5184 21.7757 11.2829C22.1895 11.6774 22.328 12.1264 21.8837 12.5452C20.0928 14.2307 18.2776 15.8932 16.4334 17.6001C16.0743 17.2774 15.6802 16.9231 15.2161 16.5057C16.4654 15.3208 17.6476 14.1977 18.8314 13.076C18.8025 13.0129 18.7751 12.9512 18.7462 12.8881C18.4617 12.8723 18.1756 12.8422 17.8911 12.8422C14.8738 12.8393 11.8565 12.8192 8.84072 12.8551C8.10884 12.8637 7.94451 12.6169 7.94755 11.9829C7.95212 11.3676 8.07232 11.0879 8.8255 11.0979C11.8413 11.1366 14.8586 11.1137 17.8759 11.1137C18.1497 11.1137 18.4221 11.1137 18.696 11.1137C18.7401 11.0362 18.7858 10.9616 18.8299 10.887Z" fill="white" stroke="white" stroke-width="0.5"/>
</svg>
