<svg width="25" height="27" viewBox="0 0 25 27" fill="none" xmlns="http://www.w3.org/2000/svg">
<path d="M4.54514 9.0035C4.54514 8.87452 4.54514 8.77404 4.54514 8.67356C4.54514 6.58372 4.54438 4.49312 4.54514 2.40328C4.54589 0.956811 5.50326 0.0059954 6.96053 0.00524555C11.2021 0.00449569 15.4436 0.00749511 19.6851 -3.43315e-06C19.9949 -0.000753287 20.2221 0.0989773 20.4372 0.312686C21.8513 1.72316 23.2707 3.12764 24.6946 4.52762C24.9029 4.73308 25.0006 4.95203 24.9999 5.24823C24.9938 11.706 24.9961 18.1645 24.9946 24.6222C24.9946 26.0454 24.0274 26.9993 22.5868 26.9993C17.3795 27 12.1723 27 6.96508 26.9993C5.50629 26.9993 4.54665 26.0492 4.54438 24.6065C4.54362 24.1026 4.54438 23.5987 4.54438 23.0633C4.09826 23.0633 3.67562 23.064 3.25299 23.0633C1.32537 23.061 0.00140526 21.757 0.000647841 19.8554C-0.000866989 17.0059 -0.000866989 14.1565 0.000647841 11.307C0.00140526 9.99555 0.986044 9.01325 2.31152 9.00425C3.04015 8.999 3.76954 9.0035 4.54514 9.0035ZM19.3147 1.13003C19.186 1.13003 19.0936 1.13003 19.0004 1.13003C14.9869 1.13003 10.9733 1.13003 6.96053 1.13003C6.13343 1.13003 5.68201 1.57769 5.68201 2.39953C5.68126 5.62315 5.68201 8.84678 5.68201 12.0704C5.68201 12.1686 5.68201 12.2676 5.68201 12.3778C5.83728 12.3778 5.95014 12.3778 6.06299 12.3778C10.7105 12.3778 15.358 12.3778 20.0055 12.3778C21.3257 12.3778 22.1543 13.1937 22.155 14.4962C22.1558 16.6235 22.1558 18.7509 22.155 20.8782C22.155 22.2624 21.3499 23.0633 19.9593 23.0633C15.3118 23.0633 10.6643 23.0633 6.01679 23.0633C5.90848 23.0633 5.79941 23.0633 5.68201 23.0633C5.68201 23.6047 5.68126 24.1011 5.68201 24.5975C5.68277 25.4336 6.13116 25.8752 6.98098 25.8752C12.1776 25.8752 17.3742 25.8752 22.5708 25.8752C23.4131 25.8752 23.8592 25.4291 23.8592 24.587C23.8592 18.3737 23.8592 12.1611 23.8592 5.94784C23.8592 5.84811 23.8592 5.74913 23.8592 5.6299C23.7221 5.6299 23.6199 5.6299 23.5169 5.6299C22.3906 5.6299 21.2643 5.6299 20.1373 5.6299C19.4723 5.6299 19.314 5.47468 19.314 4.82156C19.3147 3.6038 19.3147 2.38603 19.3147 1.13003ZM1.13677 13.2019C1.13677 13.3354 1.13677 13.4254 1.13677 13.5146C1.13677 15.6232 1.13601 17.7318 1.13677 19.8404C1.13753 21.1414 1.94417 21.9377 3.26359 21.9377C8.83892 21.9385 14.415 21.9377 19.9903 21.9377C20.697 21.9377 21.0189 21.6235 21.0189 20.9322C21.0197 18.7951 21.0197 16.6588 21.0189 14.5217C21.0189 13.8116 20.7023 13.5019 19.9767 13.5019C14.2878 13.5019 8.59806 13.5011 2.90912 13.5034C2.31303 13.5041 1.71543 13.5326 1.13677 13.2019ZM4.53074 10.1283C3.78166 10.1283 3.04545 10.1245 2.31 10.129C1.64121 10.1335 1.13904 10.6172 1.13677 11.2478C1.1345 11.8799 1.63515 12.3703 2.30092 12.3756C2.98259 12.3816 3.66351 12.3778 4.34518 12.3763C4.40729 12.3763 4.47015 12.3621 4.52999 12.3546C4.53075 11.6092 4.53074 10.8819 4.53074 10.1283ZM20.466 2.00286C20.466 2.83595 20.466 3.65779 20.466 4.48488C21.3151 4.48488 22.149 4.48488 22.9503 4.48488C22.1293 3.66453 21.3014 2.83745 20.466 2.00286Z" fill="white"/>
</svg>
