<svg width="28" height="23" viewBox="0 0 28 23" fill="none" xmlns="http://www.w3.org/2000/svg">
<g clip-path="url(#clip0_377_5462)">
<path d="M-0.000247396 20.0719C0.0179818 20.0331 0.0427734 19.9957 0.053711 19.9548C0.318399 18.9936 1.08402 18.4041 2.09173 18.402C4.0233 18.3984 5.95559 18.4005 7.88715 18.4005C13.7555 18.4005 19.6238 18.4005 25.4929 18.4005C26.9942 18.4005 27.4944 18.7449 27.9998 20.1259C27.9998 20.5212 27.9998 20.9166 27.9998 21.312C27.9144 21.527 27.8547 21.7563 27.7402 21.9547C27.3122 22.6966 26.645 23.0014 25.7882 23.0007C17.9292 22.9942 10.071 22.9971 2.21204 22.9971C2.1209 22.9971 2.02975 22.9956 1.93861 22.992C1.09423 22.9554 0.368711 22.409 0.103294 21.6132C0.0697526 21.5126 0.0340234 21.4127 -0.000976562 21.3127C-0.000247396 20.8987 -0.000247396 20.4853 -0.000247396 20.0719Z" fill="#FFC17E"/>
<path d="M11.0881 8.04873C11.0881 7.90424 11.0881 7.79784 11.0881 7.69145C11.0881 5.66132 11.0874 3.63119 11.0881 1.60106C11.0889 0.565862 11.6591 0.00297481 12.7076 0.00153704C13.5914 9.92708e-05 14.4751 -0.0013385 15.3589 0.00225592C16.317 0.00656923 16.9091 0.587428 16.9105 1.53276C16.9142 3.58949 16.912 5.64694 16.912 7.70367C16.912 7.80934 16.912 7.9143 16.912 8.04801C17.0389 8.04801 17.1366 8.04801 17.2343 8.04801C18.1727 8.04801 19.1112 8.05089 20.0496 8.04657C20.4543 8.04514 20.7605 8.20257 20.9239 8.57208C21.0887 8.94374 20.9866 9.27083 20.7088 9.55767C18.7014 11.6295 16.6962 13.7035 14.6873 15.7739C14.252 16.2224 13.7438 16.2167 13.3055 15.7638C11.3032 13.6992 9.30459 11.6317 7.3023 9.56773C7.02449 9.28162 6.91146 8.95956 7.07115 8.58502C7.23449 8.20257 7.54803 8.04442 7.96365 8.04657C8.99178 8.05233 10.0206 8.04873 11.0881 8.04873Z" fill="#FFC17E"/>
</g>
<defs>
<clipPath id="clip0_377_5462">
<rect width="28" height="23" fill="white"/>
</clipPath>
</defs>
</svg>
