<svg width="40" height="41" viewBox="0 0 40 41" fill="none" xmlns="http://www.w3.org/2000/svg">
<path d="M37.4517 23.5221L34.4983 21.533L31.7283 23.3978L35.7127 26.0853C36.0869 26.3376 36.0869 26.8897 35.7127 27.142L19.7752 37.881C19.7458 37.8993 19.7165 37.9103 19.6871 37.9103C19.6027 37.9103 19.5257 37.8445 19.5257 37.7494V34.7548L5.78579 25.4929C5.41157 25.2406 5.41157 24.6885 5.78579 24.4362L18.902 15.5985C19.0928 15.4705 19.3092 15.4084 19.5293 15.4084C19.7495 15.4084 19.9659 15.4705 20.1567 15.5985L25.9388 19.4963L28.7088 17.6315L21.8921 13.039C21.1913 12.5673 20.3732 12.315 19.5257 12.315C18.6782 12.315 17.8637 12.5636 17.1593 13.039L4.04675 21.8767C3.0158 22.5714 2.39944 23.7268 2.39944 24.9664C2.39944 26.2059 3.0158 27.3614 4.04675 28.0561L16.4255 36.3965V37.7494C16.4255 39.5411 17.8894 41 19.6871 41C20.3402 41 20.9712 40.8062 21.5142 40.4406L37.4517 29.7015C38.4827 29.0068 39.099 27.8513 39.099 26.6118C39.099 25.3722 38.4827 24.2168 37.4517 23.5221Z" fill="#00A29A"/>
<path d="M35.0486 12.9439L22.6736 4.6035V3.2506C22.6736 1.45893 21.2097 0 19.4083 0C18.7552 0 18.1242 0.193793 17.5812 0.55944L1.64732 11.2948C0.616369 11.9896 0 13.145 0 14.3882C0 15.6278 0.616369 16.7832 1.64732 17.4779L4.60075 19.467L7.37074 17.6022L3.38269 14.9147C3.00847 14.6624 3.00847 14.1103 3.38269 13.858L19.3202 3.11897C19.3496 3.10069 19.3789 3.08972 19.4083 3.08972C19.4927 3.08972 19.5697 3.15553 19.5697 3.2506V6.24525L33.3096 15.5034C33.6838 15.7557 33.6838 16.3079 33.3096 16.5602L20.1971 25.3978C20.0063 25.5258 19.7898 25.588 19.5697 25.588C19.3496 25.588 19.1331 25.5222 18.9423 25.3978L13.1602 21.5037L10.3902 23.3685L17.2033 27.961C17.904 28.4327 18.7222 28.6814 19.5697 28.6814C20.4172 28.6814 21.2354 28.4327 21.9361 27.961L35.0486 19.1233C36.0796 18.4286 36.696 17.2732 36.696 16.0336C36.696 14.7941 36.0796 13.6386 35.0486 12.9439Z" fill="#8FC31F"/>
</svg>
