<svg width="23" height="23" viewBox="0 0 23 23" fill="none" xmlns="http://www.w3.org/2000/svg">
<g clip-path="url(#clip0_172_3139)">
<path d="M0 8.49323C0.0778443 8.03802 0.131737 7.57682 0.227545 7.1276C1.02994 3.52786 3.99401 0.730729 7.62874 0.131771C7.91617 0.0838542 8.20359 0.0479167 8.48503 0C8.92216 0 9.35329 0 9.79042 0C9.8503 0.0119792 9.90419 0.0299479 9.96407 0.0359375C10.4551 0.119792 10.9581 0.167708 11.4431 0.2875C16.2096 1.50339 19.1617 6.31302 18.1018 11.1286C17.0719 15.8125 12.5389 18.9391 7.83234 18.2203C4.0479 17.6453 1.07186 14.8721 0.227545 11.1346C0.11976 10.6974 0.0718563 10.2422 0 9.79297C0 9.36172 0 8.92448 0 8.49323ZM15.1677 9.29583C15.2695 6.06146 12.6347 3.25234 9.4012 3.15052C6.05988 3.0487 3.25748 5.6362 3.1497 8.91849C3.04192 12.2966 5.62874 15.0518 9.01198 15.1656C12.2934 15.2794 15.0599 12.638 15.1677 9.29583Z" fill="#FBFBFB"/>
<path d="M17.6467 14.3811C16.8024 15.7288 15.7245 16.8069 14.3952 17.6394C14.4431 17.6993 14.479 17.7413 14.521 17.7832C16.018 19.2806 17.515 20.784 19.012 22.2754C20.0778 23.3355 21.7245 23.2098 22.5748 22.0178C23.2036 21.1314 23.1437 19.9095 22.3832 19.1249C21.1257 17.8311 19.8383 16.5673 18.5629 15.2915C18.2635 15.004 17.9701 14.7045 17.6467 14.3811Z" fill="#FBFBFB"/>
</g>
<defs>
<clipPath id="clip0_172_3139">
<rect width="23" height="23" fill="white"/>
</clipPath>
</defs>
</svg>
