<svg width="40" height="45" viewBox="0 0 40 45" fill="none" xmlns="http://www.w3.org/2000/svg">
<path d="M32.2695 45C24.0934 45 15.9172 45 7.74109 45C7.70847 44.978 7.67585 44.9341 7.63236 44.9341C5.53397 44.6595 3.39208 42.7154 3.47906 39.7718C3.48993 39.4752 3.47906 39.1677 3.47906 38.8711C1.38066 38.8272 0.021596 37.3334 0.0107235 35.4442C-0.000149069 31.8086 -0.0110216 28.184 0.0107235 24.5484C0.021596 23.1425 0.652202 22.0661 1.93516 21.462C2.39181 21.2424 2.92456 21.1875 3.47906 21.0337C3.47906 20.9129 3.47906 20.7371 3.47906 20.5614C3.47906 15.432 3.47906 10.3136 3.47906 5.18428C3.47906 2.14181 5.58833 0.0109836 8.61089 0.0109836C14.2972 0 19.9727 0.0109836 25.659 0C27.192 0 28.475 0.527215 29.5514 1.62558C31.3345 3.44886 33.1284 5.26117 34.9333 7.06248C36.0205 8.14987 36.5424 9.44594 36.5424 10.9946C36.5207 14.2019 36.5424 17.4091 36.5424 20.6163C36.5424 20.7701 36.5424 20.9348 36.5424 21.0996C36.6946 21.1216 36.8033 21.1545 36.9121 21.1655C38.5103 21.2314 39.9999 22.5824 40.0107 24.5924C40.0107 28.195 40.0216 31.7977 40.0107 35.4003C40.0107 36.5646 39.565 37.5311 38.6191 38.2341C38.0211 38.6734 37.3252 38.8601 36.5424 38.8601C36.5424 39.2995 36.5641 39.7059 36.5424 40.1123C36.4445 42.1113 35.5204 43.5831 33.7482 44.4838C33.2806 44.7254 32.7588 44.8243 32.2695 45ZM26.0069 2.64706C25.8221 2.64706 25.6808 2.64706 25.5394 2.64706C19.9183 2.64706 14.2972 2.64706 8.67613 2.64706C7.0235 2.64706 6.08846 3.58067 6.08846 5.25018C6.08846 10.3686 6.08846 15.4979 6.08846 20.6163C6.08846 20.7701 6.08846 20.9348 6.08846 21.0996C15.3845 21.0996 24.637 21.0996 33.8895 21.0996C33.8895 17.6837 33.8895 14.3007 33.8895 10.8958C32.3021 10.8958 30.7582 10.8958 29.2034 10.8958C27.2138 10.8958 26.0178 9.68758 26.0069 7.66658C26.0069 6.01904 26.0069 4.37149 26.0069 2.64706ZM19.9835 36.2131C25.4198 36.2131 30.8561 36.2131 36.2923 36.2131C37.2165 36.2131 37.3905 36.0373 37.3905 35.1257C37.3905 31.6988 37.3905 28.2719 37.3905 24.845C37.3905 23.9773 37.1948 23.7796 36.3467 23.7796C25.4524 23.7796 14.5473 23.7796 3.65302 23.7796C2.80496 23.7796 2.62013 23.9773 2.62013 24.856C2.62013 28.2829 2.62013 31.7098 2.62013 35.1367C2.62013 36.0373 2.80496 36.2241 3.68564 36.2241C9.11103 36.2131 14.5473 36.2131 19.9835 36.2131ZM6.08846 38.8601C6.08846 39.1896 6.08846 39.4752 6.08846 39.7718C6.08846 41.4083 7.0235 42.3639 8.65438 42.3639C16.2217 42.3639 23.7889 42.3639 31.3562 42.3639C31.6063 42.3639 31.8563 42.3639 32.0847 42.309C33.596 41.9356 34.1613 40.6395 33.846 38.8711C24.6261 38.8601 15.3953 38.8601 6.08846 38.8601ZM28.6163 4.51428C28.6163 5.63461 28.6272 6.72199 28.6163 7.79839C28.6163 8.13888 28.7577 8.27069 29.0947 8.2597C29.8884 8.24872 30.693 8.2597 31.4867 8.2597C31.7694 8.2597 32.0521 8.2597 32.3021 8.2597C31.0627 7.00757 29.8558 5.7774 28.6163 4.51428Z" fill="#FFC17E"/>
<path d="M17.1895 30.0296C17.1895 28.6676 17.2003 27.3057 17.1895 25.9437C17.1895 25.5153 17.3417 25.1748 17.7548 25.1419C19.1248 25.032 20.5056 24.9112 21.8538 25.2956C23.0497 25.6471 23.6803 26.5368 23.7238 27.767C23.7782 29.2717 23.7782 30.7765 23.7238 32.2812C23.6695 33.819 22.6148 34.8075 20.9622 34.9283C19.9837 34.9942 18.9943 34.9722 18.0049 34.9503C17.4178 34.9393 17.1895 34.6647 17.1895 34.0496C17.1895 32.7206 17.1895 31.3806 17.1895 30.0296ZM19.3096 26.9542C19.3096 29.0191 19.3096 31.0621 19.3096 33.127C19.6466 33.127 19.9402 33.127 20.2446 33.127C21.2993 33.127 21.6472 32.7865 21.6581 31.7101C21.6689 30.6008 21.6689 29.4914 21.6581 28.3821C21.6581 28.1734 21.6363 27.9757 21.5928 27.778C21.5058 27.3057 21.2232 27.0091 20.7556 26.9652C20.2881 26.9322 19.8206 26.9542 19.3096 26.9542Z" fill="#FFC17E"/>
<path d="M11.6554 31.3696C11.6554 32.2922 11.6445 33.138 11.6554 33.9837C11.6663 34.4231 11.5684 34.7526 11.1009 34.8954C10.579 35.0491 9.90493 34.9503 9.68748 34.6318C9.6005 34.5109 9.56788 34.3352 9.56788 34.1814C9.55701 31.4026 9.56788 28.6237 9.55701 25.8448C9.55701 25.4714 9.70922 25.1638 10.068 25.1419C11.5358 25.054 13.0253 24.8892 14.4605 25.3176C15.4064 25.5922 15.9935 26.2952 16.1675 27.2837C16.3523 28.3271 16.3415 29.3706 15.6782 30.2712C15.1346 31.0071 14.33 31.3037 13.4494 31.3696C12.8731 31.4026 12.286 31.3696 11.6554 31.3696ZM11.6772 26.8993C11.6772 27.8988 11.6772 28.8214 11.6772 29.777C12.1882 29.777 12.6774 29.8099 13.1667 29.766C13.7212 29.7221 14.0256 29.4365 14.1126 28.9093C14.2105 28.2393 14.3083 27.5583 13.6451 27.086C13.569 27.0311 13.4602 26.9871 13.3624 26.9871C12.8079 26.9432 12.2534 26.9212 11.6772 26.8993Z" fill="#FFC17E"/>
<path d="M27.214 26.9212C27.214 27.701 27.214 28.415 27.214 29.2058C27.812 29.2058 28.3991 29.1948 28.9862 29.2058C29.606 29.2168 29.943 29.6451 29.8125 30.2492C29.7256 30.6446 29.4864 30.8533 29.0732 30.8423C28.4643 30.8423 27.8555 30.8423 27.214 30.8423C27.2031 31.0291 27.1923 31.1828 27.1923 31.3366C27.1923 32.2483 27.1923 33.1489 27.1923 34.0606C27.1923 34.6427 26.9857 34.8843 26.4203 34.9612C26.2681 34.9832 26.105 34.9832 25.9419 34.9722C25.3222 34.9063 25.1047 34.6647 25.1047 34.0386C25.1047 31.3805 25.1047 28.7115 25.1047 26.0535C25.1047 26.0095 25.1047 25.9656 25.1047 25.9217C25.1265 25.4164 25.2896 25.2187 25.8006 25.1308C25.9419 25.1089 26.0833 25.0869 26.2355 25.0869C27.6272 25.0869 29.0188 25.0869 30.4105 25.0869C30.7584 25.0869 31.0846 25.1418 31.2151 25.5263C31.3564 25.9436 31.3782 26.383 31.0629 26.7235C30.9324 26.8553 30.6823 26.9102 30.4758 26.9212C29.5625 26.9432 28.6492 26.9322 27.7359 26.9322C27.5511 26.9212 27.3988 26.9212 27.214 26.9212Z" fill="#FFC17E"/>
</svg>
