<svg width="308" height="81" viewBox="0 0 308 81" fill="none" xmlns="http://www.w3.org/2000/svg">
<path d="M120.382 48.7748C119.484 50.9853 116.087 58.0935 105.634 58.0935C100.788 58.0935 97.1156 56.7137 94.1384 53.882C90.8136 50.7758 89.4301 46.9111 89.4301 42.2157C89.4301 36.2777 91.8567 32.6153 94.0008 30.477C97.5357 27.0241 101.686 26.2656 105.286 26.2656C111.378 26.2656 114.913 28.6856 116.985 31.1705C120.172 34.9702 120.585 39.6657 120.585 42.9091V43.6026H98.1514C98.1514 45.4013 98.6367 47.3301 99.6074 48.6448C100.506 49.8873 102.374 51.4765 105.634 51.4765C108.821 51.4765 111.241 49.9595 112.624 47.5396L120.382 48.7748ZM112.631 38.2137C111.936 34.1395 108.618 32.2035 105.496 32.2035C102.382 32.2035 99.1293 34.2045 98.4339 38.2137H112.631Z" fill="#3F3B3A"/>
<path d="M150.103 11.847H158.549V57.1327H150.103V53.268C147.053 57.6167 143.04 58.1007 140.896 58.1007C131.69 58.1007 125.59 50.9203 125.59 42.1506C125.59 33.316 131.617 26.2656 140.476 26.2656C142.758 26.2656 147.263 26.6773 150.103 31.0983V11.847ZM134.319 42.1506C134.319 46.9183 137.782 50.6458 142.628 50.6458C147.474 50.6458 150.936 46.9183 150.936 42.1506C150.936 37.3902 147.474 33.7277 142.628 33.7277C137.782 33.7205 134.319 37.383 134.319 42.1506Z" fill="#3F3B3A"/>
<path d="M173.905 27.2336V44.1516C173.905 45.7408 174.043 47.8791 175.702 49.3961C176.738 50.2918 178.404 50.913 179.997 50.913C181.591 50.913 183.25 50.2918 184.293 49.3961C185.952 47.8791 186.097 45.7336 186.097 44.1516V27.2336H194.543V45.5313C194.543 48.2258 194.195 51.816 190.87 54.7127C188.103 57.1327 183.67 58.0935 179.997 58.0935C176.325 58.0935 171.899 57.1255 169.125 54.7127C165.8 51.816 165.452 48.2186 165.452 45.5313V27.2336H173.905Z" fill="#3F3B3A"/>
<path d="M249.573 30.477C252.55 33.1715 254.629 37.3107 254.629 42.2157C254.629 47.0483 252.55 51.1948 249.573 53.882C247.008 56.2297 243.133 58.0935 237.454 58.0935C231.775 58.0935 227.9 56.2297 225.335 53.882C222.358 51.1876 220.279 47.0483 220.279 42.2157C220.279 37.3107 222.358 33.1715 225.335 30.477C227.9 28.1293 231.775 26.2656 237.454 26.2656C243.133 26.2656 247.008 28.1293 249.573 30.477ZM245.907 42.2157C245.907 37.5202 242.307 33.7205 237.461 33.7205C232.615 33.7205 229.015 37.5202 229.015 42.2157C229.015 46.7738 232.55 50.6386 237.461 50.6386C242.373 50.6386 245.907 46.7738 245.907 42.2157Z" fill="#8FC31F"/>
<path d="M275.172 34.349C273.165 32.4852 271.159 32.348 270.253 32.348C268.247 32.348 267.001 33.316 267.001 34.7679C267.001 35.5264 267.349 36.7039 269.703 37.4624L271.709 38.0837C274.064 38.8421 277.598 40.0196 279.322 42.3673C280.221 43.6098 280.844 45.4085 280.844 47.3373C280.844 50.0317 279.945 52.7262 277.519 54.9295C275.092 57.1399 272.187 58.1079 268.515 58.1079C262.285 58.1079 258.75 55.1389 256.882 53.138L261.315 48.0308C262.973 49.9667 265.473 51.4837 267.964 51.4837C270.319 51.4837 272.115 50.3062 272.115 48.2403C272.115 46.3765 270.594 45.618 269.486 45.1991L267.544 44.5056C265.4 43.7471 262.908 42.7791 261.105 40.9154C259.721 39.4634 258.823 37.5997 258.823 35.1869C258.823 32.2902 260.206 29.8702 261.938 28.4183C264.292 26.5545 267.341 26.28 269.761 26.28C271.977 26.28 275.505 26.5545 279.315 29.4585L275.172 34.349Z" fill="#8FC31F"/>
<path d="M302.321 34.349C300.314 32.4852 298.308 32.348 297.403 32.348C295.396 32.348 294.15 33.316 294.15 34.7679C294.15 35.5264 294.498 36.7039 296.852 37.4624L298.858 38.0837C301.213 38.8421 304.748 40.0196 306.472 42.3673C307.37 43.6098 307.993 45.4085 307.993 47.3373C307.993 50.0317 307.095 52.7262 304.668 54.9295C302.241 57.1399 299.337 58.1079 295.664 58.1079C289.435 58.1079 285.9 55.1389 284.031 53.138L288.464 48.0308C290.123 49.9667 292.622 51.4837 295.114 51.4837C297.468 51.4837 299.264 50.3062 299.264 48.2403C299.264 46.3765 297.743 45.618 296.635 45.1991L294.693 44.5056C292.549 43.7471 290.057 42.7791 288.254 40.9154C286.87 39.4634 285.972 37.5997 285.972 35.1869C285.972 32.2902 287.356 29.8702 289.087 28.4183C291.441 26.5545 294.491 26.28 296.91 26.28C299.127 26.28 302.654 26.5545 306.464 29.4585L302.321 34.349Z" fill="#8FC31F"/>
<path d="M217.114 34.414V27.2336H209.892V17.0119H201.446V45.5313C201.446 48.2258 201.794 51.816 205.118 54.7127C207.886 57.1327 212.319 58.0935 215.991 58.0935V50.913C214.398 50.913 212.739 50.5302 211.696 49.6344C210.037 48.1175 209.899 46.2971 209.899 44.7078V34.414H217.114Z" fill="#8FC31F"/>
<path d="M73.9431 46.4704L68.112 42.5407L62.643 46.2248L70.5096 51.5343C71.2485 52.0327 71.2485 53.1235 70.5096 53.622L39.0432 74.8381C38.9853 74.8743 38.9273 74.8959 38.8694 74.8959C38.7028 74.8959 38.5507 74.7659 38.5507 74.5781V68.6618L11.4232 50.364C10.6843 49.8656 10.6843 48.7748 11.4232 48.2764L37.3192 30.8166C37.6959 30.5637 38.1233 30.4409 38.5579 30.4409C38.9925 30.4409 39.4199 30.5637 39.7966 30.8166L51.2125 38.5171L56.6815 34.833L43.2228 25.7599C41.8393 24.8281 40.2239 24.3296 38.5507 24.3296C36.8774 24.3296 35.2693 24.8208 33.8785 25.7599L7.9897 43.2197C5.95424 44.5923 4.7373 46.875 4.7373 49.3238C4.7373 51.7727 5.95424 54.0554 7.9897 55.4279L32.4298 71.9053V74.5781C32.4298 78.1177 35.32 81 38.8694 81C40.1587 81 41.4047 80.6171 42.4767 79.8948L73.9431 58.6786C75.9786 57.3061 77.1955 55.0234 77.1955 52.5745C77.1955 50.1257 75.9786 47.843 73.9431 46.4704Z" fill="#00A29A"/>
<path d="M69.1986 25.5721L44.7658 9.09471V6.42192C44.7658 2.88228 41.8755 0 38.3189 0C37.0295 0 35.7836 0.382859 34.7116 1.10523L3.2524 22.3142C1.21693 23.6867 0 25.9694 0 28.4255C0 30.8743 1.21693 33.157 3.2524 34.5296L9.08354 38.4593L14.5525 34.7752L6.67865 29.4657C5.93979 28.9673 5.93979 27.8765 6.67865 27.378L38.1451 6.16187C38.203 6.12575 38.261 6.10408 38.3189 6.10408C38.4855 6.10408 38.6376 6.2341 38.6376 6.42192V12.3382L65.7651 30.6287C66.504 31.1272 66.504 32.218 65.7651 32.7164L39.8763 50.1762C39.4996 50.4291 39.0723 50.5519 38.6376 50.5519C38.203 50.5519 37.7756 50.4218 37.399 50.1762L25.983 42.4829L20.514 46.167L33.9655 55.2401C35.349 56.1719 36.9643 56.6632 38.6376 56.6632C40.3109 56.6632 41.9263 56.1719 43.3098 55.2401L69.1986 37.7803C71.2341 36.4077 72.451 34.125 72.451 31.6762C72.451 29.2273 71.2341 26.9446 69.1986 25.5721Z" fill="#8FC31F"/>
</svg>
