<svg width="33" height="17" viewBox="0 0 33 17" fill="none" xmlns="http://www.w3.org/2000/svg">
<path d="M32.9999 8.4818C33.0001 8.50117 32.9883 8.51841 32.9703 8.52555C32.8634 8.56791 32.7533 8.60484 32.6524 8.65698C27.3702 11.399 22.0879 14.1391 16.8121 16.8931C16.5103 17.0502 16.3091 17.0327 16.0408 16.8442C14.0327 15.4309 11.8646 14.3195 9.43981 13.7578C8.38865 13.5142 7.30718 13.394 6.23861 13.2249C5.99553 13.1865 5.79364 13.4213 5.79364 13.6674C5.79364 13.8178 5.79364 13.9685 5.79364 14.12C5.79364 14.6161 5.39148 15.0183 4.89539 15.0183C3.59102 15.0183 2.29746 15.0183 0.999362 15.0183C0.447078 15.0183 -0.000645321 14.5706 -0.000645297 14.0183C-0.000645135 10.3225 -0.000644974 6.62861 -0.000644812 2.92249C-0.000644787 2.3702 0.447071 1.92248 0.999359 1.92248C2.29991 1.92248 3.59978 1.92248 4.90893 1.92248C5.39184 1.92248 5.78332 2.29841 5.78332 2.78132C5.78332 3.30501 6.2409 3.72994 6.76137 3.67196C7.1262 3.63133 7.48573 3.58831 7.84308 3.53237C10.7825 3.07213 13.4316 1.9325 15.8293 0.239947C16.262 -0.0656264 16.5735 -0.0712619 17.0443 0.175451C22.2678 2.91246 27.5062 5.62317 32.7414 8.34014C32.8149 8.37862 32.8941 8.40767 32.9711 8.43922C32.9884 8.44629 32.9998 8.46315 32.9999 8.4818ZM5.79235 10.392C5.79235 10.906 6.18232 11.3331 6.69411 11.3808C6.99311 11.4086 7.28759 11.4388 7.58061 11.4791C10.7463 11.915 13.6599 12.9926 16.3014 14.7478C16.4781 14.8655 16.6058 14.8668 16.7902 14.7703C20.1094 13.0396 23.4319 11.3151 26.753 9.58873C26.7896 9.56978 26.8243 9.54754 26.8636 9.52142C26.9068 9.49279 26.897 9.4134 26.8452 9.4134C24.3734 9.41215 21.9015 9.41402 19.4297 9.40714C19.2311 9.40651 19.1853 9.51359 19.1182 9.65197C18.5501 10.8217 17.2687 11.4741 15.9873 11.2525C14.6601 11.0227 13.6387 9.90495 13.5896 8.6288C13.5361 7.24245 14.4357 6.07339 15.8087 5.74402C17.1288 5.42717 18.4927 6.04959 19.0853 7.25685C19.1872 7.46474 19.2975 7.54176 19.54 7.54051C21.9041 7.53049 24.2683 7.53488 26.6331 7.53362C26.7446 7.53362 26.7789 7.37851 26.6804 7.32638C26.676 7.32406 26.6716 7.32176 26.6672 7.31947C23.4119 5.62818 20.1539 3.94126 16.9037 2.23932C16.6296 2.09593 16.4497 2.10219 16.1917 2.27126C13.5954 3.97132 10.7431 5.03394 7.64123 5.4566C7.32323 5.49983 7.0042 5.53513 6.68411 5.56854C6.1764 5.62154 5.79184 6.04812 5.79197 6.55859C5.79228 7.83767 5.79234 9.11145 5.79235 10.392ZM2.8886 3.79662C2.3638 3.79662 1.93401 4.22206 1.93401 4.74687C1.93401 7.23835 1.93401 9.71436 1.93401 12.1939C1.93401 12.7187 2.36355 13.1441 2.88835 13.1441C3.41316 13.1441 3.83448 12.7187 3.83448 12.1939C3.83448 9.70643 3.83448 7.23074 3.83448 4.74686C3.83448 4.22206 3.4134 3.79662 2.8886 3.79662ZM15.5217 8.47351C15.5204 8.99073 15.9473 9.40588 16.4819 9.40776C17.0153 9.40964 17.4506 8.99261 17.4525 8.47915C17.4544 7.9732 17.0107 7.53989 16.4877 7.53801C15.9641 7.53613 15.523 7.96255 15.5217 8.47351Z" fill="#7C9493"/>
</svg>
