<svg width="33" height="17" viewBox="0 0 33 17" fill="none" xmlns="http://www.w3.org/2000/svg">
<path fill-rule="evenodd" clip-rule="evenodd" d="M32.9703 8.52555C32.9883 8.51842 33.0001 8.50117 32.9999 8.4818C32.9998 8.46316 32.9884 8.44629 32.9711 8.43922C32.9539 8.43218 32.9366 8.42527 32.9193 8.41834C32.859 8.39424 32.7985 8.37004 32.7414 8.34014C31.7507 7.82599 30.7599 7.31208 29.7692 6.79816C25.5242 4.59631 21.2794 2.39452 17.0443 0.175451C16.5735 -0.0712619 16.262 -0.0656264 15.8293 0.239947C13.4316 1.9325 10.7825 3.07213 7.84307 3.53237C7.48573 3.58831 7.12619 3.63133 6.76136 3.67196C6.24089 3.72994 5.78331 3.30501 5.78331 2.78132C5.78331 2.29841 5.39183 1.92248 4.90892 1.92248L0.999348 1.92248C0.447063 1.92248 -0.000652417 2.3702 -0.000652441 2.92249L-0.000652926 14.0183C-0.00065295 14.5706 0.44707 15.0183 0.999355 15.0183L4.89538 15.0183C5.39147 15.0183 5.79363 14.6161 5.79363 14.12L5.79363 13.6674C5.79363 13.4213 5.99552 13.1865 6.2386 13.2249C6.54224 13.273 6.84693 13.3171 7.15166 13.3612C7.91934 13.4723 8.68734 13.5834 9.4398 13.7578C11.8646 14.3195 14.0327 15.4309 16.0408 16.8442C16.3091 17.0327 16.5103 17.0502 16.8121 16.8931C21.5665 14.4113 26.3261 11.9408 31.0863 9.46993C31.6083 9.19896 32.1304 8.92798 32.6524 8.65698C32.7269 8.61849 32.8064 8.58829 32.8859 8.55808C32.9141 8.54736 32.9423 8.53664 32.9703 8.52555ZM6.6941 11.3808C6.18231 11.3331 5.79234 10.906 5.79234 10.392C5.79233 9.11145 5.79227 7.83767 5.79196 6.55859C5.79183 6.04812 6.17639 5.62154 6.68411 5.56854C7.00419 5.53513 7.32322 5.49983 7.64122 5.4566C10.7431 5.03394 13.5954 3.97132 16.1917 2.27126C16.4497 2.10219 16.6296 2.09593 16.9037 2.23932C19.4029 3.54802 21.9067 4.84783 24.4104 6.14759C25.1628 6.53814 25.9151 6.92869 26.6672 7.31947L26.6804 7.32638C26.7789 7.37851 26.7445 7.53362 26.6331 7.53362C25.968 7.53398 25.3029 7.53388 24.6379 7.53379C22.9385 7.53355 21.2392 7.53331 19.54 7.54051C19.2975 7.54176 19.1872 7.46474 19.0853 7.25685C18.4927 6.04959 17.1288 5.42717 15.8087 5.74402C14.4357 6.07339 13.5361 7.24245 13.5896 8.6288C13.6386 9.90495 14.6601 11.0227 15.9873 11.2525C17.2687 11.4741 18.5501 10.8217 19.1182 9.65197C19.1202 9.64794 19.1221 9.64393 19.124 9.63996C19.1881 9.50744 19.2369 9.40653 19.4297 9.40714C21.2511 9.41221 23.0725 9.41253 24.8939 9.41284C25.5443 9.41296 26.1948 9.41307 26.8452 9.4134C26.897 9.4134 26.9067 9.49279 26.8636 9.52142C26.8243 9.54754 26.7896 9.56978 26.753 9.58873C25.9457 10.0084 25.1384 10.4279 24.331 10.8474C21.8169 12.1538 19.3026 13.4603 16.7902 14.7703C16.6058 14.8668 16.4781 14.8655 16.3014 14.7478C13.6599 12.9926 10.7463 11.915 7.5806 11.4791C7.28759 11.4388 6.9931 11.4086 6.6941 11.3808ZM16.4819 9.40776C15.9473 9.40588 15.5204 8.99073 15.5217 8.47351C15.523 7.96255 15.9641 7.53613 16.4877 7.53801C17.0107 7.53989 17.4544 7.9732 17.4525 8.47915C17.4506 8.99261 17.0153 9.40964 16.4819 9.40776Z" fill="#00A29A"/>
</svg>
