<svg width="33" height="33" viewBox="0 0 33 33" fill="none" xmlns="http://www.w3.org/2000/svg">
<g clip-path="url(#clip0_596_13640)">
<path d="M23.5258 33.0004C23.3987 32.4828 23.2716 31.9652 23.1319 31.399C22.6276 31.6938 22.1686 31.9625 21.6935 32.24C20.7821 31.3258 19.8779 30.423 18.9851 29.5102C18.9325 29.457 18.9325 29.2927 18.9738 29.2168C19.194 28.8136 19.4355 28.4218 19.6989 27.9773C19.1514 27.8316 18.6411 27.6959 18.1182 27.5569C18.1182 26.2196 18.1182 24.8916 18.1182 23.5431C18.6318 23.406 19.1441 23.2696 19.6976 23.1219C19.4089 22.6316 19.1441 22.1812 18.8427 21.6702C18.9811 21.5485 19.1314 21.4294 19.2665 21.295C20.0209 20.5452 20.7747 19.7954 21.5199 19.0376C21.6563 18.8985 21.7547 18.8752 21.9257 18.9857C22.3016 19.2285 22.6948 19.4454 23.122 19.6969C23.2683 19.1447 23.404 18.6331 23.5398 18.1201C24.8897 18.1201 26.2183 18.1201 27.5602 18.1201C27.6953 18.6357 27.8277 19.14 27.9741 19.6989C28.3839 19.4581 28.7644 19.2485 29.129 19.0143C29.3213 18.8905 29.4411 18.8892 29.6134 19.0655C30.4756 19.9484 31.3552 20.8153 32.2394 21.6988C31.9626 22.1692 31.6925 22.6276 31.3971 23.1306C31.9666 23.2716 32.4842 23.3993 33.0018 23.5271C33.0018 24.8803 33.0018 26.2342 33.0018 27.5875C32.4849 27.7079 31.9679 27.8276 31.3977 27.9607C31.6951 28.471 31.9619 28.9294 32.1915 29.3233C31.2228 30.2946 30.28 31.2407 29.3293 32.1947C28.9141 31.9512 28.4657 31.6878 27.9614 31.3917C27.8277 31.9679 27.7079 32.4848 27.5875 33.0018C26.2329 33.0004 24.8797 33.0004 23.5258 33.0004ZM19.168 26.7292C19.5472 26.827 19.9019 26.9102 20.2511 27.014C20.341 27.0406 20.4467 27.1138 20.4867 27.1949C20.9031 28.0405 20.9005 28.0419 20.4115 28.8675C20.3789 28.9227 20.3516 28.9826 20.3117 29.0325C20.2046 29.1676 20.2285 29.2687 20.3523 29.3891C20.8067 29.8302 21.2558 30.278 21.6949 30.7344C21.8219 30.8668 21.9184 30.8921 22.0761 30.7863C22.3249 30.6193 22.5857 30.4669 22.8505 30.3265C22.931 30.284 23.0568 30.266 23.1399 30.2966C24.0261 30.6233 24.0248 30.6266 24.2636 31.5387C24.2769 31.5906 24.2962 31.6419 24.3022 31.6944C24.3235 31.878 24.4213 31.9393 24.6063 31.9359C25.1964 31.9259 25.7878 31.9173 26.378 31.9393C26.6547 31.9492 26.7951 31.8694 26.8211 31.5886C26.881 30.9406 27.1484 30.4589 27.853 30.3418C27.8729 30.3385 27.8909 30.3132 27.9095 30.3139C28.0266 30.3159 28.1617 30.2866 28.2568 30.3345C28.5342 30.4736 28.7911 30.6539 29.0665 30.7969C29.137 30.8335 29.284 30.8322 29.3339 30.7836C29.8595 30.278 30.3718 29.7597 30.9008 29.2321C30.7071 28.9028 30.5155 28.5941 30.3439 28.2747C30.296 28.1856 30.264 28.0485 30.2966 27.96C30.6313 27.0572 30.6353 27.0585 31.5681 26.8237C31.61 26.813 31.6519 26.8051 31.6945 26.7984C31.8681 26.7718 31.9433 26.6873 31.9393 26.4957C31.9273 25.8623 31.9287 25.2283 31.9386 24.5949C31.942 24.4046 31.8661 24.3301 31.6891 24.2949C31.4164 24.2403 31.1443 24.1731 30.8788 24.0906C30.779 24.0593 30.6579 23.9888 30.6153 23.9023C30.1962 23.0547 30.2008 23.0527 30.6845 22.2324C30.7118 22.1865 30.7318 22.1339 30.767 22.0947C30.9161 21.9257 30.8548 21.8073 30.7071 21.6669C30.2953 21.2743 29.8848 20.8785 29.5023 20.458C29.3073 20.2438 29.1423 20.1812 28.9181 20.3788C28.4058 20.8306 27.861 20.9204 27.2815 20.5152C27.1717 20.4387 27.0533 20.3316 27.01 20.2125C26.9089 19.9311 26.8617 19.631 26.7698 19.3456C26.7452 19.2684 26.6408 19.1647 26.5709 19.1633C25.8424 19.15 25.1139 19.1553 24.3761 19.1553C24.3355 19.2984 24.2803 19.4201 24.2696 19.5452C24.2137 20.1806 23.9323 20.6203 23.2697 20.7481C23.249 20.7521 23.2297 20.7727 23.2104 20.772C23.0741 20.7667 22.917 20.7987 22.8046 20.7428C22.4899 20.5858 22.1932 20.3915 21.9098 20.2238C21.3409 20.7913 20.7887 21.3422 20.2239 21.9064C20.2658 21.9816 20.3044 22.0854 20.3722 22.1645C20.8207 22.6908 20.9191 23.2437 20.5073 23.8338C20.4354 23.9363 20.3376 24.054 20.2272 24.0899C19.8819 24.2017 19.5253 24.2782 19.1667 24.3694C19.168 25.1598 19.168 25.9302 19.168 26.7292Z" fill="white"/>
<path d="M0 32.9996C0 28.397 0 23.7944 0 19.1738C3.55674 19.1738 7.08222 19.1738 10.621 19.1738C10.629 19.253 10.6403 19.3149 10.6403 19.3767C10.639 23.9175 10.637 28.4582 10.635 32.9996C7.0902 32.9996 3.54477 32.9996 0 32.9996ZM9.56116 31.9145C9.56116 28.0138 9.56116 24.133 9.56116 20.2589C6.71896 20.2589 3.90137 20.2589 1.09111 20.2589C1.09111 24.1597 1.09111 28.0318 1.09111 31.9145C3.92665 31.9145 6.73559 31.9145 9.56116 31.9145Z" fill="white"/>
<path d="M10.1277 17.0033C10.1277 15.9728 10.0632 14.9595 10.145 13.9582C10.2335 12.8718 10.8801 12.1299 11.9007 11.7361C12.6406 11.4507 13.3857 11.1792 14.1282 10.8998C14.3976 10.7987 14.4595 10.5066 14.2885 10.2697C14.0271 9.90714 13.7909 9.52658 13.5314 9.16266C13.4709 9.0775 13.3691 8.99766 13.2699 8.96639C12.3092 8.66035 11.7184 7.91121 11.7211 6.91191C11.7238 5.90397 11.6699 4.88205 11.8156 3.89141C12.1436 1.66129 14.2167 -0.00464743 16.5146 9.74021e-06C18.7953 0.00466691 20.8698 1.66927 21.1805 3.88875C21.3355 4.99516 21.3155 6.14148 21.2397 7.26054C21.1818 8.12078 20.587 8.67232 19.7653 8.96107C19.6356 9.00698 19.5178 9.13205 19.432 9.24848C19.1985 9.5665 19.0022 9.91246 18.7587 10.2218C18.5319 10.5099 18.5704 10.7807 18.9018 10.9058C19.6236 11.1792 20.3475 11.446 21.068 11.7234C22.2556 12.1812 22.8816 13.0966 22.8836 14.3734C22.885 15.2216 22.8816 16.0699 22.8797 16.9188C22.8797 16.9388 22.8697 16.9588 22.8577 17.0033C18.6297 17.0033 14.3943 17.0033 10.1277 17.0033ZM20.2337 4.96189C20.2384 3.5501 19.6895 2.36186 18.4021 1.60341C17.0582 0.811688 15.6877 0.863582 14.3983 1.72982C13.244 2.50623 12.749 3.64458 12.7723 4.98983C13.2067 4.91732 13.6112 4.81087 14.0204 4.78824C14.8288 4.74367 15.5207 4.45759 16.1008 3.90006C16.2299 3.77564 16.335 3.62661 16.512 3.41704C16.6657 3.61397 16.7528 3.75169 16.8646 3.86479C17.3483 4.35114 17.9318 4.65319 18.6104 4.75431C19.1426 4.83349 19.6795 4.89203 20.2337 4.96189ZM12.9918 12.4546C12.6312 12.6036 12.2853 12.7194 11.9659 12.8857C11.5874 13.0827 11.288 13.4153 11.2527 13.8305C11.1942 14.529 11.2368 15.2363 11.2368 15.9482C14.7443 15.9482 18.2704 15.9482 21.8271 15.9482C21.8271 15.4319 21.8191 14.9395 21.8285 14.4479C21.8498 13.3308 21.2137 12.748 19.9896 12.5152C19.6409 13.5537 19.2923 14.5942 18.9384 15.6494C18.1786 15.2709 17.4561 14.9189 16.7415 14.5497C16.5699 14.4612 16.4415 14.4592 16.2691 14.5483C15.5473 14.9216 14.8168 15.2769 14.0637 15.6521C13.7044 14.5816 13.3544 13.5371 12.9918 12.4546ZM18.615 5.81948C17.8759 5.72301 17.2299 5.48549 16.6444 5.08165C16.5818 5.0384 16.4475 5.01578 16.3969 5.05304C15.7961 5.49148 15.1135 5.71835 14.373 5.82945C14.373 6.57061 14.365 7.28781 14.375 8.00502C14.391 9.13937 15.2738 10.0548 16.3949 10.1121C17.4966 10.1686 18.5052 9.35892 18.6017 8.24653C18.6709 7.44948 18.615 6.64246 18.615 5.81948ZM15.7462 13.6182C15.383 13.0135 15.0323 12.4307 14.6737 11.8332C14.4349 11.925 14.222 12.0069 13.9951 12.0933C14.2306 12.7952 14.4529 13.4592 14.6844 14.1498C15.057 13.9642 15.3876 13.7985 15.7462 13.6182ZM18.3263 11.8306C17.9597 12.4426 17.6111 13.0241 17.2538 13.6209C17.6264 13.8045 17.9584 13.9689 18.319 14.1465C18.5532 13.4446 18.7747 12.7786 19.0042 12.0914C18.776 12.0035 18.5691 11.9237 18.3263 11.8306ZM16.5007 12.8032C16.8713 12.1838 17.2072 11.623 17.5206 11.0987C16.8327 11.0987 16.1594 11.0987 15.4801 11.0987C15.7941 11.6236 16.1314 12.1865 16.5007 12.8032ZM13.2739 7.77349C13.2739 7.20066 13.2739 6.63781 13.2739 6.05566C12.6093 6.49476 12.6166 7.36366 13.2739 7.77349ZM19.7281 6.07495C19.7281 6.64446 19.7281 7.20665 19.7281 7.79145C20.3934 7.30777 20.3834 6.43622 19.7281 6.07495Z" fill="white"/>
<path d="M7.61156 9.17138C8.00143 8.80346 8.38864 8.43821 8.77585 8.07229C8.76587 8.04368 8.75522 8.01507 8.74524 7.98713C8.5064 7.98713 8.26689 7.98713 8.02804 7.98713C7.52374 7.98713 7.01877 7.98513 6.51446 7.98779C6.0361 7.99045 5.86046 8.16743 5.8598 8.6531C5.85847 11.659 5.85913 14.6648 5.85913 17.6707C5.85913 17.7984 5.85913 17.9255 5.85913 18.0779C5.5012 18.0779 5.16521 18.0779 4.78532 18.0779C4.78532 17.9581 4.78532 17.8443 4.78532 17.7299C4.78532 14.724 4.78466 11.7182 4.78599 8.71231C4.78665 7.56466 5.43466 6.91731 6.58232 6.91266C7.28023 6.90999 7.97748 6.90933 8.67539 6.90667C8.69268 6.90667 8.71065 6.88937 8.73393 6.87739C8.34872 6.51081 7.96484 6.14556 7.56365 5.76367C7.88034 5.47759 8.13116 5.25072 8.36934 5.03516C9.14709 5.82355 9.96476 6.65252 10.7651 7.46353C9.98205 8.24061 9.15574 9.06094 8.32211 9.88791C8.11985 9.68433 7.88167 9.44349 7.61156 9.17138Z" fill="white"/>
<path d="M22.376 7.98739C22.376 7.60883 22.376 7.2795 22.376 6.91292C22.8617 6.91292 23.3307 6.91292 23.7997 6.91292C24.1969 6.91292 24.5941 6.90227 24.9913 6.91691C25.9613 6.95284 26.612 7.62147 26.614 8.59216C26.6187 10.6533 26.6153 12.7137 26.6153 14.7749C26.6153 14.8893 26.6153 15.0044 26.6153 15.1947C27.0212 14.7483 27.3778 14.3564 27.735 13.9632C28.0311 14.2905 28.2573 14.5414 28.4629 14.7682C27.6985 15.5287 26.8735 16.3497 26.0691 17.1494C25.2874 16.3663 24.4644 15.542 23.6381 14.7137C23.849 14.5068 24.0911 14.2686 24.3692 13.9951C24.7318 14.373 25.0998 14.7576 25.5182 15.194C25.5295 15.0224 25.5422 14.9219 25.5422 14.8221C25.5435 12.7936 25.5435 10.7651 25.5428 8.73653C25.5428 8.13975 25.3938 7.98939 24.8077 7.98872C24.0053 7.98673 23.2023 7.98739 22.376 7.98739Z" fill="white"/>
<path d="M14.2349 27.2405C13.9309 27.5479 13.6994 27.7828 13.4865 27.9977C12.6615 27.172 11.8378 26.3477 11.0361 25.546C11.8325 24.7503 12.6575 23.926 13.4718 23.1123C13.6874 23.3245 13.9216 23.5561 14.1804 23.8122C13.8058 24.1675 13.4146 24.5394 13.0234 24.9106C13.042 24.9412 13.0613 24.9718 13.08 25.0024C14.38 25.0024 15.68 25.0024 17.0026 25.0024C17.0026 25.3744 17.0026 25.7103 17.0026 26.0862C15.6946 26.0862 14.3933 26.0862 13.0121 26.0862C13.4598 26.508 13.8457 26.8726 14.2349 27.2405Z" fill="white"/>
<path d="M29.8014 25.533C29.8127 27.8862 27.9119 29.7976 25.5548 29.8036C23.2069 29.8096 21.2861 27.8941 21.2861 25.5469C21.2861 23.2183 23.1882 21.3062 25.5241 21.2863C27.866 21.267 29.7901 23.1771 29.8014 25.533ZM22.3606 25.5316C22.3533 27.2974 23.7804 28.7384 25.5394 28.7431C27.2945 28.7477 28.7422 27.3047 28.7429 25.5496C28.7436 23.8018 27.3205 22.3701 25.574 22.3614C23.7997 22.3521 22.3673 23.7652 22.3606 25.5316Z" fill="white"/>
<path d="M8.49376 22.3442C6.37475 22.3442 4.27503 22.3442 2.15137 22.3442C2.15137 22.0029 2.15137 21.6662 2.15137 21.3076C4.25973 21.3076 6.36743 21.3076 8.49376 21.3076C8.49376 21.6483 8.49376 21.9769 8.49376 22.3442Z" fill="white"/>
<path d="M8.49823 25.5703C8.49823 25.9196 8.49823 26.2489 8.49823 26.5969C6.37656 26.5969 4.26886 26.5969 2.14453 26.5969C2.14453 26.2549 2.14453 25.9263 2.14453 25.5703C4.25156 25.5703 6.35793 25.5703 8.49823 25.5703Z" fill="white"/>
<path d="M8.49824 27.7002C8.49824 28.0488 8.49824 28.3781 8.49824 28.7254C6.37656 28.7254 4.26953 28.7254 2.14453 28.7254C2.14453 28.3841 2.14453 28.0555 2.14453 27.7002C4.25223 27.7002 6.3586 27.7002 8.49824 27.7002Z" fill="white"/>
<path d="M4.27832 23.4346C5.68479 23.4346 7.08327 23.4346 8.49705 23.4346C8.49705 23.7819 8.49705 24.1112 8.49705 24.4638C7.09658 24.4638 5.69809 24.4638 4.27832 24.4638C4.27832 24.1272 4.27832 23.7912 4.27832 23.4346Z" fill="white"/>
<path d="M2.14453 30.8543C2.14453 30.5124 2.14453 30.1837 2.14453 29.8291C3.54368 29.8291 4.94149 29.8291 6.36193 29.8291C6.36193 30.1664 6.36193 30.5011 6.36193 30.8543C4.95679 30.8543 3.55898 30.8543 2.14453 30.8543Z" fill="white"/>
<path d="M2.13965 24.4731C2.13965 24.1158 2.13965 23.7871 2.13965 23.4365C2.48494 23.4365 2.81959 23.4365 3.17553 23.4365C3.17553 23.7878 3.17553 24.1231 3.17553 24.4731C2.82758 24.4731 2.50025 24.4731 2.13965 24.4731Z" fill="white"/>
<path d="M8.49969 29.8262C8.49969 30.1788 8.49969 30.5068 8.49969 30.8534C8.16038 30.8534 7.83437 30.8534 7.48242 30.8534C7.48242 30.5174 7.48242 30.1828 7.48242 29.8262C7.81308 29.8262 8.13909 29.8262 8.49969 29.8262Z" fill="white"/>
<path d="M27.6703 25.562C27.6623 26.7475 26.7123 27.681 25.526 27.6697C24.3617 27.6584 23.419 26.711 23.417 25.55C23.415 24.3844 24.3897 23.4117 25.5546 23.417C26.7302 23.4223 27.6783 24.3837 27.6703 25.562ZM24.4888 25.54C24.4855 26.1301 24.9545 26.6085 25.54 26.6132C26.1188 26.6178 26.6092 26.1355 26.6145 25.556C26.6198 24.9732 26.1428 24.4915 25.5566 24.4875C24.9658 24.4842 24.4921 24.9505 24.4888 25.54Z" fill="white"/>
</g>
<defs>
<clipPath id="clip0_596_13640">
<rect width="33" height="33" fill="white"/>
</clipPath>
</defs>
</svg>
