<svg width="156" height="41" viewBox="0 0 156 41" fill="none" xmlns="http://www.w3.org/2000/svg">
<g clip-path="url(#clip0_351_1135)">
<path d="M60.9728 24.6885C60.5179 25.8074 58.7972 29.4053 53.503 29.4053C51.0486 29.4053 49.1884 28.7069 47.6805 27.2736C45.9965 25.7013 45.2958 23.7451 45.2958 21.3684C45.2958 18.3628 46.5248 16.509 47.6108 15.4266C49.4012 13.6789 51.5035 13.2949 53.3269 13.2949C56.4124 13.2949 58.2028 14.5198 59.2521 15.7777C60.8664 17.701 61.0756 20.0777 61.0756 21.7194V22.0705H49.7131C49.7131 22.9809 49.9589 23.9572 50.4505 24.6227C50.9055 25.2516 51.852 26.056 53.503 26.056C55.1173 26.056 56.3427 25.2881 57.0435 24.0632L60.9728 24.6885ZM57.0471 19.3427C56.6949 17.2805 55.0146 16.3005 53.4333 16.3005C51.8557 16.3005 50.2084 17.3134 49.8562 19.3427H57.0471Z" fill="#3F3B3A"/>
<path d="M76.0262 5.99658H80.304V28.919H76.0262V26.9628C74.4816 29.164 72.449 29.409 71.363 29.409C66.6999 29.409 63.6107 25.7744 63.6107 21.3355C63.6107 16.8636 66.6632 13.2949 71.1502 13.2949C72.3059 13.2949 74.588 13.5033 76.0262 15.7411V5.99658ZM68.0317 21.3355C68.0317 23.7487 69.7854 25.6355 72.2399 25.6355C74.6944 25.6355 76.4481 23.7487 76.4481 21.3355C76.4481 18.9259 74.6944 17.072 72.2399 17.072C69.7854 17.0684 68.0317 18.9222 68.0317 21.3355Z" fill="#3F3B3A"/>
<path d="M88.082 13.7849V22.3484C88.082 23.1528 88.1517 24.2351 88.9919 25.003C89.5165 25.4564 90.3603 25.7708 91.1675 25.7708C91.9746 25.7708 92.8148 25.4564 93.3431 25.003C94.1833 24.2351 94.2567 23.1491 94.2567 22.3484V13.7849H98.5346V23.0468C98.5346 24.4106 98.3585 26.2279 96.6744 27.6941C95.2729 28.919 93.0276 29.4054 91.1675 29.4054C89.3074 29.4054 87.0657 28.9154 85.6605 27.6941C83.9765 26.2279 83.8004 24.407 83.8004 23.0468V13.7849H88.082Z" fill="#3F3B3A"/>
<path d="M126.407 15.4266C127.915 16.7905 128.968 18.8857 128.968 21.3684C128.968 23.8146 127.915 25.9134 126.407 27.2736C125.108 28.462 123.145 29.4053 120.269 29.4053C117.393 29.4053 115.43 28.462 114.131 27.2736C112.623 25.9097 111.57 23.8146 111.57 21.3684C111.57 18.8857 112.623 16.7905 114.131 15.4266C115.43 14.2383 117.393 13.2949 120.269 13.2949C123.145 13.2949 125.108 14.2383 126.407 15.4266ZM124.551 21.3684C124.551 18.9917 122.727 17.0684 120.273 17.0684C117.818 17.0684 115.995 18.9917 115.995 21.3684C115.995 23.6756 117.785 25.6319 120.273 25.6319C122.76 25.6319 124.551 23.6756 124.551 21.3684Z" fill="#8FC31F"/>
<path d="M139.373 17.3865C138.356 16.4432 137.34 16.3737 136.882 16.3737C135.865 16.3737 135.234 16.8636 135.234 17.5986C135.234 17.9825 135.41 18.5785 136.603 18.9625L137.619 19.2769C138.811 19.6608 140.602 20.2569 141.475 21.4452C141.93 22.0741 142.245 22.9846 142.245 23.9609C142.245 25.3247 141.791 26.6886 140.561 27.8038C139.332 28.9227 137.861 29.4127 136.001 29.4127C132.846 29.4127 131.055 27.9098 130.109 26.897L132.354 24.3119C133.194 25.2918 134.46 26.0597 135.722 26.0597C136.915 26.0597 137.825 25.4637 137.825 24.4179C137.825 23.4745 137.054 23.0906 136.493 22.8785L135.509 22.5275C134.423 22.1436 133.161 21.6536 132.248 20.7103C131.547 19.9753 131.092 19.0319 131.092 17.8107C131.092 16.3444 131.793 15.1195 132.67 14.3846C133.862 13.4412 135.407 13.3022 136.632 13.3022C137.755 13.3022 139.542 13.4412 141.471 14.9111L139.373 17.3865Z" fill="#8FC31F"/>
<path d="M153.124 17.3865C152.107 16.4432 151.091 16.3737 150.632 16.3737C149.616 16.3737 148.985 16.8636 148.985 17.5986C148.985 17.9825 149.161 18.5785 150.354 18.9625L151.37 19.2769C152.562 19.6608 154.353 20.2569 155.226 21.4452C155.681 22.0741 155.996 22.9846 155.996 23.9609C155.996 25.3247 155.541 26.6886 154.312 27.8038C153.083 28.9227 151.612 29.4127 149.752 29.4127C146.597 29.4127 144.806 27.9098 143.86 26.897L146.105 24.3119C146.945 25.2918 148.211 26.0597 149.473 26.0597C150.665 26.0597 151.575 25.4637 151.575 24.4179C151.575 23.4745 150.805 23.0906 150.244 22.8785L149.26 22.5275C148.174 22.1436 146.912 21.6536 145.999 20.7103C145.298 19.9753 144.843 19.0319 144.843 17.8107C144.843 16.3444 145.544 15.1195 146.421 14.3846C147.613 13.4412 149.158 13.3022 150.383 13.3022C151.506 13.3022 153.292 13.4412 155.222 14.9111L153.124 17.3865Z" fill="#8FC31F"/>
<path d="M109.967 17.4194V13.7849H106.309V8.61096H102.031V23.0467C102.031 24.4106 102.207 26.2278 103.891 27.6941C105.293 28.919 107.538 29.4053 109.398 29.4053V25.7708C108.591 25.7708 107.751 25.577 107.222 25.1236C106.382 24.3557 106.313 23.4343 106.313 22.6299V17.4194H109.967Z" fill="#8FC31F"/>
<path d="M37.4517 23.522L34.4983 21.5329L31.7283 23.3977L35.7127 26.0852C36.0869 26.3375 36.0869 26.8896 35.7127 27.1419L19.7751 37.881C19.7458 37.8993 19.7164 37.9102 19.6871 37.9102C19.6027 37.9102 19.5257 37.8444 19.5257 37.7493V34.7547L5.78577 25.4929C5.41155 25.2406 5.41155 24.6884 5.78577 24.4361L18.9019 15.5985C19.0927 15.4705 19.3092 15.4083 19.5293 15.4083C19.7495 15.4083 19.9659 15.4705 20.1567 15.5985L25.9388 19.4962L28.7088 17.6314L21.8921 13.0389C21.1913 12.5672 20.3732 12.3149 19.5257 12.3149C18.6782 12.3149 17.8637 12.5636 17.1592 13.0389L4.04673 21.8766C3.01578 22.5713 2.39941 23.7268 2.39941 24.9663C2.39941 26.2059 3.01578 27.3613 4.04673 28.056L16.4255 36.3965V37.7493C16.4255 39.541 17.8893 41 19.6871 41C20.3401 41 20.9712 40.8062 21.5142 40.4405L37.4517 29.7015C38.4827 29.0067 39.099 27.8513 39.099 26.6117C39.099 25.3722 38.4827 24.2168 37.4517 23.522Z" fill="#00A29A"/>
<path d="M35.0486 12.9439L22.6736 4.6035V3.2506C22.6736 1.45893 21.2097 0 19.4083 0C18.7552 0 18.1242 0.193793 17.5812 0.55944L1.64732 11.2948C0.616369 11.9896 0 13.145 0 14.3882C0 15.6278 0.616369 16.7832 1.64732 17.4779L4.60075 19.467L7.37074 17.6022L3.38269 14.9147C3.00847 14.6624 3.00847 14.1103 3.38269 13.858L19.3202 3.11897C19.3496 3.10069 19.3789 3.08972 19.4083 3.08972C19.4927 3.08972 19.5697 3.15553 19.5697 3.2506V6.24525L33.3096 15.5034C33.6838 15.7557 33.6838 16.3079 33.3096 16.5602L20.1971 25.3978C20.0063 25.5258 19.7898 25.588 19.5697 25.588C19.3496 25.588 19.1331 25.5222 18.9423 25.3978L13.1602 21.5037L10.3902 23.3685L17.2033 27.961C17.904 28.4327 18.7222 28.6814 19.5697 28.6814C20.4172 28.6814 21.2354 28.4327 21.9361 27.961L35.0486 19.1233C36.0796 18.4286 36.696 17.2732 36.696 16.0336C36.696 14.7941 36.0796 13.6386 35.0486 12.9439Z" fill="#8FC31F"/>
</g>
<defs>
<clipPath id="clip0_351_1135">
<rect width="156" height="41" fill="white"/>
</clipPath>
</defs>
</svg>
