<svg width="26" height="26" viewBox="0 0 26 26" fill="none" xmlns="http://www.w3.org/2000/svg">
<g clip-path="url(#clip0_2_6)">
<path d="M0 9.60104C0.0879979 9.08646 0.14892 8.5651 0.257225 8.05729C1.16428 3.98802 4.51497 0.826042 8.6238 0.148958C8.94871 0.0947917 9.27363 0.0541667 9.59177 0C10.0859 0 10.5733 0 11.0674 0C11.1351 0.0135417 11.196 0.0338542 11.2637 0.040625C11.8188 0.135417 12.3874 0.189583 12.9357 0.325C18.3239 1.69948 21.661 7.13646 20.4629 12.5802C19.2986 17.875 14.1744 21.4094 8.85394 20.5969C4.57589 19.9469 1.21166 16.812 0.257225 12.587C0.135381 12.0927 0.0812288 11.5781 0 11.0703C0 10.5828 0 10.0885 0 9.60104ZM17.1461 10.5083C17.2611 6.85208 14.2827 3.67656 10.6274 3.56146C6.8503 3.44635 3.68237 6.37135 3.56053 10.0818C3.43869 13.9005 6.36293 17.0151 10.1875 17.1438C13.8969 17.2724 17.0242 14.2865 17.1461 10.5083Z" fill="#708A99"/>
<path d="M19.9485 16.2568C18.994 17.7802 17.7756 18.999 16.2728 19.9401C16.327 20.0078 16.3676 20.0552 16.415 20.1026C18.1073 21.7953 19.7995 23.4948 21.4918 25.1807C22.6967 26.3792 24.5582 26.237 25.5194 24.8896C26.2301 23.8875 26.1625 22.5063 25.3028 21.6193C23.8813 20.1568 22.4259 18.7281 20.9841 17.2859C20.6457 16.9609 20.314 16.6224 19.9485 16.2568Z" fill="#708A99"/>
</g>
<defs>
<clipPath id="clip0_2_6">
<rect width="26" height="26" fill="white"/>
</clipPath>
</defs>
</svg>
