<svg width="28" height="25" viewBox="0 0 28 25" fill="none" xmlns="http://www.w3.org/2000/svg">
<path d="M28 7.03798C27.1833 9.24135 26.3594 11.4447 25.5427 13.6552C24.4854 16.4861 23.4281 19.3241 22.3708 22.1549C21.926 23.3529 20.8323 23.852 19.6073 23.417C18.8417 23.1461 18.0688 22.868 17.2667 22.5899C17.2594 22.7753 17.2521 22.9322 17.2448 23.089C17.1719 24.1872 16.3406 24.9715 15.2177 25C15.1667 25 15.1083 25 15.0573 25C10.3979 25 5.74583 25 1.08646 25C0.517708 25 0.160417 24.7719 0.04375 24.3226C0.00729167 24.2157 0 24.1016 0 23.9875C0 18.0548 0 12.115 0 6.18231C0 5.53342 0.364583 5.17689 1.03542 5.17689C4.03958 5.17689 7.05104 5.17689 10.0552 5.18402C10.2812 5.18402 10.3687 5.11271 10.4417 4.92018C10.9521 3.52971 11.4698 2.13924 11.9875 0.755894C12.2427 0.0713536 12.6802 -0.135435 13.3729 0.114137C17.6896 1.64009 22.0063 3.18744 26.3302 4.70626C27.1979 5.01288 27.7812 5.51203 28 6.39622C28 6.61014 28 6.82406 28 7.03798ZM3.47083 5.98265C3.47083 12.0793 3.47083 18.1261 3.47083 24.18C3.52917 24.1872 3.58021 24.1943 3.62396 24.1943C7.46667 24.1943 11.3167 24.1943 15.1594 24.1943C15.174 24.1943 15.1958 24.1943 15.2104 24.1943C15.9396 24.1515 16.4062 23.6809 16.4208 22.9678C16.4281 22.54 16.4208 22.1121 16.4208 21.6843C16.4208 16.8925 16.4208 12.0936 16.4208 7.30182C16.4208 6.45327 15.9323 5.98265 15.0646 5.98265C11.3021 5.98265 7.53958 5.98265 3.77708 5.98265C3.68229 5.98265 3.58021 5.98265 3.47083 5.98265ZM14.0292 5.12697C14.6344 5.16976 15.2104 5.21254 15.7937 5.24819C15.8448 5.24819 15.9031 5.2268 15.9469 5.20541C16.2896 5.04854 16.6396 5.05567 16.9823 5.17689C19.301 6.00404 21.6125 6.82406 23.9312 7.65835C24.675 7.92931 24.9885 8.58533 24.7188 9.31978C24.2375 10.6247 23.7562 11.9296 23.2604 13.2274C22.976 13.969 22.3052 14.2684 21.5396 14.0046C20.7958 13.7479 20.0521 13.4769 19.3083 13.2131C18.6375 12.9707 17.9594 12.7354 17.274 12.4858C17.2667 12.5642 17.2521 12.6141 17.2521 12.6712C17.2521 15.6233 17.2521 18.5682 17.2448 21.5203C17.2448 21.67 17.3031 21.7413 17.4417 21.7913C18.2656 22.0765 19.0823 22.376 19.9062 22.6612C20.6719 22.9322 21.3062 22.6398 21.5833 21.8911C23.4062 16.9995 25.2292 12.115 27.0448 7.22338C27.3365 6.44614 27.0375 5.82577 26.2427 5.54768C22.9687 4.37826 19.6875 3.20883 16.4062 2.03941C16.049 1.91106 15.6917 1.78984 15.3198 1.65435C14.8823 2.84517 14.4521 3.9932 14.0292 5.12697ZM2.61042 5.98265C2.11458 5.98265 1.65521 5.98265 1.18854 5.98265C0.823958 5.98265 0.816667 5.98265 0.816667 6.34631C0.816667 12.172 0.816667 17.9978 0.816667 23.8235C0.816667 23.8948 0.794792 23.9732 0.823958 24.0374C0.845833 24.1016 0.91875 24.1872 0.9625 24.1872C1.50208 24.2014 2.04896 24.1943 2.60312 24.1943C2.61042 18.1119 2.61042 12.0651 2.61042 5.98265ZM17.2521 10.2824C17.2521 10.6746 17.2594 11.024 17.2448 11.3805C17.2375 11.5588 17.3031 11.6444 17.4781 11.7085C18.9073 12.2077 20.3292 12.7282 21.7583 13.2345C22.1667 13.3771 22.3635 13.2915 22.5167 12.878C22.976 11.6444 23.4354 10.4036 23.8948 9.17004C24.0625 8.71368 23.9823 8.54255 23.5156 8.37854C21.8312 7.77957 20.1469 7.17346 18.4698 6.57449C17.9594 6.39622 17.449 6.21796 16.8802 6.01117C17.1865 6.46753 17.2594 6.91676 17.2594 7.38738C17.2521 7.98636 17.2667 8.5782 17.2521 9.17717C17.2448 9.3697 17.3104 9.44813 17.5 9.51231C18.5865 9.89023 19.6729 10.2824 20.7521 10.6746C21.0365 10.7744 21.1385 10.9812 21.0583 11.2094C20.9781 11.4376 20.7521 11.5231 20.475 11.4305C20.1469 11.3164 19.826 11.2023 19.4979 11.0882C18.7687 10.8243 18.0323 10.5605 17.2521 10.2824ZM14.5469 1.37626C14.051 1.19799 13.5771 1.04112 13.1177 0.862854C12.9062 0.784417 12.8333 0.841462 12.7604 1.03399C12.3594 2.13924 11.9437 3.23735 11.5354 4.3426C11.4333 4.60644 11.3385 4.87027 11.2292 5.16976C11.849 5.16976 12.425 5.17689 13.0083 5.16263C13.074 5.16263 13.1615 5.07706 13.1906 5.01288C13.6354 3.81494 14.0802 2.60986 14.5469 1.37626Z" fill="#4197E5"/>
</svg>
