<svg width="35" height="35" viewBox="0 0 35 35" fill="none" xmlns="http://www.w3.org/2000/svg">
<rect width="35" height="35" rx="10" fill="#4BC999"/>
<rect x="5" y="5" width="25" height="25" rx="10" fill="#E8EDF3"/>
<path fill-rule="evenodd" clip-rule="evenodd" d="M18.0087 9C19.7595 9 21.154 10.5381 20.999 12.2848C20.841 14.0473 20.6897 15.8165 20.5389 17.58L20.5032 17.9965C20.387 19.3413 19.3644 20.292 18.0165 20.2997C16.653 20.2997 15.6149 19.3413 15.5064 17.9887C15.3515 16.0874 15.1811 14.1784 15.0106 12.2771C14.8634 10.5381 16.2656 9 18.0087 9ZM18.0009 26.1659C16.5987 26.1968 15.6148 25.2461 15.5838 23.8085C15.5451 22.4173 16.5057 21.3662 17.8382 21.343C19.4341 21.3121 20.4257 22.2087 20.4412 23.7158C20.449 24.8829 19.775 26.2045 18.0009 26.1659Z" fill="#3A536E"/>
</svg>
