<svg width="35" height="35" viewBox="0 0 35 35" fill="none" xmlns="http://www.w3.org/2000/svg">
<circle cx="17.5" cy="17.5" r="17.5" fill="#20AEA7"/>
<path d="M14 14.6094C14.1615 13.5312 14.6276 12.7083 15.3984 12.1406C16.0755 11.6406 16.9323 11.3906 17.9688 11.3906C19.2344 11.3906 20.2214 11.7161 20.9297 12.3672C21.5391 12.9349 21.8438 13.6667 21.8438 14.5625C21.8438 15.1406 21.6927 15.6745 21.3906 16.1641C21.1094 16.6068 20.6615 17.0911 20.0469 17.6172C19.4219 18.1641 19.026 18.638 18.8594 19.0391C18.7188 19.3724 18.6458 19.875 18.6406 20.5469H16.9922V20.1797C16.9922 19.3984 17.1016 18.776 17.3203 18.3125C17.5078 17.9115 17.8542 17.4557 18.3594 16.9453C18.9167 16.388 19.2839 15.9297 19.4609 15.5703C19.612 15.2734 19.6875 14.9375 19.6875 14.5625C19.6875 14.0625 19.5182 13.6693 19.1797 13.3828C18.8776 13.1224 18.4792 12.9922 17.9844 12.9922C17.3854 12.9922 16.9115 13.2031 16.5625 13.625C16.2656 13.9896 16.099 14.4714 16.0625 15.0703L14 14.6094ZM18.9297 21.875V24.0312H16.6562V21.875H18.9297Z" fill="white"/>
</svg>
