<svg width="32" height="28" viewBox="0 0 32 28" fill="none" xmlns="http://www.w3.org/2000/svg">
<path d="M0.933994 26.9339C0.772885 26.5794 0.810527 26.241 0.939495 25.8757C2.28291 22.0186 3.62632 18.1615 4.95362 14.299C5.01811 14.1164 5.01814 13.88 4.9537 13.6974C3.6166 9.81378 2.26876 5.9409 0.926291 2.06264C0.743715 1.53623 0.81897 1.12797 1.14668 0.875454C1.4905 0.606824 1.85578 0.63901 2.23716 0.805488C3.9614 1.55195 5.6964 2.28767 7.42064 3.02339C15.1986 6.35294 22.9818 9.68786 30.7705 13.0281C31.5762 13.3718 31.7212 13.6458 31.5331 14.4677C31.431 14.5698 31.3343 14.6665 31.2323 14.7685C31.0926 14.8223 30.9583 14.8814 30.8186 14.9459C21.3423 19.0081 11.8714 23.0649 2.40046 27.1325C2.01905 27.2991 1.64838 27.4012 1.24015 27.2401C1.13272 27.1327 1.03067 27.0306 0.933994 26.9339ZM26.1508 13.0287C18.534 9.76361 10.928 6.50925 3.2575 3.22266C4.41202 6.55839 5.54507 9.81891 6.662 13.0311C13.178 13.0249 19.6509 13.0295 26.1508 13.0287ZM26.1398 14.9626C26.1344 14.9464 26.1344 14.9357 26.1291 14.9196C26.0592 14.9142 25.9894 14.9089 25.9249 14.9089C19.5862 14.9096 13.2476 14.9104 6.91424 14.9058C6.71012 14.9058 6.64565 14.9918 6.58653 15.1691C5.84497 17.3179 5.09803 19.472 4.35109 21.6155C3.99643 22.6469 3.63639 23.6729 3.25486 24.7742C10.9262 21.4857 18.5276 18.2241 26.1398 14.9626Z" fill="#5BB9CD"/>
</svg>
