<svg width="33" height="30" viewBox="0 0 33 30" fill="none" xmlns="http://www.w3.org/2000/svg">
<path d="M33 16.1416C32.9227 16.6867 32.8711 17.2404 32.7508 17.777C31.5562 23.4584 28.2219 27.3255 22.6961 29.225C16.5172 31.346 9.44453 28.961 5.74922 23.6117C5.29375 22.9474 5.41406 22.1382 6.04141 21.6867C6.67734 21.2353 7.51094 21.3801 7.99219 22.0445C9.77109 24.5146 12.1344 26.1416 15.1078 26.8911C21.8453 28.5947 28.832 24.1143 30.0352 17.3426C31.1523 11.0479 27.457 5.13645 21.2695 3.41584C14.6609 1.5845 7.91484 5.50272 6.17031 11.9678C6.15313 12.0274 6.14453 12.087 6.12734 12.1893C6.84922 11.7123 7.52812 11.2438 8.21562 10.8008C8.74844 10.4601 9.39297 10.5027 9.85703 10.8945C10.3125 11.2779 10.4844 11.9337 10.218 12.4618C10.1062 12.6918 9.92578 12.9218 9.71094 13.0581C8.21562 14.0802 6.71172 15.0853 5.19922 16.0734C4.46875 16.5589 3.66953 16.3715 3.1625 15.6135C2.11406 14.0291 1.05703 12.4363 0 10.8349C0 10.5623 0 10.2813 0 10.0002C0.489844 8.73952 2.04531 8.71397 2.65547 9.8724C2.8875 10.3238 3.21406 10.7242 3.52344 11.1842C3.58359 10.9968 3.62656 10.869 3.66094 10.7412C5.73203 3.47547 13.2258 -1.14123 20.6938 0.247187C26.7008 1.36303 31.4359 5.96269 32.6734 11.8911C32.8195 12.5726 32.8883 13.271 33 13.9695C33 14.6935 33 15.4175 33 16.1416Z" fill="#8AC18C"/>
<path d="M19.2586 11.2012C19.2586 12.1808 19.25 13.1603 19.2672 14.1399C19.2672 14.3102 19.3531 14.5147 19.4648 14.6339C20.6164 15.8094 21.7852 16.9678 22.9453 18.1348C23.3406 18.5351 23.4781 19.0036 23.3063 19.5402C23.1344 20.0598 22.7563 20.3665 22.2148 20.4602C21.7594 20.5368 21.3555 20.4005 21.0375 20.0854C19.6539 18.7055 18.2703 17.3171 16.8867 15.9372C16.6117 15.6561 16.5 15.3068 16.5 14.9235C16.5 12.6748 16.5 10.4346 16.5 8.18589C16.5 7.36817 17.0844 6.7634 17.8664 6.75488C18.6484 6.75488 19.2414 7.34262 19.25 8.16885C19.2672 9.17396 19.2586 10.1876 19.2586 11.2012Z" fill="#8AC18C"/>
</svg>
