<svg width="48" height="36" viewBox="0 0 48 36" fill="none" xmlns="http://www.w3.org/2000/svg">
<g clip-path="url(#clip0_1_1429)">
<path d="M23.9508 36C18.694 36 13.4513 36 8.19446 36C4.10427 36 0.801195 33.254 0.154636 29.1422C-0.08431 27.5751 0.0281351 25.9505 0.0421907 24.3546C0.0562464 23.5639 0.674694 23.0607 1.44775 22.9169C2.15054 22.8019 2.89548 22.73 3.54204 22.4569C5.53794 21.6086 6.70456 19.3658 6.33911 17.238C5.94556 14.9377 4.20266 13.2412 1.96781 13.1262C0.520082 13.0687 -0.0702543 12.2492 2.38322e-05 10.9409C0.0843576 9.50318 -0.0280874 8.05111 0.196803 6.64216C0.801195 2.87539 4.11832 0.0287403 7.88523 0.0143633C18.6378 -0.0143906 29.3903 -0.0143906 40.1429 0.0143633C44.5142 0.0287403 47.9297 3.66612 48 8.25238C48.0141 9.17251 48 10.0783 48 10.9984C48 12.4648 47.5221 12.9968 46.0744 13.1118C44.0644 13.27 42.4199 14.5926 41.8155 16.5192C40.8879 19.5383 42.94 22.6438 46.0182 22.8738C47.5221 22.9888 48.0141 23.5064 47.9859 25.0447C47.9578 26.468 48.0422 27.9057 47.8173 29.2859C47.1848 33.1965 43.8676 35.9712 39.9742 35.9712C34.6331 36 29.292 36 23.9508 36ZM44.8656 9.96325C44.7813 8.9281 44.8375 7.89296 44.6126 6.91532C44.0925 4.65813 42.1529 3.29232 39.6791 3.29232C29.2498 3.29232 18.8065 3.29232 8.37718 3.29232C8.13823 3.29232 7.88523 3.3067 7.64629 3.32107C5.49578 3.47922 3.72477 5.03194 3.34526 7.18849C3.1766 8.09424 3.23282 9.04312 3.19065 9.94887C7.84307 11.1422 9.65624 15.0383 9.64219 18.0431C9.61408 21.1486 7.73062 24.9009 3.23282 26.0655C3.23282 26.6981 3.21876 27.345 3.23282 27.992C3.26093 29.214 3.69665 30.2636 4.49783 31.1549C5.53794 32.3051 6.87323 32.7364 8.37718 32.7364C18.7924 32.722 29.2076 32.7364 39.6228 32.7364C39.8899 32.7364 40.157 32.7364 40.41 32.6933C42.3637 32.4632 43.713 31.3994 44.458 29.5447C44.9218 28.4089 44.7391 27.2156 44.7672 26.0511C40.0023 24.8291 38.3157 20.7316 38.386 17.8562C38.4703 14.262 40.8457 10.8978 44.8656 9.96325Z" fill="white"/>
<path d="M28.2378 11.4584C28.294 11.5159 28.3924 11.5878 28.4768 11.6741C29.1233 12.3354 29.7699 12.9824 30.3743 13.6006C26.8041 17.2524 23.2762 20.861 19.7763 24.4409C19.1016 23.7508 18.3708 23.0032 17.668 22.2699C21.1538 18.7044 24.6958 15.0958 28.2378 11.4584Z" fill="white"/>
<path d="M21.8847 13.6581C21.8706 14.8514 20.8586 15.8434 19.706 15.8003C18.5394 15.7572 17.6258 14.7795 17.6399 13.5862C17.6539 12.4073 18.6238 11.4297 19.7623 11.4297C20.9148 11.4584 21.8987 12.4648 21.8847 13.6581Z" fill="white"/>
<path d="M28.294 24.5272C27.1274 24.5415 26.1435 23.5495 26.1435 22.3419C26.1435 21.1773 27.1133 20.1709 28.2518 20.1709C29.4044 20.1566 30.3742 21.1198 30.4023 22.2987C30.4445 23.5064 29.4887 24.5128 28.294 24.5272Z" fill="white"/>
</g>
<defs>
<clipPath id="clip0_1_1429">
<rect width="48" height="36" fill="white"/>
</clipPath>
</defs>
</svg>
